<svg xmlns="http://www.w3.org/2000/svg" viewBox="0 0 72.91 72.91"><defs><style>.cls-1{fill:#575756;}</style></defs><g id="Capa_2" data-name="Capa 2"><g id="Capa_1-2" data-name="Capa 1"><path class="cls-1" d="M19.5,72.91H6.85A6.66,6.66,0,0,1,.07,67.27,6.8,6.8,0,0,1,0,66.1V12.21A6.7,6.7,0,0,1,6.85,5.4h4.8c1.63,0,3.25,0,4.88,0h0a2.41,2.41,0,0,0,1.84-.67A2.25,2.25,0,0,0,18.9,3a12.71,12.71,0,0,1,0-1.74A1.27,1.27,0,0,1,20.26,0a1.28,1.28,0,0,1,1.35,1.21,12.76,12.76,0,0,1,0,1.85,2.18,2.18,0,0,0,.51,1.7,2.3,2.3,0,0,0,1.75.65l8,0H44.32c1.53,0,3.07,0,4.61,0h0a2.4,2.4,0,0,0,1.83-.67A2.25,2.25,0,0,0,51.29,3a12.86,12.86,0,0,1,0-1.75A1.27,1.27,0,0,1,52.65,0,1.28,1.28,0,0,1,54,1.21,12.71,12.71,0,0,1,54,3a2.24,2.24,0,0,0,.51,1.79,2.33,2.33,0,0,0,1.8.67c1.62,0,3.19,0,4.75,0H66a6.7,6.7,0,0,1,6.93,6.9V66A6.69,6.69,0,0,1,66,72.9H19.5ZM5.33,24.32c-2,0-2.6.63-2.6,2.58V65.35c0,3.25,1.57,4.83,4.81,4.83H65.39c3.18,0,4.79-1.61,4.79-4.76V26.88c0-1.94-.62-2.56-2.53-2.56ZM7.2,8.13a4.13,4.13,0,0,0-4.47,4.48v6.5c0,1.85.64,2.48,2.52,2.48h62.4c1.91,0,2.53-.62,2.53-2.56V12.61a4.17,4.17,0,0,0-4.47-4.48H7.2Z"/><path class="cls-1" d="M31.09,54H31a1.42,1.42,0,0,1-1.11-.52L28,51.59c-2-2-3.94-3.92-5.89-5.9A1.4,1.4,0,0,1,22,43.63a1.34,1.34,0,0,1,1-.44,1.58,1.58,0,0,1,1.07.48c1.77,1.69,3.55,3.47,5.45,5.44a2.52,2.52,0,0,0,1.76.86,2.6,2.6,0,0,0,1.68-.73q5.56-4.82,11.16-9.6l4.63-4A2.37,2.37,0,0,1,50.12,35a1.2,1.2,0,0,1,.89.44,1.36,1.36,0,0,1,.42,1,1.68,1.68,0,0,1-.63,1.15q-3.51,3-7,6l-5,4.27-6.42,5.51c-.54.46-.86.64-1.16.64Z"/></g></g></svg>