<svg xmlns="http://www.w3.org/2000/svg" viewBox="0 0 63.23 91.56"><defs><style>.cls-1{fill:#575756;}</style></defs><g id="Capa_2" data-name="Capa 2"><g id="Capa_1-2" data-name="Capa 1"><path class="cls-1" d="M1.7,91.56c-1.11,0-1.51-.37-1.64-1.51A11.48,11.48,0,0,1,0,88.59V20.35a5.44,5.44,0,0,1,.19-1.86,1.81,1.81,0,0,1,1.21-1L22.89,9.19,45.53.48A6.62,6.62,0,0,1,47.93,0c2.87,0,4.81,2.18,4.84,5.42s0,6.31,0,9.47a3.24,3.24,0,0,0,2.15,3.28c5.63,2.24,8.26,6.07,8.28,12,0,15.65,0,32.07,0,48.79,0,6.16-3.38,10.73-9,12.23a9.61,9.61,0,0,1-2.4.32H1.7ZM6.4,20.39c-2.58,0-3.55,1-3.55,3.54V85.42A3.31,3.31,0,0,0,3.68,88a3.1,3.1,0,0,0,2.3.86H26.32q12.36,0,24.72,0c5.49,0,9.32-4,9.32-9.58V64.43c0-11.31,0-23,0-34.51a9.39,9.39,0,0,0-9.51-9.57c-5.85,0-12.19.06-20,.06H6.4Zm26.37-2.87H46.85a3,3,0,0,0,2.23-.84,3.18,3.18,0,0,0,.83-2.36c0-2.63,0-5.45,0-8.28a2.94,2.94,0,0,0-.77-2.23,2.45,2.45,0,0,0-1.77-.73,3.65,3.65,0,0,0-1.36.3c-1.81.72-3.63,1.41-5.45,2.1l-2.49,1L9.13,17.53H32.77Z"/><path class="cls-1" d="M15,60c-1.44,0-1.65-.62-1.75-.92s-.31-.92.75-1.75a3.72,3.72,0,0,0,1.34-2.11c1.73-6.8,5.83-11,12.52-12.79a3.2,3.2,0,0,0,2.44-2.58,1.37,1.37,0,0,1,2.68,0,3.25,3.25,0,0,0,2.55,2.62C42.07,44.21,46.12,48.32,47.85,55a4.36,4.36,0,0,0,1.7,2.54A1.31,1.31,0,0,1,50,59a1.29,1.29,0,0,1-1.31.91H15ZM31.64,44.76A13.88,13.88,0,0,0,18.8,53.25a3,3,0,0,0,.07,2.83,2.88,2.88,0,0,0,2.53,1.16l4.75,0H37l4.73,0h0a2.64,2.64,0,0,0,2.68-3.94,13.82,13.82,0,0,0-12.75-8.53Z"/><path class="cls-1" d="M22,70.41H14.59a1.39,1.39,0,0,1-1.42-1,1.41,1.41,0,0,1,.8-1.63,4.36,4.36,0,0,1,1.51-.17H47.72a4.36,4.36,0,0,1,1.51.17,1.42,1.42,0,0,1,.82,1.59,1.37,1.37,0,0,1-1.41,1.07H22Z"/></g></g></svg>