<svg xmlns="http://www.w3.org/2000/svg" viewBox="0 0 718.99 765.59"><defs><style>.cls-1{fill:#fff;}.cls-2{fill:#a91a17;}.cls-3{fill:none;stroke:#fff;stroke-miterlimit:10;stroke-width:0.71px;}.cls-4{fill:#ce112d;}</style></defs><g id="Capa_2" data-name="Capa 2"><g id="Capa_1-2" data-name="Capa 1"><path d="M475.18,101.73c92.2,3.12,162.09,44.92,210,123.31,23.78,38.9,35.08,81.7,33.69,127.54-.74,24.48-7.87,47.51-16.28,70.19-20.1,54.19-48.77,104-79.43,152.67-38.51,61.15-80.75,119.67-125.51,176.39-1.42,1.8-2.84,3.62-4.35,5.35-9.78,11.17-26.27,11.36-35.58-.28C389.5,671.69,325.63,583.51,275.48,486.15c-14.76-28.65-27.35-58.27-36-89.4-14-50.24-8.27-99.26,12.46-146.11,35-79.1,95.56-127.61,180.55-144.94A187.08,187.08,0,0,1,475.18,101.73Z"/><path class="cls-1" d="M668.4,346.08c-.1,106.69-86.1,192.18-193.26,192.12-107.38-.06-192.57-86-192.39-194.17.17-106.51,86.34-191.62,193.85-191.48C583.3,152.69,668.51,238.66,668.4,346.08Z"/><path d="M546,397.82q-.07-1.81-.33-4c-.18-1.46-.42-2.93-.73-4.43a20.84,20.84,0,0,0-1-3.65L543.5,360c0-.11-.15-.58-.33-1.42a8.25,8.25,0,0,0-.62-1.9c-.67-1.32-1.37-2.76-2.09-4.34a40.81,40.81,0,0,0-2.52-4.67,26.09,26.09,0,0,0-3.44-4.35,2.33,2.33,0,0,1-.34-2.15c-.68-1.58-1.75-2.57-4.62-2.62-2.71,0-5.41.54-8.1.61-.27.2-.56.45-1,.76a7.53,7.53,0,0,0-2.64,3.66c-.25.57-.56,1.45-.94,2.63s-.78,2.53-1.19,4-.86,3.06-1.35,4.71-.94,3.2-1.36,4.66-.81,2.76-1.16,3.91-.62,2-.79,2.48a24.69,24.69,0,0,1-1,2.87,7,7,0,0,0-.6,2.89,2.18,2.18,0,0,0,.69,1.54,8.38,8.38,0,0,1,1.2,1.55L502.94,400c.17.27.55.79,1.13,1.55s1.62.78,1.65,1.13a2,2,0,0,1-.17.65c-.14.38-.42.41-.53.84s-.24.84-.37,1.21a1.94,1.94,0,0,0-.18.65,2.54,2.54,0,0,0,1.74,1.64,19.88,19.88,0,0,1,3,1.35,1.87,1.87,0,0,0,1.85-.2,2.59,2.59,0,0,1,1.76-.46c1.57.41,2.64.18,3.22-.68a10.12,10.12,0,0,0,1.32-3.41c.31-1.41.65-2.92,1-4.52s2-8.87,3.21-9.89c.68-.52,1.69.52,2.78.23s1.92.47,3.37.24a21.7,21.7,0,0,1,1,2,19,19,0,0,1,.75,1.93,44.63,44.63,0,0,1,1.45,5.91,25.2,25.2,0,0,0,1.87,6,1.16,1.16,0,0,0,.87.71,9,9,0,0,0,1.68.27,15.32,15.32,0,0,0,2,0c.7-.05,1.34-.12,1.91-.21l1.93-.31,3-.47a6.39,6.39,0,0,0,.75-2.83,7.79,7.79,0,0,1,.78-3.1A7.91,7.91,0,0,0,546,397.82Zm-15.38-18.64a4.09,4.09,0,0,1-1.65.37h-1.35a12.25,12.25,0,0,1-2.13-.16,10.35,10.35,0,0,0-2.44.12l-.46-4.2c.36-1.24.68-2.29,1-3.13a.88.88,0,0,0,.05-.15,16,16,0,0,1,.34-4.87,1.25,1.25,0,0,1,.18-.45,2.1,2.1,0,0,1,.84-1.33c.52-1,1.18-2.34,1.32-2.48s2-1.5,2.18-1.58l1.86,3.26a6.62,6.62,0,0,1-.06,1.45,2.78,2.78,0,0,1,.37,1c.14,1,.21,2,.35,3a6.77,6.77,0,0,1,.79,2.07c.13,1.2,2.29,5.93,2.24,7.09C534,379.9,532.17,379.48,530.61,379.18Z"/><path d="M551.2,395.21c0-1.35,0-3.3,0-5.85s.1-5.24.16-8.09.12-5.6.18-8.29.11-4.87.16-6.56c0-.73,0-1.3,0-1.73a5.41,5.41,0,0,1,.09-1,5.25,5.25,0,0,0,.1-.81q0-.48.12-1.29l.32-3.16c.11-1.13.22-2.2.31-3.19s.17-1.69.23-2.07a2.67,2.67,0,0,1,.07-1.59c.18-.64.12-1-.18-1h-1.64l-1.83,0a6.31,6.31,0,0,1-1.57-.22,1,1,0,0,1-.79-.61c-.11-.34-.26-.75-.45-1.24a8.21,8.21,0,0,1-.44-1.47,2.57,2.57,0,0,1,0-1.3,1,1,0,0,1,.86-.7c3-.68,5.58-1.14,7.59-1.4a21.82,21.82,0,0,1,5.77,0,15.57,15.57,0,0,0,1.81.23,4.72,4.72,0,0,1,1.79.47,3.9,3.9,0,0,0,2.36.41,5.91,5.91,0,0,1,2.64.57,3.12,3.12,0,0,1,.91.42,4.77,4.77,0,0,1,.51.43,3.17,3.17,0,0,0,.5.43,4.54,4.54,0,0,0,.94.5c.79.38,3,2,4,2.12a6.76,6.76,0,0,1,2.68,1,30,30,0,0,1,8.09,7.74,32.31,32.31,0,0,1,4.74,9.71,14,14,0,0,1,.51,3.88,26.62,26.62,0,0,1-.33,4,38.86,38.86,0,0,1-.8,3.89c-.34,1.28-.66,2.49-1,3.63a13.64,13.64,0,0,1-2.45,4.83,29,29,0,0,1-4,4.22,56.85,56.85,0,0,1-4.66,3.64c-1.6,1.12-5.08,1.51-6.36,2.43-.15.1-.33.23-.55.4a5.13,5.13,0,0,1-.7.49c-.25.16-.58.35-1,.58L556,404l-3-.66c-.12-1.11-.22-2-.3-2.72s-.17-1.38-.25-2a10.22,10.22,0,0,0-.22-1.22ZM563,389.52a20.84,20.84,0,0,0,3.41-1.53,36.05,36.05,0,0,0,4-2.5c1.3-.92,4.47-1.24,5.42-2.22a35.56,35.56,0,0,0,3.52-3.62s1-7.57-.65-13.25c-1.53-5.34-11.74-8.94-11.74-8.94a4.93,4.93,0,0,0-.81-.1l-1.08-.1a3.19,3.19,0,0,0-.52.08l-.3.17a3.72,3.72,0,0,0-.18.72q-.1.63-.18,1c-.14,2.35-.24,4.65-.31,6.92s-.16,4.55-.26,6.82-.23,4.6-.39,6.95-.41,4.78-.74,7.29Z"/><path d="M607.58,387.59a19.26,19.26,0,0,0-.7,1.87,18.43,18.43,0,0,0-.49,1.82,43.51,43.51,0,0,0-.85,5.56,26.54,26.54,0,0,1-1.18,5.67.94.94,0,0,1-.64.69,5.39,5.39,0,0,1-1.31.3,9.2,9.2,0,0,1-1.59.05c-.55,0-1.06-.07-1.5-.14l-1.54-.23-2.39-.36a6.89,6.89,0,0,1-.73-2.62,8.52,8.52,0,0,0-.76-2.87,9.34,9.34,0,0,1-.22-2.22c0-1.13,0-2.38.07-3.74s.18-2.75.35-4.15a22.5,22.5,0,0,1,.65-3.45l-1-24c0-.1.09-.55.19-1.33a9.32,9.32,0,0,1,.39-1.79c.47-1.25,1-2.62,1.43-4.11a39.69,39.69,0,0,1,1.75-4.44A24.05,24.05,0,0,1,600,343.9c1-1.31,5.32-.82,8.09-1.11,6.35-.26,5.48,2.22,5.84,3.31s.73,2.34,1.12,3.72.83,2.83,1.29,4.35.9,3,1.3,4.31.77,2.56,1.1,3.63.58,1.83.74,2.29a25.45,25.45,0,0,0,.91,2.65,7.72,7.72,0,0,1,.61,2.69,2.27,2.27,0,0,1-.46,1.46,7.39,7.39,0,0,0-.86,1.47l9.64,26.52a28.33,28.33,0,0,0,.41,4.36c.11.41-1.12,1.22-1,1.57a2.55,2.55,0,0,1,.17.6,2.13,2.13,0,0,1-1.28,1.58,15,15,0,0,0-2.32,1.34,1.27,1.27,0,0,1-1.46-.13,1.8,1.8,0,0,0-1.4-.38c-1.21.43-2.07.24-2.56-.54a10.69,10.69,0,0,1-1.2-3.15c-.31-1.31-.65-2.71-1-4.19s-3.94-10.06-4.93-11a5.55,5.55,0,0,0-2.15-1.06A25.49,25.49,0,0,0,607.58,387.59Zm-2.94-27.25c-.12.89,2.24,8.92,2.2,10a26,26,0,0,0,.08,3.31,8.16,8.16,0,0,0,.68,2.78,1.13,1.13,0,0,0,1.26.84c.57-.07,4.91-.06,5.61,0l-1-4c-.35-1.15-1.13-2.09-1.39-2.88s-.84-2-1.16-2.81-1.47-6.54-1.75-7.08c0-.11-1.51-.44-1.7-.66S604.77,359.46,604.64,360.34Z"/><path d="M337.08,424.34h-3.61v-.59h3.61Z"/><path d="M346.75,417.75v6.78h-5.68v4.15h-.71V417.75Zm-5.68,6.15h5v-5.52h-5Z"/><path d="M350.48,420.09h.67v8h4.06v-.94h.68v1.53h-5.41Z"/><path d="M362.77,420.09l1.19,8.59h-.71l-.37-2.65H359.1l-.37,2.65H358l1.19-8.59Zm0,5.34-.66-4.74h-2.32l-.64,4.74Z"/><path d="M371.84,420.09v.6l-4.49,7.4h4.49v.59h-5.23v-.61l4.47-7.38h-4.47v-.6Z"/><path d="M379.12,420.09l1.18,8.59h-.7l-.38-2.65h-3.78l-.37,2.65h-.71l1.19-8.59Zm0,5.34-.65-4.74h-2.33l-.64,4.74Z"/><path d="M394.64,420.09v8.59h-6.21v-.59h1.07v-7.4h-1.07v-.6Zm-4.47,8H394v-7.4h-3.8Z"/><path d="M403.34,420.09v.6H399v3.37h2.17v.59H399v3.44h4.3v.59h-5v-8.59Z"/><path d="M417.77,417.75v.63h-5.33v4.48h5.33v5.82h-6v-.62h5.33v-4.58h-5.33v-5.73Z"/><path d="M425.8,420.09l1.19,8.59h-.71l-.37-2.65h-3.78l-.37,2.65h-.71l1.19-8.59Zm0,5.34-.66-4.74h-2.32l-.64,4.74Z"/><path d="M435.92,428.68h-.68L431,421.3v7.38h-.67v-8.59H431l4.29,7.39v-7.39h.68Z"/><path d="M444,420.09v.6h-2.34v8H441v-8h-2.34v-.6Z"/><path d="M452.19,420.09v8.59h-5.41v-8.59Zm-4.74,8h4.07v-7.4h-4.07Z"/><path d="M468.21,417.75v10.93H461v-.62h1.24v-9.68H461v-.63Zm-5.23.63v9.68h4.52v-9.68Z"/><path d="M477.35,420.09v8.59h-5.41v-8.59Zm-4.73,8h4.06v-7.4h-4.06Z"/><path d="M481.75,420.09l2.93,4,2.93-4h.68v8.59h-.68v-7.51l-2.93,3.89-2.93-3.89v7.51h-.67v-8.59Z"/><path d="M492.68,420.09v8.59H492v-8.59Z"/><path d="M502.05,428.68h-.67l-4.29-7.38v7.38h-.68v-8.59h.68l4.29,7.39v-7.39h.67Z"/><path d="M511.14,420.09v.6h-4.68v7.4h4v-3.44h-1.55v-.59h2.22v4.62h-5.36v-8.59Z"/><path d="M520.28,420.09v8.59h-5.41v-8.59Zm-4.74,8h4.07v-7.4h-4.07Z"/><path d="M532.54,424.34h-3.6v-.59h3.6Z"/><path d="M547.59,417.75v1.69h-.71v-1.06h-5v9.68h5V427h.71v1.69H541.2V417.75Z"/><path d="M554.85,420.09l1.19,8.59h-.71L555,426h-3.78l-.37,2.65h-.71l1.19-8.59Zm0,5.34-.65-4.74H551.9l-.64,4.74Z"/><path d="M564.71,420.09v5.31H563l1.69,3.28H564l-1.72-3.28H560v3.28h-.67v-8.59ZM560,424.81h4v-4.12h-4Z"/><path d="M572.58,420.09v.6h-2.35v8h-.67v-8h-2.34v-.6Z"/><path d="M579.34,420.09l1.18,8.59h-.7l-.38-2.65h-3.78l-.37,2.65h-.71l1.19-8.59Zm0,5.34-.66-4.74h-2.32l-.64,4.74Z"/><path d="M589.17,420.09v.6h-4.69v7.4h4v-3.44H587v-.59h2.22v4.62h-5.36v-8.59Z"/><path d="M597.86,420.09v.6h-4.29v3.37h2.16v.59h-2.16v3.44h4.29v.59h-5v-8.59Z"/><path d="M606.52,428.68h-.67l-4.3-7.38v7.38h-.67v-8.59h.67l4.3,7.39v-7.39h.67Z"/><path d="M614.56,420.09l1.19,8.59H615l-.37-2.65h-3.78l-.38,2.65h-.71l1.19-8.59Zm0,5.34-.66-4.74h-2.33l-.63,4.74Z"/><path d="M622.19,424.34h-3.6v-.59h3.6Z"/><path d="M422.81,323.63c-.35.15-.58.07-.72-.23a2.85,2.85,0,0,1-.26-1.28,3,3,0,0,0-.3-1.36c-.22-.5-1.25-.86-3.07-1.09s-3.86-.38-6.1-.46c-.78,0-1.54,0-2.3,0a25.87,25.87,0,0,1-8.35,1.32c.07.17.1.29.07.35a4.51,4.51,0,0,1-1.76.45,4.76,4.76,0,0,1-1.39-.22c-.43-.14-.87-.3-1.32-.47a3.87,3.87,0,0,0-1.4-.27,10.33,10.33,0,0,1-3.54-.37,28.9,28.9,0,0,1-3.12-1.4,12.21,12.21,0,0,1-2.71-1.94,4.83,4.83,0,0,1-1.48-2.66q-.39-2.25-1.2-5.4c-.54-2.1-1.06-4.16-1.56-6.16s-.91-3.77-1.2-5.3-.29-2.51,0-2.93a22.8,22.8,0,0,0,1.26-1.92c.62-1,1.34-2.13,2.19-3.44s1.71-2.62,2.63-3.93,2.84-3,4-3.28a8.93,8.93,0,0,1,.93-.15,13.33,13.33,0,0,1,5.58-1.39,9.39,9.39,0,0,1,4.91-.11,10.14,10.14,0,0,1,4,.47q2.63.81,5.3,1.57a25.29,25.29,0,0,0,5.11.94,4.72,4.72,0,0,0,4-1.54,10.09,10.09,0,0,0,1.18-1.66,13.24,13.24,0,0,0,1.1-2.34q.2-.57.33-1.11a3.29,3.29,0,0,1-1.57-3.63,12.34,12.34,0,0,0-2.48-1.37,37.34,37.34,0,0,1-3.78-1.78,17.27,17.27,0,0,0-7.43-2.54,25.39,25.39,0,0,0-3.73-.06c-1.33.07-2.86.13-4.59.17a12.68,12.68,0,0,1-3.52-.45c-1-.3-15.1,2.06-15.86,2.85-.22.22-.58.61-1.08,1.18s-1,1.18-1.48,1.82-1,1.25-1.42,1.82l-1,1.28a9.44,9.44,0,0,1-2.36,1.91,9,9,0,0,0-2.25,1.81q-.12.21-.63.9c-.35.46-.69.94-1,1.44l-1,1.38a3.11,3.11,0,0,0-.46.74l-3.28,7.05a38.07,38.07,0,0,1-1.53,12,30.64,30.64,0,0,1,.46,4.57c.42,1.76.86,3.5,1.33,5.2a37,37,0,0,0,2.39,6.33,27.83,27.83,0,0,0,3.63,5.6,23.66,23.66,0,0,0,5.41,4.69l1.95,1.3c1,.67,2.1,1.38,3.27,2.11s2.24,1.44,3.26,2.12l2,1.3c3.27,1.84,15,1.06,18.2.41A50.89,50.89,0,0,0,415.44,333l.92-.41c.48-.21.95-.44,1.42-.68s.9-.46,1.31-.64l.92-.41a13.83,13.83,0,0,0,1.65-1.39,10.17,10.17,0,0,0,1.39-1.72,6.27,6.27,0,0,0,.8-1.92,3.08,3.08,0,0,0-.22-2C423.49,323.51,423.22,323.45,422.81,323.63Z"/><path d="M467.63,328.93c-.22-1.41-.51-3-.89-4.69s-.82-3.45-1.33-5.23a33.41,33.41,0,0,0-1.56-4.36L462,284.77c-.06-.13-.23-.69-.53-1.68a14.16,14.16,0,0,0-.87-2.28q-1.29-2.4-2.69-5.26c-.34-.68-.69-1.36-1.06-2a52.22,52.22,0,0,0-4.5-5.85c-1.29-1.45-3.32-2.64-5-4-.93-.35-2.25-.75-2.57-.91s-4.24-.32-5.17-.44a2.77,2.77,0,0,1-1.65.29c-1.58-.16-4.16-.22-5.44.92a3.28,3.28,0,0,0-.83,1.49c-.06.33-.11.68-.18,1.07-.21,1.35-.41,2.87-.62,4.57s-.42,3.49-.68,5.36-.48,3.65-.7,5.32-.41,3.15-.6,4.46.1,11.49-.11,13l-2.48,20.43c.21.33-.45,2,.24,3s-.44,8.64-.36,9.06a2.66,2.66,0,0,1-.08.74c-.08.43-.15.89-.2,1.38s-.12,1-.2,1.38a2.32,2.32,0,0,0-.08.75,3.67,3.67,0,0,0,1.95,2.07,26.24,26.24,0,0,1,3.21,1.85,1.54,1.54,0,0,0,1.8-.06,2,2,0,0,1,1.69-.37c1.62.62,2.65.45,3.09-.5a10.92,10.92,0,0,0,.84-3.86c.11-1.62,1-8.33,1.11-10.17s-.18-8.34.87-9.42c.6-.55,1.82.16,2.86-.08s7.88,1.56,9.3,1.43c.46.79.18,3.31.57,4.11s1,3.41,1.26,4.15a55.26,55.26,0,0,1,2.07,6.4c.6,2.32-1.69,4-.5,6.48a1.62,1.62,0,0,0,1,.9,7.85,7.85,0,0,0,1.7.47,11.24,11.24,0,0,0,2,.18,17.66,17.66,0,0,0,1.86-.07l1.89-.18,2.93-.27a7.55,7.55,0,0,0,.35-3.23,9.47,9.47,0,0,1,.34-3.55A10.66,10.66,0,0,0,467.63,328.93Zm-16.47-22.21c-.74-.15-11-1.73-11.91-1.65l.79-4.79c.18-1.41-1.19-2.93-1-3.89s.45-5,.66-6-.11-9.37.33-9.33l7.12-.77c.19.47,1.32,12.09,1.67,13.21a26.46,26.46,0,0,1,1.11,3.15,37,37,0,0,0,1.18,4.72c.54,1.45-.12,2.39.2,3.87C451.47,306.06,451.9,306.85,451.16,306.72Z"/><path d="M491.4,284.06a6,6,0,0,1,2.55-1.28,12.6,12.6,0,0,1,3.32-.33c1.18,0,2.36.09,3.53.18l1.79.14a2.48,2.48,0,0,1,1.78.67l3.85,5.4a1.68,1.68,0,0,0,1.33.56,10.72,10.72,0,0,1,1.46.17,15.73,15.73,0,0,0,3.09-.26,44.32,44.32,0,0,0,4.48-.89,27.15,27.15,0,0,0,4.08-1.33c1.2-.52,1.86-1.06,2-1.62a5.08,5.08,0,0,0-1.36-3.13,20.1,20.1,0,0,1-2.1-2.95,6,6,0,0,0-2.42-2.14,36.94,36.94,0,0,0-3.39-1.56c-1.16-.45-2.21-.83-3.14-1.13s-1.47-.6-1.57-.89a16.55,16.55,0,0,1-3-.71c-1.08-.34-2.14-.69-3.18-1s-2.08-.67-3.11-1a11.54,11.54,0,0,0-2.8-.46,35.21,35.21,0,0,0-5.27.13,46.9,46.9,0,0,0-5.68.91,45.74,45.74,0,0,0-5.44,1.56,25.73,25.73,0,0,0-4.55,2.07,7.73,7.73,0,0,0-2.22,1.92,15.82,15.82,0,0,0-1.69,2.57,17.08,17.08,0,0,0-1.18,2.83,13.16,13.16,0,0,0-.58,2.65,21.33,21.33,0,0,0,1.21,9.09q1.56,4.15,6.78,7.74a4.78,4.78,0,0,1,.73.75,14.49,14.49,0,0,1,1.43,1.16,39.47,39.47,0,0,1,5.08,4.93l.46,0c1.47,1.39,2.86,2.78,4.15,4.18s2.57,2.8,3.86,4.18,2.63,2.71,4,4a29.46,29.46,0,0,0,4.83,3.6q.31.13.45.75c.09.42.14.68.16.8l0,.37a4.63,4.63,0,0,1-.79,2.54,2.28,2.28,0,0,1-1.43.73c-.51.07-1,.12-1.61.16a2,2,0,0,0-1.43.77,28.6,28.6,0,0,1-2.9.19c-1.24,0-2.25.05-3,0a4.5,4.5,0,0,1-3.27-1.4,13.5,13.5,0,0,1-1.78-2.67,17.32,17.32,0,0,0-1.68-2.68,3.72,3.72,0,0,0-3-1.34,12.5,12.5,0,0,0-3.15.44c-1.52.35-3.06.77-4.62,1.28a37.55,37.55,0,0,0-4.23,1.62c-1.26.59-1.89,1.09-1.89,1.52l-.06.27a7.63,7.63,0,0,0,1.33,2.24,9.78,9.78,0,0,1,1.42,2.21,9.42,9.42,0,0,0,2.88,3.67,18.36,18.36,0,0,0,4.66,2.67,39.54,39.54,0,0,0,5.58,1.77,51.53,51.53,0,0,0,5.77,1.08c.08.14.18.28.26.42a21.51,21.51,0,0,1,3.77.75l.57.05a7.94,7.94,0,0,0,1.19,0l1.57-.12,1.38-.08.71,0c2.71-.34,5.31-.8,7.83-1.36a27.65,27.65,0,0,0,6.67-2.35,14.47,14.47,0,0,0,4.77-3.87,10.53,10.53,0,0,0,2.12-5.94,24.23,24.23,0,0,0-.21-4.86,32.46,32.46,0,0,1-.34-5,4.17,4.17,0,0,1-1.92-2,10.57,10.57,0,0,0-1.5-2.39,16.52,16.52,0,0,0-1.78-1.77c-.74-.63-1.52-1.28-2.35-2s-1.65-1.32-2.44-1.91l-2-1.51a8.59,8.59,0,0,1-2.3-2.33,14.62,14.62,0,0,0-1.82-2.3c-1.32-1.16-2.48-2.27-3.5-3.32s-2-2.1-3-3.15-2-2.11-3.09-3.18a48.21,48.21,0,0,0-3.9-3.4q-1-.69-1.44-1a3,3,0,0,1-.71-.59,1,1,0,0,1-.23-.65,10.27,10.27,0,0,1,.06-1.19A3.75,3.75,0,0,1,491.4,284.06Z"/><path d="M544.23,312.1c-1,.36-.7,7.13-1.31,7.75-1.06,1.21-1,2.48-1.29,4.34s-.55,3.61-.78,5.25a13.56,13.56,0,0,1-1.09,4c-.5,1-1.48,1.29-2.94.86a1.94,1.94,0,0,0-1.6.56,1.4,1.4,0,0,1-1.69.27,17.54,17.54,0,0,0-2.84-1.49,2.71,2.71,0,0,1-1.66-1.85,9.81,9.81,0,0,1-.23-2.22,4.35,4.35,0,0,0-.24-1.55,5.26,5.26,0,0,0-.91-1.92c-.56-.87.41-2,.25-2.35l4-24.07c-.36-.68.23-2.91.19-3.59a10.13,10.13,0,0,1,.45-3.36,33.7,33.7,0,0,0,.8-3.34c.15-.59.36-1.55.64-2.89s.59-2.86.93-4.56.69-3.5,1.08-5.42.75-3.74,1.08-5.47.64-3.29,1-4.67a16.2,16.2,0,0,1,.5-1.92c.38-1.68.35-.65,1.5-1.84s2.24.63,4.08.22c.54.23,7.34-1.18,9.19-.61,2,.63,3.16,3.61,4.1,5.37a52.67,52.67,0,0,1,2.49,5.35c.71,1.81,1.41,3.47,2.08,5a11.61,11.61,0,0,1,.63,2.19c.2,1,.32,1.5.35,1.63L567.58,311a29.74,29.74,0,0,1,1.1,4.21c.33,1.72,2.35,5.17,2.56,6.85s1.11,8.49,1,9.89.69,2.24.52,2.66c-.58,1.21.36,2.61.23,3.74s-5.4.26-5.94,1.26l-2.82.24-1.81.16a16.2,16.2,0,0,1-1.76.06,9.93,9.93,0,0,1-1.86-.19,6.39,6.39,0,0,1-1.51-.48,1.17,1.17,0,0,1-.71-.9c-.59-2.45,1-5.26.95-7.55a54.51,54.51,0,0,0-2-9.47c-.2-.72-.8-2.33-1.09-3.09s-.22-6.07-.59-6.82C552.55,311.89,545.22,311.74,544.23,312.1Zm1.11-29c-.09.32-.11,12.18-.34,13.16s-.48,2.2-.77,3.64l-1.1,4.85a21.91,21.91,0,0,1,3.91-.19c.68.06,8.09.26,8.33-.55.34-1-1-2.5-1-3.85a35.07,35.07,0,0,0-.27-4.19c-.16-1.38-2.11-12.94-2.24-13.39a8.37,8.37,0,0,0-3.23-1C547,281.49,545.58,282.19,545.34,283.08Z"/><path d="M374.45,335.88a11.29,11.29,0,0,0-2.13-2.62A28.15,28.15,0,0,1,370,331a13.36,13.36,0,0,0-2.46-2.37,13.22,13.22,0,0,0-2.44-1.38,18.78,18.78,0,0,0-2.8-.91c-1-.25-2.19-.55-3.51-.91-1-.31-13.16-.88-14.07-.78a6.46,6.46,0,0,0-2.55.81c-.23.12-.61.35-1.15.69s-1.08.71-1.63,1.1l-1.59,1.12-1.15.78a7.91,7.91,0,0,1-2.32,1,7.44,7.44,0,0,0-2.21.91,7.84,7.84,0,0,1-.74.57c-.39.29-.78.59-1.18.91l-1.13.87a2.38,2.38,0,0,0-.56.49l-2.63,2.83c-.6,1.38-1.4,2.71-2,4.1a2.87,2.87,0,0,1-.28.52c-.49,5.27-1.49,17.2-1.65,18.13a11.65,11.65,0,0,1-.55,2.09c.09,2.68.34,5.37.52,8.05.46,1.51.94,3,1.44,4.46a29.25,29.25,0,0,0,2.25,5,21.55,21.55,0,0,0,3.23,4.35,18.91,18.91,0,0,0,4.65,3.51l1.66.94c.86.49,1.78,1,2.77,1.54a51.7,51.7,0,0,0,5.84,1.74l1.89.53a27.21,27.21,0,0,0,8.6.52,41.58,41.58,0,0,0,8.7-2l.78-.27c.41-.14.81-.29,1.21-.46s.77-.3,1.12-.42l.79-.27a10.83,10.83,0,0,0,1.47-1c.18-.15.34-.31.51-.47a7.92,7.92,0,0,0-2.68-7.95c-1.29-.27-2.71-.5-4.26-.7-1.14-.15-.9.47-2,.4-.27,0-3.41.33-4.4.31-.78,0-1.52-.09-2.25-.19,0,0-7.5-.23-9.3-1.22-.24,0-.48-.06-.71-.11-.95-.17-1.35-1.09-2-1.66a3.83,3.83,0,0,1-1.33-2.08c-.29-1.2-.7-2.64-1.24-4.32s-1.06-3.32-1.57-4.92-.92-3-1.23-4.24a3.68,3.68,0,0,1-.13-2.39c.18-.24.19-2.64.44-3.56.45-1.65,2.35-10.23,3.37-12.79a9.65,9.65,0,0,1,2.9-3.35c1.07-.83,2.22-.69,3.06-1.25.23-.15.79-.44,1.42-.75,2.64-2.68,6.55-2.17,9.47-.12l.16-.1a6.88,6.88,0,0,1,3.47,1.38c1.17.83,2.36,1.66,3.56,2.47a18.07,18.07,0,0,0,3.6,1.93,3.77,3.77,0,0,0,3.45-.3,9.91,9.91,0,0,0,1.35-1.06,11.55,11.55,0,0,0,1.49-1.62,7.93,7.93,0,0,0,1-1.73A1.49,1.49,0,0,0,374.45,335.88Z"/><path d="M409.81,400c.93-2.21.35-4.6-.45-6.92a20.26,20.26,0,0,1-1.47-2.57c-.37-1-1.3-3.49-1.38-3.82-.7-3-2.1-3.06-3-5.53s-2-5.15-3.26-8a3.93,3.93,0,0,1,1.53-2l3.11-2.58c1.17-1,2.38-2.06,3.65-3.3A20.66,20.66,0,0,0,411.9,361a16.46,16.46,0,0,0,2-5.35,15.78,15.78,0,0,0-.29-6.73,5.79,5.79,0,0,0-1-2.29,5.74,5.74,0,0,1-1-2.28,2.94,2.94,0,0,0-1.71-2,42.34,42.34,0,0,0-3.75-2,29.73,29.73,0,0,0-6.6-.8c-1.36.05-3.81-.06-4.87-.1-1.94,0-3.3.14-4.05.14l-2,.06q-3.07.14-6,.51c-1.94.25-3.87.56-5.76.92l-5.7,1.07c-1.9.36-2.32,5.22-1.2,5.19a26.37,26.37,0,0,1,3.14.1,7.71,7.71,0,0,1,2.49.6,1.63,1.63,0,0,1,1.11,1.36c0,.1.73,6.25-.41,9.37-.27,1.69-.64,3.3-1.05,4.91l-2,14.09a21.47,21.47,0,0,1,0,5.49,3,3,0,0,1-.23.91c-.06,3.1-.6,8.41-1,11.81a7.15,7.15,0,0,1,.06,1.73c0,.25-.06.55-.09.85,0,.12.06.25.08.37a5.21,5.21,0,0,1,0,1,.13.13,0,0,1,0,.06,6.72,6.72,0,0,1,0,1.6l-.07,5.65s1.16-.21,2.26-.38a16.68,16.68,0,0,1,5.81-1.13,4.09,4.09,0,0,1,.75-.27,6.13,6.13,0,0,0,.8-.21.61.61,0,0,0,.42-.55c0-.23.05-.77.13-1.64s.18-1.85.29-3,.36-2.65.37-3.77.05-2,.11-2.75c0-.34,0-.6,0-.78v-.51c0-.18,0-.38,0-.62s0-.6,0-1.12a32.09,32.09,0,0,0,.63-3.49c.38-1.35.72-2.67,1-3.95s.55-2.31.76-3.07a10.46,10.46,0,0,1,.62-1.79,2.05,2.05,0,0,1,1.66-1,2.9,2.9,0,0,1,.51-.05l.42,0a8.49,8.49,0,0,1,1.8,2.81c.46,1.12.55,3.45,1,5s2.49,3.09,3.05,4.94,3.21,5.48,4.23,7.64l1.19,7.91a6.81,6.81,0,0,0,1.78,1.94,3.26,3.26,0,0,0,2.58.45,6.55,6.55,0,0,1,1.22-.1,2.08,2.08,0,0,0,1.31-.49,4.22,4.22,0,0,0,1.17-1.72,15.42,15.42,0,0,0,.85-3.88q.1-1.19.57-1.44A1.4,1.4,0,0,1,409.81,400Zm-11.39-39.35c-.83,1.63-3.29,2.52-4.9,3.62s-4.13-.25-5.26.62a8.66,8.66,0,0,0,.15-1.2c.06-.68.16-1.44.28-2.27a13.06,13.06,0,0,0,.16-1.33c.62-2.51-.75-4.93-.45-6.4a24.8,24.8,0,0,1,.9-3.44,2.69,2.69,0,0,1,1.52-1.68,13.14,13.14,0,0,1,3.88-.57v.09a9.39,9.39,0,0,1,4.56.85,3.87,3.87,0,0,1,1.81,2.85c.3,1.28,1.2,3.29.3,4.57A27.9,27.9,0,0,0,398.42,360.66Z"/><path d="M454.42,351c.25-1.27.49-2.11-.34-2.94l.83-6.43c-2.64-1-11.61-.36-12.05-.33l-.82.06a3.84,3.84,0,0,0-1.65.72c-.57.32-.8,1-.68,2.09a17.19,17.19,0,0,0,0,2.25c.17,1.11.35,2.29.53,3.53s.32,2.41.44,3.51.2,1.86.24,2.31a5.33,5.33,0,0,1-.12,1.24c-.1.68-.22,1.4-.33,2.16s-.25,1.47-.38,2.16-.22,1.1-.24,1.26q-.07,2.82.09,5.78c.11,2,.23,3.93.36,5.89s.21,3.91.23,5.84a41.08,41.08,0,0,1-.32,5.61q-1.05.13-1.86.27a9.06,9.06,0,0,0-1.94.66,2.92,2.92,0,0,0-1.4,1.22,1.85,1.85,0,0,1-1.21,1,1.21,1.21,0,0,1-1-.18,2.08,2.08,0,0,1-.51-.67,2.51,2.51,0,0,1-.26-.86c0-.29-.08-.56-.13-.8a18.72,18.72,0,0,1-.38-3.81c0-1.34,0-2.68.15-4s.23-2.68.37-4,.23-2.55.25-3.74q0-3.12,0-6.57c0-2.29-.08-4.48-.13-6.55a19.17,19.17,0,0,1,.26-3.75c.19-1.06.36-2.1.51-3.11a31.21,31.21,0,0,0,.29-3.15,15.53,15.53,0,0,0-.4-3.89l-3.37.1a6.54,6.54,0,0,0-2.45-.05c-.84.33-2.16-.07-3.18.33s-2.1-.44-3.14-.11-1.38.93-2,1.05c.17,2.42.58,4.81.74,7.22,0,.12,0,.22,0,.32.09.34.15.58.17.7a9.43,9.43,0,0,1,0,1q-.06.9-.18,1.92c-.08.68-.17,1.59-.26,2.74-.07.7-.14,1.78-.2,3.22s-.13,3.06-.23,4.86-.18,3.67-.27,5.64-.17,3.83-.24,5.6-.14,3.37-.2,4.81-.09,2.54-.1,3.28a12.84,12.84,0,0,0,0,1.49c0,.83.07,1.77.09,2.81s.06,2.06.1,3.06.1,1.76.14,2.25l.17.8a5.87,5.87,0,0,0,1.71,2.82l.33.31a14.83,14.83,0,0,0,7.38,1.81l.11-.11a2,2,0,0,1,1-.39c.44-.06.91-.09,1.44-.11s1-.06,1.59-.13l2.78.16a28.56,28.56,0,0,1,5.14-.24,28.51,28.51,0,0,0,5.07-.24,13.69,13.69,0,0,0,5.25-1.53,6.09,6.09,0,0,0,2.48-2.65,7.71,7.71,0,0,0,.56-3.68,44.49,44.49,0,0,0-.57-4.49c0-.55,0-1.46.08-2.76s.16-2.77.28-4.42.25-3.38.37-5.2.24-3.55.37-5.18.23-3.07.29-4.34.11-2.15.11-2.65c0-1.14-.07-2.47-.17-4s-.12-3-.08-4.56A23,23,0,0,1,454.42,351Z"/><path class="cls-2" d="M501.32,345c.2-.41.4-.84.59-1.28s.37-.86.52-1.27a7.12,7.12,0,0,0,.31-1.18,2.72,2.72,0,0,1,.48-1.12,5.86,5.86,0,0,0,.78-2.45,2.58,2.58,0,0,1,.22-.68,1.19,1.19,0,0,1,.71-.53.54.54,0,0,0,.23-.28.9.9,0,0,0,.06-.34,5.57,5.57,0,0,1,.21-1.68,5.79,5.79,0,0,1,.86-1.75,2.27,2.27,0,0,0,.52-1.17,6.12,6.12,0,0,1,1.28-2.28,5.89,5.89,0,0,0,1.43-2.52c.1-.26.18-.5.25-.73a2.3,2.3,0,0,1,.34-.66,3.17,3.17,0,0,0,.44-1.08,1.62,1.62,0,0,0-.12-.87,1.64,1.64,0,0,0-.5-1c-.19-.13-.66-.07-1.41.17a2.77,2.77,0,0,1-2.62-.13c-.33-.26-.79-.18-1.37.23a7,7,0,0,0-.71.56,5.2,5.2,0,0,1-.71.57.3.3,0,0,1-.15.09.24.24,0,0,0-.16.09c-.23-.31-.48-.34-.74-.06a1.29,1.29,0,0,1-.79.46l-1.5-.7c-.57.56-1.09,1.11-1.55,1.65a4.85,4.85,0,0,0-.38-1.13l-.54.69a.74.74,0,0,0-.22.5,2.54,2.54,0,0,1-1,1.74c-.47.4-.62.76-.44,1.08a1.58,1.58,0,0,1-.27,1.28,9.77,9.77,0,0,0-.88,2.09c-.4.88-.79,1.77-1.18,2.67s-.79,1.8-1.19,2.68l-.39.27a1,1,0,0,1-.32.11,2,2,0,0,0-1.49,1.35c-.29.72-.62,1.46-1,2.21a6.48,6.48,0,0,0-.67,2.18l-.09-.07c.74.6.86,1,.38,1.21s-.65.17-.69-.07a.59.59,0,0,0-.28-.45.8.8,0,0,1-.3.19.4.4,0,0,0-.28.22l-.89,1.87a5.81,5.81,0,0,0-.25.83,1.26,1.26,0,0,1-.41.71c-.42.35-.59.65-.49.91v0l-.82-.3c-1.47-.51-2.95-1.06-4.42-1.66s-2.94-1.15-4.42-1.65c-.86-.31-1.7-.62-2.49-.93s-1.61-.61-2.44-.9l-1.48-.63a.6.6,0,0,0-.18.22,1.49,1.49,0,0,0,.32.28,3.12,3.12,0,0,1,.5.46c-.31,0-.57,0-.76,0a1.47,1.47,0,0,1-.5-.12c-.68-.16-1.31-.33-1.9-.52s-1.23-.36-1.91-.52l-.49-.21a11.67,11.67,0,0,0-2.31-1.09c-.82-.29-1.69-.57-2.58-.82a12.65,12.65,0,0,1-2-.66,6,6,0,0,1-1.74-1.14,7.19,7.19,0,0,0-2-1.06,1.88,1.88,0,0,0-1.18-.06,2.15,2.15,0,0,0-.86.76,3.63,3.63,0,0,0-.45.55,3.75,3.75,0,0,1-.36.48,1.41,1.41,0,0,0,.39.41.47.47,0,0,1,.22.35l.79-.35a.59.59,0,0,1-.2.45,2.19,2.19,0,0,0-.36.49c.33.4-.25,4.12-.87,3.85a1.5,1.5,0,0,0-1.16-.15,2.1,2.1,0,0,0-.82.87.89.89,0,0,0,0,.72.78.78,0,0,0,.45.54l2.13.92a15,15,0,0,0,1.46.53,3.12,3.12,0,0,1,1.29.74,2.11,2.11,0,0,0,.66.53,1.73,1.73,0,0,0,.88.23,2.84,2.84,0,0,1,1.11.38,8.14,8.14,0,0,1,.83.65,2,2,0,0,0,.68.49,11.6,11.6,0,0,1,1.83.79,5.14,5.14,0,0,0,2,.57.76.76,0,0,1,.66.28c.39.43.89.42,1.49,0,1,.49,1.06,1.21.21,2.15l1.42.61a1.11,1.11,0,0,0,.21-.25.91.91,0,0,1,.2-.26,3,3,0,0,1,.77.43,4.72,4.72,0,0,0,1,.64,2.11,2.11,0,0,0,1.37,0,.39.39,0,0,1,.39,0,1.42,1.42,0,0,0,.45.1c-.12.14-.22.28-.31.4s-.2.26-.32.41a2.26,2.26,0,0,1,1,.27,2.15,2.15,0,0,0,.91.24,1.26,1.26,0,0,1,.72.41,4.11,4.11,0,0,0,.7.59l.49-.18a.55.55,0,0,1,.36,0,3,3,0,0,0,1.08.42,1,1,0,0,1,.81.69,1.07,1.07,0,0,0,.46.54,2.17,2.17,0,0,0,.73.26l1.26.35a4.81,4.81,0,0,1,.85.36,1.07,1.07,0,0,0-.16.14c-.11,0-.16.09-.15.23a37.8,37.8,0,0,0-2.28,3.8c-.4.69-.8,1.35-1.21,2a9.84,9.84,0,0,0-1,1.95,9.42,9.42,0,0,1-1.17,2.09c-.48.67-.93,1.35-1.33,2a39.11,39.11,0,0,0-2.26,3.94c-.65,1.31-1.33,2.61-2,3.92-.44.88-.87,1.74-1.26,2.57s-.8,1.69-1.19,2.57-.76,1.56-1.07,2.33-.68,1.55-1.08,2.33l-.86,2.53a8.61,8.61,0,0,0-.36,1c-.1.33-.22.67-.36,1l-1.78,3.85c-.6,1.27-1.22,2.56-1.86,3.86a3.1,3.1,0,0,0-.27.51,1.37,1.37,0,0,1-.26.43,4.81,4.81,0,0,0-.95,1.58,9.2,9.2,0,0,0-.37,1.59c-.32,1.31.27,1.9,1.79,1.77a2.39,2.39,0,0,0,.6-.14.65.65,0,0,1,.53,0,4.26,4.26,0,0,0,1.51,0,13.69,13.69,0,0,0,1.65-.38,8.3,8.3,0,0,1,1-.19,6.37,6.37,0,0,0,1-.18c1.08-.23,2.13-.44,3.15-.64a13.59,13.59,0,0,0,3.21-1.07,1.16,1.16,0,0,1,.56-.22.75.75,0,0,0,.55-.43c.2-.27.4-.53.57-.77a1.18,1.18,0,0,0,.25-.8c0-.3.08-.6.13-.89l.12-.9c.09-.35.18-.68.28-1a1.88,1.88,0,0,1,.93-.92,1.74,1.74,0,0,0,.43-.49,6.47,6.47,0,0,0,.34-.63,6.49,6.49,0,0,1,.43-1.26c.2-.44.39-.87.59-1.28.35-.73.7-1.43,1-2.11a10.37,10.37,0,0,0,.8-2.08,13.23,13.23,0,0,1,1-2.8q.68-1.36,1.26-2.76,1.48-3.19,3-6.28c1-2.05,1.94-4.13,2.77-6.24.09-.26.22-.54.36-.85a1.44,1.44,0,0,1,.54-.65,4.65,4.65,0,0,0,1.48-1.54,6.86,6.86,0,0,0,.66-1.73,1.33,1.33,0,0,1,.53-.87,4.23,4.23,0,0,0,1.09-1.16c.25-.42.47-.84.67-1.25s.41-.71.62-1.06a3.12,3.12,0,0,1,.39.15,2.18,2.18,0,0,0,1.11.23c.19-.11.29-.07.27.12a.88.88,0,0,0,.94.45c.48,0,.75.17.8.59a.15.15,0,0,1,.15,0,.18.18,0,0,1,.2,0l.58.05a.7.7,0,0,1,.44.18,10,10,0,0,0,2.43,1.25c.86.3,1.71.64,2.55,1a14,14,0,0,0,1.38.49,5.38,5.38,0,0,1,1.34.58,7.76,7.76,0,0,0,2.88,1.14,3,3,0,0,1,.86.27l2.3,1c.57.18,1.14.4,1.71.64a10.24,10.24,0,0,0,1.8.58,11.87,11.87,0,0,0,1.41.31,3.94,3.94,0,0,1,1.38.49,8.66,8.66,0,0,0,2,.75l2.13.52a2.28,2.28,0,0,0,.87.13,3.58,3.58,0,0,0,.89-.55c.19-.19.38-.37.58-.54a2,2,0,0,1,.71-.39,1.56,1.56,0,0,0,.58-.29,2.68,2.68,0,0,0,.37-.38,2.82,2.82,0,0,0,.61-2.2c0-.13,0-.27,0-.41s0-.23.07-.26a1.74,1.74,0,0,0,.92-.94,2.22,2.22,0,0,1,.76-1,1.91,1.91,0,0,0,.53-.75,2.23,2.23,0,0,1,.47-.78c.19-.38.21-.67,0-.87a.59.59,0,0,1-.14-.3c0-.11,0-.23,0-.37a1.61,1.61,0,0,0-.17-.37,1.82,1.82,0,0,1-.18-.37,1.38,1.38,0,0,0-.81-.69,4.06,4.06,0,0,0-1.06-.21,3.82,3.82,0,0,1-1.86-.8,5.67,5.67,0,0,0-1.82-1.13c-.67-.25-1.36-.5-2.08-.74s-1.57-.45-2.37-.73-1.6-.52-2.42-.74c-.24,0-.48-.1-.72-.16h0a2.6,2.6,0,0,1-1.06-.18c-2.79-1.13-6.27-1.38-8.42-3.65l-1.26-.54c-.4-.17-.77-.35-1.12-.53a3.2,3.2,0,0,0-1.16-.35,3.36,3.36,0,0,1-1.36-.34c-.39-.2-.78-.39-1.18-.56l-.76-.35.07-.14Zm-1.09-16.84a.24.24,0,0,1,.16-.09.36.36,0,0,0,.05.21c0,.05,0,.12,0,.23a.38.38,0,0,1-.16.09A.33.33,0,0,1,500.23,328.16Zm-2.89,6.37c.32-.14.43,0,.34.25a4.16,4.16,0,0,0-.24.75c-.1-.24-.19-.45-.24-.62S497.23,334.54,497.34,334.53Zm-.52,1.93h0a.34.34,0,0,1,0,.12l-.24,0Zm-30.39,17.18a1.83,1.83,0,0,0-.1-.2,1.1,1.1,0,0,1-.06-.27c.19.08.29.14.31.18S466.55,353.49,466.43,353.64Zm4.84,1.88c0-.14,0-.23.07-.27l.1-.05v.1l.17.07A1.11,1.11,0,0,0,471.27,355.52Zm9.44,5.63s-.06-.07,0-.18,0-.06.05-.1l.28.12-.23.26A.11.11,0,0,0,480.71,361.15Zm5.89,7.57h-.17l.16-.16Zm1.14-1.68a.28.28,0,0,0,.07-.23l.25,0Z"/><path class="cls-3" d="M451,340.34c.32,1.05-.06,3.68-.49,3.49a1.5,1.5,0,0,0-1.16-.15,2.1,2.1,0,0,0-.82.87.89.89,0,0,0,0,.72.78.78,0,0,0,.45.54l2.13.92a15,15,0,0,0,1.46.53,3.12,3.12,0,0,1,1.29.74,17.9,17.9,0,0,0,1.86,1.69"/><circle cx="153.19" cy="153.19" r="153.19"/><g id="Capa_2-2" data-name="Capa 2"><g id="Capa_1-2-2" data-name="Capa 1-2"><path class="cls-4" d="M169.51,155.87,213.36,149l-43.85-7,17-26.2-25.9,16.79L153,52.27l-7.08,80.25L120,115.73l17,26.2L93,149l43.86,6.91-17,26.37,25.9-16.83,7.08,88.7,7.51-88.7,25.9,16.83Z"/></g></g></g></g></svg>