<svg xmlns="http://www.w3.org/2000/svg" xmlns:xlink="http://www.w3.org/1999/xlink" viewBox="0 0 1871.41 714.98"><defs><style>.cls-1{fill:none;}.cls-2{clip-path:url(#clip-path);}.cls-12,.cls-3{fill:#b99731;}.cls-3{fill-rule:evenodd;}.cls-4{fill:#b0282e;}.cls-5{font-size:37.58px;font-family:RoadRadio-Light, RoadRadio;font-weight:300;}.cls-11,.cls-5{fill:#9c7926;}.cls-6{letter-spacing:0.2em;}.cls-7{letter-spacing:0.19em;}.cls-8{letter-spacing:0.2em;}.cls-9{letter-spacing:0.18em;}.cls-10{letter-spacing:0.19em;}</style><clipPath id="clip-path" transform="translate(0 0)"><rect class="cls-1" width="1871.41" height="714.98"/></clipPath></defs><g id="Capa_2" data-name="Capa 2"><g id="Capa_1-2" data-name="Capa 1"><g class="cls-2"><path class="cls-3" d="M310.41,401.77a196.81,196.81,0,0,1,17.77,41.29h43.21c-8.1-32.78-21.49-62.25-38.73-87H283.85c-19,27.3-33.25,60.75-41,97.69A119.27,119.27,0,0,0,240.43,478a112.47,112.47,0,0,0,2.52,24.1c7.69,37.06,22,70.39,41.15,97.83h48.65c17.23-24.79,30.42-54.3,38.52-87h-43c-4.55,14.78-10.71,29-22,41.33a208.19,208.19,0,0,1-22-56.67,89.41,89.41,0,0,1-2-19.56,85.7,85.7,0,0,1,2.27-20.53c4.84-20.34,12.15-39.22,25.87-55.66m331.53,26.07c-3.8-5.06-8.75-8.16-14.5-8.16a17.76,17.76,0,0,0-13.93,6.81l-4.41,5.24.21-60.71H575.36l-.23,219.36,60,.08c16.12-18.36,28.54-42.63,35.09-70.14A64.09,64.09,0,0,0,671.92,505a63.15,63.15,0,0,0-1.53-14.44C664.86,466.72,654.83,445.11,641.94,427.84Zm-5,85.75a107,107,0,0,1-16.56,34.13,5.58,5.58,0,0,1-4.69,2.46c-3.49,0-6.57-3.6-6.57-8.55V468.42c0-4.81,2.93-8.74,6.57-8.73a5.83,5.83,0,0,1,4.79,2.77,101.18,101.18,0,0,1,16.44,33.05,34.57,34.57,0,0,1,1.21,9.51,31.62,31.62,0,0,1-1.19,8.57M388.38,590.38h34l.2-219.37h-34ZM513,531.12c0,13.54-8.24,24.45-18.39,24.45-5.81,0-10.52-6.27-10.5-13.94l0-121.95-33.93,0V552.05c0,21.11,12.86,38.31,28.76,38.33,10.92,0,21.21-4,32-12.3l2-1.52,0,13.82H547V419.68H513ZM803.62,399.36A201.77,201.77,0,0,1,821.55,441L865,441c-8.11-33.08-21.53-62.77-38.93-87.68l-49.16-.05c-19.17,27.47-33.5,61.19-41.28,98.34A118.61,118.61,0,0,0,733.14,476a115.47,115.47,0,0,0,2.52,24.32c7.74,37.29,22.14,70.91,41.4,98.46l48.94,0c17.43-24.88,30.73-54.61,38.85-87.68h-43.3c-4.61,14.94-10.8,29.16-22.17,41.7a211.5,211.5,0,0,1-22.14-57.08,92.51,92.51,0,0,1-2-19.69,87.76,87.76,0,0,1,2.29-20.68C782.43,434.91,789.82,415.92,803.62,399.36Zm197.23-28.57.37,219.47,34.19-.08-.31-219.5Zm126.78,47.11-47.35.16a212.65,212.65,0,0,0-26.23,64,91.86,91.86,0,0,0-2.54,21.88,90.06,90.06,0,0,0,2.75,22.6c5.73,23.49,14.89,45,26.75,63.36l46.8-.39A208.16,208.16,0,0,0,1154.49,525a85.39,85.39,0,0,0,2.37-21.48,90.36,90.36,0,0,0-2.57-21.42C1148.57,458.31,1139.47,436.39,1127.63,417.9Zm-5.92,94c-3.44,14.62-8.69,28.51-19.51,40.56a162.52,162.52,0,0,1-15.64-40.66,37,37,0,0,1,0-15.9c3.43-14.84,8.6-28.53,19.5-40.66a160,160,0,0,1,15.48,40.47,30.75,30.75,0,0,1,1.06,8.13A32.69,32.69,0,0,1,1121.71,511.87Zm-165.24-94-47.3.16c-11.7,18.56-20.65,40.38-26.26,64a96.81,96.81,0,0,0,.18,44.48A208,208,0,0,0,909.86,590l46.8-.41A209.59,209.59,0,0,0,983.38,525a88.57,88.57,0,0,0,2.37-21.48,92.6,92.6,0,0,0-2.59-21.42C977.48,458.31,968.31,436.41,956.47,417.9Zm-5.89,94c-3.45,14.63-8.71,28.51-19.55,40.56a164.36,164.36,0,0,1-15.62-40.65,33.85,33.85,0,0,1-.84-7.83,31.69,31.69,0,0,1,.89-8.09c3.41-14.82,8.6-28.5,19.52-40.65a160.34,160.34,0,0,1,15.47,40.48,32.48,32.48,0,0,1,1.06,8.12,33.22,33.22,0,0,1-.93,8.06M1306.43,418c-13.68,0-26.33,5.93-40.11,15.43-5.31-9.29-13.71-15.26-23.16-15.26-11,0-21.38,4-34.37,14l.11-13.95-34.21.1.25,171.84,34.2-.1L1209,477.85c0-13.57,8.25-24.58,18.44-24.62,5.83,0,10.6,6.26,10.6,14.09l.14,122.72,34.24-.1-.13-112.19c0-13.59,8.21-24.62,18.42-24.64,5.8,0,10.56,6.27,10.59,14l.13,122.73,34.25-.11-.21-133.24C1335.42,435.22,1322.43,418,1306.43,418Zm125.06,8.72c-3.79-5.14-8.75-8.24-14.55-8.31-5.34,0-10.26,2.22-18.52,12l.38-59.8-34.24-.2-1,219.44,60.39.55c16.3-18.36,28.92-42.71,35.65-70.36a66.1,66.1,0,0,0,1.74-15.45,64.06,64.06,0,0,0-1.46-14.53C1454.39,466,1444.41,444.23,1431.49,426.73Zm-5.53,86.5c-3.81,12.78-9.47,24.52-16.67,34a5.94,5.94,0,0,1-4.75,2.58c-3.64,0-6.58-3.94-6.58-8.82l.34-73.68c0-4.79,3-8.72,6.64-8.7a5.89,5.89,0,0,1,4.79,2.83A103,103,0,0,1,1426,495.05a31.41,31.41,0,0,1,1.15,9.36,33.45,33.45,0,0,1-1.16,8.82m166.6-95.3v12.55l-4.4-5.31c-3.73-4.53-8.58-7.24-14-7.24-5.92,0-11.18,3.3-15,8.6-12.79,17.21-22.75,38.81-28.34,62.4a65.46,65.46,0,0,0-1.38,14.94,63.84,63.84,0,0,0,1.15,14.18c5.46,23.18,15.18,44.65,27.61,61.69,3.83,6.25,9.37,10,16,10,5.42,0,10.27-2.65,14-7.16l4.42-5.25v12.41h34.19V417.93Zm0,122.76c.07,4.85-2.91,8.75-6.56,8.75a6.39,6.39,0,0,1-5.31-3c-7.16-9.66-12.5-21-16.21-33.83a34.6,34.6,0,0,1-1-8.71,31.25,31.25,0,0,1,1.29-9.52,106.3,106.3,0,0,1,16.17-33.44,6.45,6.45,0,0,1,5.08-2.69c3.65,0,6.56,3.95,6.57,8.83Zm-114.37,49,34.24.08.23-171.8-34.23-.11ZM1476,374.36l19.7,25.07,19.7-25.05-19.7-25Z" transform="translate(0 0)"/><rect class="cls-4" y="480.74" width="159.78" height="36.95"/><rect class="cls-4" x="1711.63" y="480.74" width="159.78" height="36.95"/><text class="cls-5" transform="translate(658.44 705.02)"><tspan class="cls-6">ma</tspan><tspan class="cls-7" x="74.26" y="0">es</tspan><tspan class="cls-8" x="135.06" y="0">tria ce</tspan><tspan class="cls-9" x="329.23" y="0">r</tspan><tspan class="cls-8" x="360" y="0">v</tspan><tspan class="cls-10" x="393.86" y="0">e</tspan><tspan class="cls-6" x="423.85" y="0">cer</tspan><tspan x="517.72" y="0">a</tspan></text><path class="cls-11" d="M1229,712l6.88-16.26-6.85-17.43,3.83,3.83c9.89,9.89,27.56,12.47,27.74,12.49l-.16,2.25c-14.83,0-27.49,11.49-27.62,11.6Zm5.78-25.22,3.53,9-3.47,8.21a50.28,50.28,0,0,1,18.54-8.6c-5.25-1.43-12.56-4-18.6-8.6" transform="translate(0 0)"/><rect class="cls-11" x="1260.47" y="694.62" width="70.5" height="2.25"/><path class="cls-11" d="M1334,699.88a4.13,4.13,0,1,1,4.13-4.13,4.13,4.13,0,0,1-4.13,4.13m0-6a1.87,1.87,0,1,0,1.88,1.87,1.87,1.87,0,0,0-1.88-1.87" transform="translate(0 0)"/><path class="cls-11" d="M1224.56,699.88a4.13,4.13,0,1,1,4.13-4.13,4.13,4.13,0,0,1-4.13,4.13m0-6a1.87,1.87,0,1,0,1.88,1.87,1.87,1.87,0,0,0-1.88-1.87" transform="translate(0 0)"/><path class="cls-11" d="M638.22,678.31l-6.88,16.27L638.19,712l-3.83-3.82c-9.89-9.9-27.56-12.48-27.74-12.5l.16-2.24c14.83,0,27.49-11.49,27.62-11.61Zm-5.78,25.23-3.53-9,3.47-8.22a50.27,50.27,0,0,1-18.54,8.61c5.25,1.42,12.56,4,18.6,8.6" transform="translate(0 0)"/><rect class="cls-11" x="536.28" y="693.44" width="70.5" height="2.25"/><path class="cls-11" d="M533.28,690.44a4.13,4.13,0,1,1-4.13,4.12,4.14,4.14,0,0,1,4.13-4.12m0,6a1.88,1.88,0,1,0-1.88-1.88,1.88,1.88,0,0,0,1.88,1.88" transform="translate(0 0)"/><path class="cls-11" d="M642.69,690.44a4.13,4.13,0,1,1-4.13,4.12,4.14,4.14,0,0,1,4.13-4.12m0,6a1.88,1.88,0,1,0-1.88-1.88,1.88,1.88,0,0,0,1.88,1.88" transform="translate(0 0)"/><path class="cls-12" d="M828.35,76.09V208.4c0,42,47.24,76.09,105.27,76.1s105.29-34.14,105.29-76.09V76.09c0-42-47.24-76.09-105.29-76.09S828.35,34.13,828.35,76.09Zm2.85,132.32V76.09c0-40.38,46-73.23,102.42-73.22s102.43,32.84,102.43,73.22V208.41c0,40.37-45.95,73.21-102.43,73.21S831.2,248.78,831.2,208.41Z" transform="translate(0 0)"/><path class="cls-12" d="M1000.52,190.28l-19.43.06a2.65,2.65,0,0,1-2.39-1.45c0-.1-2.51-5.5-2.51-5.5a5,5,0,0,0-4.69-3.28s-14.17,0-16.41,0c0-2.11,0-8.66,0-10.76,2.24,0,16.42,0,16.42,0a5.07,5.07,0,0,0,4.75-3.4c-.06.12,2.41-5.29,2.41-5.29a2.28,2.28,0,0,1,2.14-1.49h19.7a12.74,12.74,0,0,0,0-25.48H969.3a5.07,5.07,0,0,0-4.68,3.3c0-.08-2.43,5.33-2.43,5.33a2.51,2.51,0,0,1-2.38,1.66H948.2a2.34,2.34,0,0,1-2.1-2.15l0-15.33,2-.39c1.24-.22,8.13-.26,14.63-.2,3.23,4.53,7.31,7.23,11.77,7.23,8.94,0,16.63-10.89,18.33-25.91l-.45,1c1.51-1.64,1.41-13.43-1.32-22.65C988,75.3,982.32,69.47,974.64,68.69a13.21,13.21,0,0,0-8.93,3.85l-8.26,0c.3-2.28,1-7.56,1-7.56v-.08c0-4.39,7.33-5.47,7.4-5.49h0c8.78,0,13.93-4,13.93-10.87,0-9.45-10-9.45-14.26-9.45l-12.64,0c-8.31,0-14.09,5-14.09,12.24,0,0-1,16.37-1.29,21.18H930c-.14-2.47-1.27-21.22-1.27-21.22,0-7.16-5.8-12.2-14.1-12.2l-12.65,0h0c-4.28,0-14.22,0-14.22,9.45,0,6.91,5.15,10.89,14.11,10.89,0,0,7.25,1.11,7.25,5.21v.08c0,.19.61,5.13.94,7.82l-8.23,0a12.89,12.89,0,0,0-8.83-3.85c-7.79.78-13.48,6.61-16.53,16.87-2.77,9.22-2.87,21-1.34,22.65l-.45-1c1.7,15,9.41,25.9,18.32,25.9,4.47,0,8.55-2.71,11.78-7.23,6.51-.06,13.31,0,14.43.2.07,0,.94.14,2,.35v-3l-1.8-.37c-1-.19-6.13-.23-12.77-.18a47,47,0,0,0,5-22,51.12,51.12,0,0,0-2.5-16h49.28a50.87,50.87,0,0,0-2.52,16c0,8.49,1.94,16.19,5,21.95-6.67,0-11.83,0-13,.22,0,0-.74.17-1.75.34V117h-25l0,24.81a2.37,2.37,0,0,1-2.22,2.17l-11.47,0a2.46,2.46,0,0,1-2.36-1.52c-.05-.13-2.52-5.56-2.52-5.56A5,5,0,0,0,898,133.7H866.74a12.75,12.75,0,0,0,0,25.49h19.7a2.21,2.21,0,0,1,2.09,1.4c.06.1,2.52,5.51,2.52,5.51a5,5,0,0,0,4.71,3.27l16.42,0c0,2.09,0,8.64,0,10.75-2.24,0-16.41,0-16.41,0a5.1,5.1,0,0,0-4.77,3.4c0-.12-2.4,5.28-2.4,5.28a2.66,2.66,0,0,1-2.39,1.55l-19.46-.05a12.74,12.74,0,0,0,0,25.47H898a5.07,5.07,0,0,0,4.66-3.3l2.43-5.33a2.88,2.88,0,0,1,2.69-1.53h11.3a2.24,2.24,0,0,1,2.11,2s0,11.38,0,15.4H878.57l.95,2.19c7.5,17,37.11,27.91,54.21,27.91l-.35,0c17.17,0,46.89-10.86,54.34-27.87l1-2.19H946.15c0-2.5,0-15.4,0-15.4a2.26,2.26,0,0,1,2.21-2H959.5a2.91,2.91,0,0,1,2.64,1.42c.05.12,2.53,5.54,2.53,5.54a5,5,0,0,0,4.62,3.21h31.23a12.74,12.74,0,0,0,0-25.48ZM892.91,130.14c-7.46,0-14.21-10-15.73-23.28l0-.21-.13-.36c-.61-1.63-.92-15.88,4.15-25.61,2.83-5.45,6.82-8.47,11.84-9,7.6,0,16,11.19,16,29.22S900.62,130.14,892.91,130.14Zm15-48.25a31.07,31.07,0,0,0-3.56-6.33h0c4.59,0,8.59,0,8.59,0l-1.36-11v-.21c0-6.59-9.3-7.89-9.72-7.93-4.43,0-11.63-1-11.63-7.86,0-4.57,3.39-6.42,11.63-6.43l12.67,0c5.53,0,11.49,2.87,11.49,9.22l1.45,24.2h12.4l1.47-24.19c0-6.35,5.92-9.22,11.45-9.22l12.66,0c8.26,0,11.65,1.86,11.65,6.42,0,6.83-7.21,7.85-11.48,7.85-.57.05-9.88,1.36-9.88,8.21v.22s-1.13,9-1.13,9l-.21,1.72s4,0,8.61,0a31.43,31.43,0,0,0-3.57,6.33Zm50.52,19c0-18,8.32-29.2,16-29.2,4.93.48,8.91,3.5,11.76,8.94,5.05,9.72,4.74,24,4.16,25.63l-.09.19-.1.37c-1.49,13.27-8.25,23.28-15.73,23.28C966.79,130.14,958.47,119,958.47,100.93Zm42,111.82H969.3a2.63,2.63,0,0,1-2.29-1.52c0-.07-2.49-5.52-2.49-5.52a5.38,5.38,0,0,0-5-3.16H948.2a5.16,5.16,0,0,0-4.71,5.1l0,18.42,40.5,0c-8,13.48-33.27,24-50.65,24l.35.06c-17.69,0-42.45-10.38-50.51-24.07l40.5,0,0-18.43a5.1,5.1,0,0,0-4.59-5.07l-11.43,0a5.38,5.38,0,0,0-5,3.29l-2.41,5.31a2.67,2.67,0,0,1-2.34,1.6H866.74a9.73,9.73,0,1,1,0-19.44l19.45.05a5.06,5.06,0,0,0,4.74-3.24c0,.1,2.44-5.32,2.44-5.32a2.52,2.52,0,0,1,2.4-1.67l19,0,0-16.78-19,0a2.5,2.5,0,0,1-2.35-1.54c0-.13-2.53-5.56-2.53-5.56a4.68,4.68,0,0,0-4.49-3.1l-19.66,0a9.73,9.73,0,1,1,0-19.44H898a2.58,2.58,0,0,1,2.28,1.52c.06.1,2.53,5.51,2.53,5.51a5,5,0,0,0,4.7,3.27h11.59a5.2,5.2,0,0,0,4.71-5.19s0-19.11,0-21.76H943.5c0,2.66,0,21.77,0,21.77a5.19,5.19,0,0,0,4.59,5.18h11.73a5.06,5.06,0,0,0,4.74-3.39c0,.14,2.42-5.28,2.42-5.28a2.64,2.64,0,0,1,2.32-1.61h31.21a9.73,9.73,0,1,1,0,19.44l-19.69,0a4.76,4.76,0,0,0-4.48,3.2l-2.44,5.33a2.51,2.51,0,0,1-2.39,1.69l-19,0,0,16.79,19,0a2.48,2.48,0,0,1,2.35,1.55c0,.11,2.51,5.53,2.51,5.53a5,5,0,0,0,4.75,3.13l19.41,0a9.73,9.73,0,1,1,0,19.44Zm1.78-16.41H978.72c-.06,0-2.28,0-2.83-1.42-.06-.09-2.52-5.51-2.52-5.51-.69-2-3.37-3.26-5.42-3.25l-17.9-.07c0-2.48-.09-20.07-.09-22.61l17.9,0c2,0,4.73-1.3,5.49-3.41-.06.12,2.38-5.29,2.38-5.29.63-1.52,2.85-1.51,2.85-1.51h23.64c3.27,0,5.86-3,5.86-6.77s-2.71-6.86-6.05-6.86H973.65c-.18,0-4.1,0-5.38,3.31l-2.44,5.34a3.73,3.73,0,0,1-3.11,1.66H943.1a2.4,2.4,0,0,1-2.11-2.2L941,123h-14.8l0,24.77a2.4,2.4,0,0,1-2.21,2.2h-19.5a4,4,0,0,1-3.08-1.52c0-.15-2.52-5.58-2.52-5.58-1.22-3.17-5.17-3.21-5.35-3.2H865.21c-3.34,0-6,3.07-6,6.85s2.58,6.78,5.87,6.79h23.59s2.28,0,2.84,1.45c0,.07,2.52,5.49,2.52,5.49.67,2,3.35,3.27,5.42,3.27l17.88,0c0,2.54-.08,20.13-.08,22.61-2.27,0-17.89.07-17.89.07-2.05,0-4.73,1.29-5.49,3.39l-2.41,5.28c-.6,1.53-2.82,1.53-2.82,1.53H865c-3.3,0-5.88,3-5.88,6.77s2.71,6.85,6.06,6.85H893.5c.17,0,4.13,0,5.39-3.28,0,.08,2.45-5.34,2.45-5.34.28-.8,1.81-1.67,3.12-1.66h16.69a5.41,5.41,0,0,1,4,1.92,5.05,5.05,0,0,1,1.11,3.29v23.94H887.54l3.14,2.71c10.6,9.23,28.23,15.68,42.87,15.68s32.44-6.44,43-15.67l3.15-2.71H941.05c0-2.68,0-23.81,0-23.88a5.09,5.09,0,0,1,1.11-3.35,5.49,5.49,0,0,1,4-1.92h16.7c1.31,0,2.83.85,3.06,1.52l2.54,5.56c1.21,3.17,5.17,3.21,5.35,3.21h28.36c3.33,0,6-3.07,6.07-6.85s-2.6-6.8-5.89-6.8Zm-.18,10.63H973.76c-.65,0-2.54-.3-3-1.52,0-.08-2.52-5.52-2.52-5.52-.69-2-3.36-3.27-5.42-3.28h-16.7a8,8,0,0,0-5.84,2.86,8.38,8.38,0,0,0-1.84,5.79v26.56h32.66c-10.32,7.32-24.89,12.34-37.54,12.34s-27.09-5-37.39-12.33h32.69s0-26.86,0-27a8.38,8.38,0,0,0-1.84-5.35,7.89,7.89,0,0,0-5.86-2.86H904.46c-2.08,0-4.76,1.32-5.5,3.4,0-.1-2.41,5.29-2.41,5.29-.51,1.32-2.44,1.61-3.07,1.62H865.14a3.65,3.65,0,0,1-3.43-3.84c0-2.14,1.38-3.75,3.25-3.75h23.57c.13,0,4,.06,5.24-3.23,0,.1,2.41-5.33,2.41-5.33a3.78,3.78,0,0,1,3.14-1.66l20.49,0,.1-28.67-20.5-.05c-1.32,0-2.83-.85-3.06-1.51-.07-.14-2.54-5.55-2.54-5.55-1.25-3.21-5-3.13-5.21-3.13H865c-1.85,0-3.25-1.6-3.24-3.76a3.63,3.63,0,0,1,3.41-3.82h28.38c.62,0,2.54.29,3,1.52,0,.09,2.51,5.5,2.51,5.5.68,2,3.38,3.3,5.43,3.3h19.63a5.31,5.31,0,0,0,4.72-5.24s0-19.09,0-21.73h9.56v21.73a5.2,5.2,0,0,0,4.58,5.21c.13,0,19.73,0,19.73,0,2,0,4.72-1.32,5.46-3.43,0,.13,2.42-5.29,2.42-5.29.51-1.31,2.44-1.59,3.08-1.6H1002a3.66,3.66,0,0,1,3.45,3.83c0,2.16-1.41,3.75-3.26,3.75H978.63c-.14,0-3.93-.08-5.22,3.22,0-.09-2.45,5.33-2.45,5.33-.27.79-1.81,1.65-3.1,1.65l-20.52,0,.12,28.68,20.49,0c1.3,0,2.84.86,3.07,1.53.05.13,2.51,5.56,2.51,5.56,1.25,3.19,5.08,3.13,5.22,3.13h23.55a3.45,3.45,0,0,1,3.27,3.75,3.66,3.66,0,0,1-3.45,3.83Zm-68.46-78,.35,0-.28-.06Zm-24.15-12.85,13.73,0,.3-.21c.07,0,6-4,10.31-4l-.12,0c4.35,0,10.11,4,10.14,4l.34.2,13.8,0c-.29-1-.62-2-.86-3-5.23,0-11.86,0-12.25,0-1-.66-6.46-4.22-11.19-4.21l.14,0c-4.73,0-10.33,3.6-11.31,4.25-.38,0-7,0-12.23,0C910.07,114.09,909.82,115.09,909.51,116.08ZM933.35,88l.35.12h0Zm-4.05,13.52a4.43,4.43,0,1,0,8.85,0v-.15l0-.44-2.36-11.81-.53-.5-1.48-.48-1.49.51-.75.23,0,1.11-2.21,11.09Zm4.43-9.06c.48,2.5,1.81,9.14,1.81,9.14,0,.69-.87,1.35-1.84,1.35a1.65,1.65,0,0,1-1.78-1.42s1.17-6,1.81-9.07m-7.23,2.89A5.57,5.57,0,1,0,921,100.9a5.58,5.58,0,0,0,5.55-5.55m-8.5,0a3,3,0,1,1,2.94,2.53A2.8,2.8,0,0,1,918,95.35m34,0a5.55,5.55,0,1,0-5.55,5.55,5.55,5.55,0,0,0,5.55-5.55m-8.49,0a3,3,0,1,1,2.94,2.53,2.79,2.79,0,0,1-2.94-2.53M893,77.47c-5.1,0-10,6.87-10.78,15l-.14,1.46,22.12,3.65V95.82C904.17,86.57,898.6,77.48,893,77.47Zm-7.85,13.9c1.06-6.28,4.77-10.87,7.85-10.87,3.48,0,7.68,6.22,8.32,13.53C898.64,93.59,887.33,91.72,885.12,91.37ZM882,110.05l.14,1.44c.76,8.14,5.69,15,10.75,15,5.66,0,11.19-9.09,11.19-18.35v-1.76l-1.49.25Zm10.89,13.39c-3.06,0-6.77-4.58-7.83-10.85l16.17-2.67c-.64,7.32-4.83,13.52-8.34,13.52m-8.33-16.3,13.75-2.48,1.51-.85c0-.06.47-1.72.47-1.72l.13-.51-.14.39-.54-1.63-1.5-.77c.07,0-13.67-2.47-13.67-2.47H884a5.05,5.05,0,0,0,0,10.1Zm-2.93-5a2.26,2.26,0,0,1,2.39-2c.12,0,7.39,1.3,11.36,2-3.37.6-11.21,2-11.21,2a2.33,2.33,0,0,1-2.54-2.06m103.6-9.66c-.78-8.1-5.7-15-10.77-15-5.65,0-11.2,9.09-11.2,18.35v1.74l22.09-3.64ZM966.14,94c.65-7.31,4.84-13.53,8.34-13.53,3.06,0,6.77,4.59,7.84,10.87Zm8.38,32.46c5.07,0,10-6.86,10.75-15l.13-1.43-22.08-3.66v1.75c0,9.26,5.56,18.34,11.21,18.35m7.83-13.91c-1,6.28-4.76,10.86-7.84,10.86-3.48,0-7.67-6.2-8.32-13.52l16.16,2.66m.94-15.49h-.43l-13.75,2.5-1.42.76L967,102.5l.17-.41.5,1.76s1.53.81,1.53.81,13.69,2.48,13.69,2.48h.08l.46,0a5,5,0,0,0,0-10.09Zm2.5,5a2.29,2.29,0,0,1-2.39,2c-.11,0-7.41-1.3-11.36-2,3.35-.62,11.2-2,11.2-2A2.34,2.34,0,0,1,985.79,102.11ZM909.49,45H896.35a3.9,3.9,0,0,0-3.6,4.06c0,2.32,1.62,4.36,3.49,4.36,12.29,1,17.76,3.86,17.64,9.32,0,.25,1.41,11.51,1.41,11.51l.15,1.31H925l-1.26-21C923.78,45,913.76,45,909.49,45Zm8.21,27.52-1.23-10a2.08,2.08,0,0,0,0-.25c0-10.3-14.09-11.43-20.13-11.9-.53,0-1-.7-1-1.33a1,1,0,0,1,1-1l13.16,0c8.18,0,11.67,2,11.66,6.55,0,0,.92,15.22,1.07,17.95Zm53.69-19.1c1.77,0,3.39-2,3.39-4.36a3.88,3.88,0,0,0-3.56-4l-13.16,0c-4.26,0-14.29,0-14.29,9.57,0-.06-1.17,19.37-1.17,19.37l-.09,1.6h9.6L953.64,63c-.11-5.7,5.35-8.58,17.75-9.57M951,62.55v.26s-.87,7-1.21,9.71H945.3c.16-2.73,1.08-17.95,1.08-17.95,0-4.59,3.48-6.54,11.68-6.54l13.16,0a1,1,0,0,1,1,1c0,.63-.46,1.33-.89,1.33C965.16,50.88,951,52,951,62.55Z" transform="translate(0 0)"/><rect class="cls-12" x="932.91" y="9.46" width="1" height="55.46"/><rect class="cls-12" x="934.09" y="22.83" width="28.16" height="1" transform="translate(761.2 953.17) rotate(-80.04)"/><rect class="cls-12" x="954.83" y="24" width="17.09" height="1" transform="translate(598.55 916.46) rotate(-69.21)"/><rect class="cls-12" x="973.46" y="27.41" width="11.04" height="1" transform="translate(409.64 824.8) rotate(-56.09)"/><rect class="cls-12" x="984.34" y="35.88" width="11.01" height="1" transform="translate(264.22 710.61) rotate(-45)"/><rect class="cls-12" x="978.3" y="54.21" width="31.52" height="1" transform="translate(201.37 657.03) rotate(-40.38)"/><rect class="cls-12" x="991.53" y="65.07" width="27.44" height="1" transform="translate(126.12 557.46) rotate(-32.96)"/><rect class="cls-12" x="995.67" y="77.72" width="28.25" height="1" transform="translate(41.78 376.14) rotate(-21.54)"/><rect class="cls-12" x="996.33" y="91.67" width="32.12" height="1" transform="matrix(0.98, -0.2, 0.2, 0.98, 2.26, 206.52)"/><rect class="cls-12" x="996.66" y="104.64" width="31.46" height="1"/><rect class="cls-12" x="996.66" y="120.21" width="31.46" height="1"/><rect class="cls-12" x="1013.85" y="134.48" width="14.27" height="1"/><rect class="cls-12" x="1018.07" y="150.05" width="10.05" height="1"/><rect class="cls-12" x="982.06" y="165.3" width="46.06" height="1"/><rect class="cls-12" x="982.06" y="180.54" width="46.06" height="1"/><rect class="cls-12" x="1016.77" y="195.14" width="11.35" height="1"/><rect class="cls-12" x="1017.97" y="206.61" width="1" height="10.16" transform="translate(403.17 1050.44) rotate(-65.48)"/><rect class="cls-12" x="1010.43" y="217.41" width="1" height="13.86" transform="translate(277.62 955.48) rotate(-57.43)"/><rect class="cls-12" x="998.27" y="223.84" width="1" height="21.11" transform="translate(115.24 755.8) rotate(-43.75)"/><rect class="cls-12" x="987.56" y="236.34" width="1" height="19.15" transform="translate(64.01 673.55) rotate(-38.81)"/><rect class="cls-12" x="977.02" y="244.71" width="1" height="18.3" transform="translate(2.85 518.45) rotate(-29.75)"/><rect class="cls-12" x="962.87" y="252.78" width="1" height="16.11" transform="translate(-27.19 382.95) rotate(-22.18)"/><polygon class="cls-12" points="950.11 273.56 947.67 257.66 948.66 257.51 951.1 273.41 950.11 273.56"/><rect class="cls-12" x="932.91" y="258.89" width="1" height="16.87"/><rect class="cls-12" x="932.79" y="9.46" width="1" height="55.46"/><rect class="cls-12" x="918.03" y="9.25" width="1" height="28.16" transform="translate(9.79 159.06) rotate(-9.95)"/><rect class="cls-12" x="902.83" y="15.96" width="1" height="17.09" transform="translate(50.4 323.03) rotate(-20.84)"/><rect class="cls-12" x="887.22" y="22.39" width="1" height="11.04" transform="translate(135.54 500.19) rotate(-33.92)"/><rect class="cls-12" x="876.35" y="30.88" width="1" height="11.01" transform="translate(231.06 630.64) rotate(-45)"/><rect class="cls-12" x="872.13" y="38.95" width="1" height="31.52" transform="translate(265.3 683.7) rotate(-49.59)"/><rect class="cls-12" x="860.95" y="51.85" width="1" height="27.44" transform="translate(338.01 752.89) rotate(-57.06)"/><rect class="cls-12" x="856.4" y="64.1" width="1" height="28.25" transform="translate(469.31 846.45) rotate(-68.44)"/><rect class="cls-12" x="853.81" y="76.11" width="1" height="32.12" transform="matrix(0.2, -0.98, 0.98, 0.2, 591.52, 910.27)"/><rect class="cls-12" x="838.58" y="104.64" width="31.46" height="1"/><rect class="cls-12" x="838.58" y="120.21" width="31.46" height="1"/><rect class="cls-12" x="838.58" y="134.48" width="14.27" height="1"/><rect class="cls-12" x="838.58" y="150.05" width="10.05" height="1"/><rect class="cls-12" x="838.58" y="165.3" width="46.06" height="1"/><rect class="cls-12" x="838.58" y="180.54" width="46.06" height="1"/><rect class="cls-12" x="838.58" y="195.14" width="11.35" height="1"/><rect class="cls-12" x="843.15" y="211.19" width="10.16" height="1" transform="translate(-11.36 371.08) rotate(-24.52)"/><rect class="cls-12" x="848.84" y="223.84" width="13.86" height="1" transform="translate(13.71 495.64) rotate(-32.55)"/><rect class="cls-12" x="857.38" y="233.9" width="21.11" height="1" transform="translate(98.82 699.92) rotate(-46.3)"/><rect class="cls-12" x="869.06" y="245.41" width="19.15" height="1" transform="translate(136.18 776.22) rotate(-51.17)"/><rect class="cls-12" x="880.02" y="253.36" width="18.3" height="1" transform="translate(227.64 899.96) rotate(-60.26)"/><rect class="cls-12" x="895.27" y="260.33" width="16.11" height="1" transform="translate(321.15 999.14) rotate(-67.85)"/><polygon class="cls-12" points="916.59 273.56 915.6 273.41 918.04 257.51 919.02 257.66 916.59 273.56"/><rect class="cls-12" x="932.79" y="258.89" width="1" height="16.87"/></g></g></g></svg>