<svg xmlns="http://www.w3.org/2000/svg" viewBox="0 0 210.56 284.5"><defs><style>.cls-1{fill:#b99731;}</style></defs><g id="Capa_2" data-name="Capa 2"><g id="Capa_1-2" data-name="Capa 1"><path class="cls-1" d="M0,76.09V208.4c0,42,47.24,76.09,105.27,76.1s105.29-34.14,105.29-76.09V76.09c0-42-47.24-76.09-105.29-76.09S0,34.13,0,76.09ZM2.86,208.41V76.09c0-40.38,46-73.23,102.41-73.22S207.7,35.71,207.7,76.09V208.41c0,40.37-45.95,73.21-102.43,73.21S2.86,248.78,2.86,208.41Z"/><path class="cls-1" d="M172.18,190.28l-19.44.06a2.63,2.63,0,0,1-2.38-1.46l-2.51-5.49a5,5,0,0,0-4.69-3.28s-14.17,0-16.42,0c0-2.11,0-8.66,0-10.76,2.24,0,16.43,0,16.43,0a5.07,5.07,0,0,0,4.74-3.4c-.05.12,2.42-5.29,2.42-5.29a2.27,2.27,0,0,1,2.13-1.49h19.7a12.75,12.75,0,0,0,0-25.49H141a5.09,5.09,0,0,0-4.69,3.31l-2.43,5.33a2.51,2.51,0,0,1-2.38,1.66H119.85a2.34,2.34,0,0,1-2.1-2.15l0-15.33,2-.39c1.25-.22,8.13-.26,14.63-.2,3.24,4.53,7.31,7.23,11.78,7.23,8.94,0,16.63-10.89,18.33-25.91l-.46,1c1.52-1.64,1.42-13.43-1.31-22.65C159.64,75.3,154,69.47,146.29,68.69a13.21,13.21,0,0,0-8.93,3.85l-8.25,0,1-7.56v-.08c0-4.39,7.32-5.47,7.39-5.49h0c8.78,0,13.92-4,13.92-10.87,0-9.45-10-9.45-14.25-9.45l-12.64,0c-8.31,0-14.1,5-14.1,12.24,0,0-1,16.37-1.28,21.18h-7.53c-.14-2.47-1.28-21.22-1.28-21.22,0-7.16-5.79-12.2-14.1-12.2l-12.64,0h0c-4.29,0-14.22,0-14.22,9.45,0,6.91,5.14,10.89,14.1,10.89,0,0,7.25,1.11,7.25,5.2v.09c0,.19.62,5.13.95,7.82l-8.23,0a12.91,12.91,0,0,0-8.84-3.85C56.77,69.47,51.09,75.3,48,85.56c-2.76,9.22-2.86,21-1.33,22.65l-.45-1c1.69,15,9.4,25.9,18.31,25.9,4.47,0,8.56-2.71,11.78-7.23,6.51-.06,13.31,0,14.43.2.07,0,1,.14,2,.35v-3l-1.8-.37c-1-.19-6.14-.23-12.78-.18a47.15,47.15,0,0,0,5-22,50.81,50.81,0,0,0-2.51-16H130a50.88,50.88,0,0,0-2.51,16c0,8.49,1.93,16.19,5,21.95-6.67,0-11.83,0-13,.22,0,0-.74.17-1.75.34V117h-25l0,24.81A2.37,2.37,0,0,1,90.59,144l-11.47,0a2.44,2.44,0,0,1-2.35-1.52l-2.53-5.56a5,5,0,0,0-4.63-3.21H38.39a12.75,12.75,0,0,0,0,25.49H58.11a2.23,2.23,0,0,1,2.09,1.4l2.51,5.51a5,5,0,0,0,4.71,3.26l16.42.05c0,2.09,0,8.64,0,10.75-2.24,0-16.41,0-16.41,0a5.11,5.11,0,0,0-4.77,3.4c.06-.12-2.4,5.28-2.4,5.28a2.66,2.66,0,0,1-2.39,1.55l-19.46-.05a12.74,12.74,0,0,0,0,25.47H69.62a5.1,5.1,0,0,0,4.67-3.3l2.42-5.33a2.88,2.88,0,0,1,2.7-1.53l11.3,0a2.25,2.25,0,0,1,2.1,2.06s0,11.38,0,15.4H50.22l1,2.19c7.5,17,37.1,27.91,54.2,27.91l-.35,0c17.17,0,46.89-10.86,54.34-27.87l1-2.19H117.8c0-2.51,0-15.4,0-15.4a2.28,2.28,0,0,1,2.21-2.06h11.19A3,3,0,0,1,133.8,207c0,.13,2.52,5.55,2.52,5.55a5,5,0,0,0,4.62,3.21h31.24a12.74,12.74,0,0,0,0-25.48ZM64.56,130.14c-7.45,0-14.21-10-15.73-23.28l0-.21-.13-.36c-.61-1.63-.92-15.88,4.16-25.61,2.83-5.45,6.81-8.47,11.83-9,7.6,0,16,11.19,16,29.21S72.27,130.14,64.56,130.14Zm15-48.25a31.77,31.77,0,0,0-3.56-6.33h0c4.59,0,8.58,0,8.58,0l-1.35-11v-.21c0-6.59-9.31-7.89-9.72-7.93-4.43,0-11.64-1-11.64-7.86,0-4.57,3.4-6.43,11.64-6.43l12.66,0c5.54,0,11.5,2.87,11.5,9.21l1.44,24.2h12.41L113,51.34c0-6.35,5.92-9.21,11.46-9.21l12.66,0c8.25,0,11.64,1.86,11.64,6.42,0,6.83-7.21,7.84-11.48,7.85-.56.05-9.88,1.36-9.88,8.21v.22s-1.13,9-1.13,9l-.2,1.72s4,0,8.6,0a31.6,31.6,0,0,0-3.56,6.32Zm50.52,19c0-18,8.32-29.2,16-29.2,4.92.48,8.9,3.5,11.75,8.94,5.05,9.72,4.74,24,4.16,25.63l-.09.19-.1.37c-1.49,13.27-8.25,23.28-15.72,23.28C138.45,130.14,130.13,119,130.13,100.93Zm42.05,111.82H141a2.64,2.64,0,0,1-2.3-1.52c0-.08-2.49-5.52-2.49-5.52a5.38,5.38,0,0,0-5-3.16h-11.3a5.15,5.15,0,0,0-4.7,5.1l0,18.42,40.5,0c-8,13.48-33.27,24-50.65,24l.35.05c-17.69,0-42.45-10.37-50.5-24.06l40.49,0,.06-18.43a5.1,5.1,0,0,0-4.6-5.07l-11.42,0a5.37,5.37,0,0,0-5,3.29c0-.13-2.42,5.31-2.42,5.31a2.66,2.66,0,0,1-2.33,1.6H38.39a9.73,9.73,0,1,1,0-19.44l19.45.05a5.06,5.06,0,0,0,4.74-3.24c0,.09,2.44-5.32,2.44-5.32a2.52,2.52,0,0,1,2.4-1.67l19,0,0-16.78-19,0a2.48,2.48,0,0,1-2.34-1.54l-2.54-5.56a4.68,4.68,0,0,0-4.49-3.1c.06,0-19.66,0-19.66,0a9.73,9.73,0,1,1,0-19.44H69.61a2.59,2.59,0,0,1,2.28,1.52l2.52,5.51a5,5,0,0,0,4.7,3.27h11.6a5.21,5.21,0,0,0,4.71-5.19s0-19.11,0-21.76h19.74v21.77a5.19,5.19,0,0,0,4.59,5.18h11.72a5.06,5.06,0,0,0,4.75-3.39c0,.14,2.42-5.28,2.42-5.28a2.63,2.63,0,0,1,2.31-1.61h31.21a9.73,9.73,0,1,1,0,19.44l-19.68,0a4.78,4.78,0,0,0-4.49,3.2l-2.43,5.33a2.53,2.53,0,0,1-2.39,1.69l-19.06,0,0,16.79,19,0a2.47,2.47,0,0,1,2.34,1.55l2.51,5.53a5,5,0,0,0,4.76,3.13l19.41,0a9.73,9.73,0,1,1,0,19.44ZM174,196.34H150.37c-.05,0-2.28,0-2.83-1.42,0-.09-2.51-5.51-2.51-5.51-.69-2-3.37-3.26-5.43-3.25l-17.89-.07c0-2.48-.1-20.07-.1-22.61l17.9,0c2,0,4.73-1.3,5.49-3.41l2.39-5.29c.62-1.52,2.84-1.51,2.84-1.51h23.65c3.27,0,5.85-3,5.85-6.77s-2.71-6.86-6-6.86H145.31c-.18,0-4.11,0-5.39,3.31.05-.09-2.43,5.34-2.43,5.34a3.76,3.76,0,0,1-3.12,1.66H114.76a2.4,2.4,0,0,1-2.12-2.2l0-24.77H97.89l0,24.77a2.41,2.41,0,0,1-2.21,2.2H76.2a3.91,3.91,0,0,1-3.08-1.52c-.05-.15-2.53-5.58-2.53-5.58-1.22-3.17-5.17-3.21-5.34-3.2H36.87c-3.35,0-6,3.07-6,6.85s2.58,6.78,5.86,6.79h23.6s2.27,0,2.84,1.44l2.51,5.5c.68,2,3.35,3.27,5.42,3.27l17.88,0c0,2.54-.07,20.13-.07,22.61-2.27,0-17.89.07-17.89.07-2.06,0-4.74,1.29-5.5,3.39l-2.41,5.28c-.6,1.53-2.82,1.53-2.82,1.53H36.61c-3.29,0-5.87,3-5.87,6.77s2.7,6.85,6.05,6.85H65.16c.17,0,4.12,0,5.39-3.28L73,201.36c.28-.8,1.82-1.67,3.12-1.66H92.8a5.41,5.41,0,0,1,4,1.91,5.05,5.05,0,0,1,1.12,3.3c0,.08,0,21.25,0,23.94H59.19l3.14,2.71c10.61,9.23,28.23,15.68,42.87,15.68s32.44-6.44,43-15.67l3.16-2.71H112.7c0-2.68,0-23.81,0-23.88a5.13,5.13,0,0,1,1.11-3.36,5.51,5.51,0,0,1,4-1.91h16.71c1.3,0,2.82.85,3.06,1.52.05.14,2.53,5.56,2.53,5.56,1.21,3.17,5.17,3.21,5.35,3.21h28.37c3.33,0,6-3.07,6.06-6.85s-2.6-6.8-5.88-6.8ZM173.78,207H145.41c-.64,0-2.53-.3-3-1.53,0-.07-2.51-5.51-2.51-5.51-.7-2-3.36-3.27-5.42-3.28H117.76a8,8,0,0,0-5.84,2.86,8.43,8.43,0,0,0-1.84,5.79v26.56h32.67c-10.32,7.32-24.9,12.34-37.55,12.33s-27.09-5-37.38-12.32H100.5s0-26.87,0-27a8.33,8.33,0,0,0-1.84-5.35,7.89,7.89,0,0,0-5.86-2.86H76.11c-2.08,0-4.75,1.32-5.49,3.4,0-.1-2.42,5.29-2.42,5.29-.51,1.31-2.43,1.61-3.06,1.62H36.79a3.66,3.66,0,0,1-3.43-3.84c0-2.14,1.38-3.75,3.25-3.75H60.18c.13,0,4,.07,5.24-3.22,0,.1,2.41-5.33,2.41-5.33A3.8,3.8,0,0,1,71,189.17l20.49,0,.09-28.66-20.5-.05c-1.31,0-2.83-.85-3-1.51-.08-.14-2.55-5.55-2.55-5.55-1.25-3.21-5-3.13-5.21-3.13H36.69c-1.85,0-3.25-1.6-3.24-3.76a3.62,3.62,0,0,1,3.42-3.82H65.25c.62,0,2.53.3,3,1.53l2.5,5.5c.69,2,3.38,3.3,5.44,3.3H95.82a5.31,5.31,0,0,0,4.72-5.24s0-19.09,0-21.73h9.56v21.73a5.21,5.21,0,0,0,4.58,5.21c.14,0,19.73,0,19.73,0,2,0,4.73-1.32,5.46-3.43,0,.13,2.43-5.29,2.43-5.29.5-1.31,2.43-1.59,3.07-1.61h28.35a3.67,3.67,0,0,1,3.45,3.84c0,2.16-1.4,3.75-3.25,3.75h-23.6c-.13,0-3.92-.08-5.22,3.22,0-.09-2.44,5.33-2.44,5.33-.28.79-1.82,1.65-3.11,1.65l-20.52,0,.13,28.68,20.48,0c1.3,0,2.84.86,3.07,1.53l2.52,5.56c1.25,3.19,5.08,3.12,5.22,3.12H174c1.86,0,3.26,1.61,3.26,3.76a3.66,3.66,0,0,1-3.44,3.83Zm-68.47-78,.35,0-.28-.06ZM81.17,116.08l13.73,0,.29-.21c.07,0,6-4,10.32-4l-.13,0c4.36,0,10.12,4,10.14,4l.35.2,13.79,0c-.28-1-.62-2-.86-3-5.23,0-11.86,0-12.25,0-1-.66-6.45-4.22-11.19-4.22l.15,0c-4.74,0-10.34,3.6-11.31,4.25-.38,0-7,0-12.23,0C81.73,114.09,81.47,115.09,81.17,116.08ZM105,88l.35.12h0Zm-4,13.52a4.43,4.43,0,1,0,8.85,0v-.15l0-.45-2.37-11.81-.53-.49-1.48-.48-1.49.51-.75.22,0,1.11-2.2,11.1Zm4.43-9.06c.49,2.5,1.82,9.14,1.82,9.14,0,.69-.88,1.35-1.85,1.35a1.64,1.64,0,0,1-1.77-1.42s1.16-6,1.8-9.07m-7.23,2.89a5.56,5.56,0,1,0-5.54,5.55,5.58,5.58,0,0,0,5.54-5.55m-8.5,0a3,3,0,1,1,2.94,2.53,2.81,2.81,0,0,1-2.94-2.53m34.06,0a5.55,5.55,0,1,0-5.55,5.55,5.54,5.54,0,0,0,5.55-5.55m-8.49,0a3,3,0,1,1,2.94,2.53,2.79,2.79,0,0,1-2.94-2.53M64.63,77.46c-5.1,0-10,6.88-10.79,15l-.14,1.46,22.12,3.64V95.82C75.82,86.57,70.25,77.48,64.63,77.46ZM56.77,91.37c1.07-6.28,4.78-10.87,7.86-10.87C68.1,80.5,72.3,86.72,73,94,70.3,93.58,59,91.72,56.77,91.37ZM53.68,110l.13,1.45c.76,8.13,5.7,15,10.75,15,5.67,0,11.2-9.09,11.2-18.35v-1.76l-1.49.25Zm10.88,13.4c-3.06,0-6.77-4.58-7.83-10.85l16.17-2.67c-.64,7.32-4.83,13.52-8.34,13.52m-8.32-16.31L70,104.66l1.51-.85c0-.06.48-1.72.48-1.72l.12-.51L72,102l-.54-1.63-1.5-.77c.06,0-13.68-2.47-13.68-2.47H55.7a5.05,5.05,0,0,0,0,10.1Zm-2.93-5a2.25,2.25,0,0,1,2.39-2c.11,0,7.38,1.29,11.35,2-3.36.59-11.21,2-11.21,2a2.32,2.32,0,0,1-2.53-2.06M156.9,92.44c-.77-8.1-5.69-15-10.77-15-5.65,0-11.19,9.1-11.19,18.36v1.74L157,93.92ZM137.8,94c.65-7.31,4.84-13.53,8.33-13.53,3.07,0,6.77,4.59,7.85,10.87C151.76,91.74,140.43,93.58,137.8,94Zm8.38,32.46c5.06,0,10-6.87,10.75-15l.13-1.44L135,106.39v1.75c0,9.26,5.57,18.34,11.22,18.35M154,112.58c-1,6.28-4.76,10.86-7.83,10.86-3.49,0-7.68-6.2-8.33-13.52L154,112.58m.94-15.49h-.43l-13.75,2.5-1.42.76-.71,2.14.16-.41.5,1.76s1.54.81,1.54.81,13.68,2.47,13.68,2.47l.08,0,.47,0a5,5,0,0,0,0-10.09Zm2.5,5a2.28,2.28,0,0,1-2.38,2c-.12,0-7.42-1.31-11.37-2,3.36-.62,11.2-2,11.2-2A2.33,2.33,0,0,1,157.44,102.11ZM81.15,45H68a3.91,3.91,0,0,0-3.61,4.07c0,2.32,1.63,4.36,3.5,4.36,12.28,1,17.75,3.86,17.63,9.32C85.55,63,87,74.25,87,74.25l.15,1.31,9.59,0-1.25-21C95.44,45,85.42,45,81.15,45Zm8.2,27.53-1.23-10a1.92,1.92,0,0,0,0-.24C88.12,52,74,50.87,68,50.4c-.53,0-1-.7-1-1.34a1,1,0,0,1,1-1l13.15,0c8.19,0,11.67,2,11.66,6.55,0,0,.93,15.22,1.07,17.95ZM143,53.42c1.77,0,3.4-2,3.4-4.36a3.89,3.89,0,0,0-3.57-4l-13.15,0c-4.27,0-14.3,0-14.3,9.58,0-.06-1.16,19.37-1.16,19.37l-.09,1.6h9.59L125.3,63c-.12-5.7,5.34-8.58,17.74-9.57m-20.35,9.13v.26s-.87,7-1.21,9.71H117c.16-2.73,1.08-17.95,1.08-17.95C118,50,121.51,48,129.72,48l13.15,0a1,1,0,0,1,1,1c0,.64-.46,1.34-.89,1.34C136.81,50.88,122.69,52,122.69,62.55Z"/><rect class="cls-1" x="104.56" y="9.46" width="1" height="55.46"/><rect class="cls-1" x="105.74" y="22.83" width="28.16" height="1" transform="translate(76.12 137.31) rotate(-80.04)"/><rect class="cls-1" x="126.48" y="24" width="17.09" height="1" transform="translate(64.2 142.04) rotate(-69.21)"/><rect class="cls-1" x="145.11" y="27.41" width="11.04" height="1" transform="translate(43.43 137.35) rotate(-56.09)"/><rect class="cls-1" x="156" y="35.88" width="11.01" height="1" transform="translate(21.58 124.86) rotate(-45)"/><rect class="cls-1" x="149.96" y="54.21" width="31.52" height="1" transform="translate(4.04 120.39) rotate(-40.38)"/><rect class="cls-1" x="163.19" y="65.07" width="27.44" height="1" transform="translate(-7.2 106.8) rotate(-32.96)"/><rect class="cls-1" x="167.32" y="77.72" width="28.25" height="1" transform="translate(-16.05 72.07) rotate(-21.54)"/><rect class="cls-1" x="167.98" y="91.67" width="32.12" height="1" transform="matrix(0.98, -0.2, 0.2, 0.98, -14.83, 39.1)"/><rect class="cls-1" x="168.31" y="104.64" width="31.46" height="1"/><rect class="cls-1" x="168.31" y="120.21" width="31.46" height="1"/><rect class="cls-1" x="185.5" y="134.48" width="14.27" height="1"/><rect class="cls-1" x="189.72" y="150.05" width="10.05" height="1"/><rect class="cls-1" x="153.72" y="165.3" width="46.06" height="1"/><rect class="cls-1" x="153.72" y="180.54" width="46.06" height="1"/><rect class="cls-1" x="188.42" y="195.14" width="11.35" height="1"/><rect class="cls-1" x="189.62" y="206.61" width="1" height="10.16" transform="translate(-81.38 296.81) rotate(-65.48)"/><rect class="cls-1" x="182.08" y="217.41" width="1" height="13.86" transform="translate(-104.77 257.43) rotate(-57.43)"/><rect class="cls-1" x="169.92" y="223.84" width="1" height="21.11" transform="translate(-114.78 182.95) rotate(-43.75)"/><rect class="cls-1" x="159.22" y="236.34" width="1" height="19.15" transform="translate(-118.86 154.39) rotate(-38.81)"/><rect class="cls-1" x="148.68" y="244.7" width="1" height="18.3" transform="translate(-106.3 107.46) rotate(-29.75)"/><rect class="cls-1" x="134.53" y="252.77" width="1" height="16.11" transform="translate(-88.47 70.27) rotate(-22.18)"/><polygon class="cls-1" points="121.76 273.56 119.33 257.66 120.32 257.51 122.75 273.41 121.76 273.56"/><rect class="cls-1" x="104.56" y="258.89" width="1" height="16.87"/><rect class="cls-1" x="104.44" y="9.46" width="1" height="55.46"/><rect class="cls-1" x="89.68" y="9.25" width="1" height="28.16" transform="translate(-2.67 15.93) rotate(-9.95)"/><rect class="cls-1" x="74.48" y="15.96" width="1" height="17.09" transform="translate(-3.81 28.28) rotate(-20.84)"/><rect class="cls-1" x="58.87" y="22.39" width="1" height="11.04" transform="translate(-5.47 37.89) rotate(-33.92)"/><rect class="cls-1" x="48.01" y="30.88" width="1" height="11.01" transform="translate(-11.52 44.95) rotate(-45)"/><rect class="cls-1" x="43.79" y="38.95" width="1" height="31.52" transform="translate(-26.08 52.97) rotate(-49.59)"/><rect class="cls-1" x="32.6" y="51.85" width="1" height="27.44" transform="translate(-39.93 57.7) rotate(-57.06)"/><rect class="cls-1" x="28.06" y="64.1" width="1" height="28.25" transform="translate(-54.69 76.04) rotate(-68.44)"/><rect class="cls-1" x="25.46" y="76.11" width="1" height="32.12" transform="matrix(0.2, -0.98, 0.98, 0.2, -69.55, 98.98)"/><rect class="cls-1" x="10.23" y="104.64" width="31.46" height="1"/><rect class="cls-1" x="10.23" y="120.21" width="31.46" height="1"/><rect class="cls-1" x="10.23" y="134.48" width="14.27" height="1"/><rect class="cls-1" x="10.23" y="150.05" width="10.05" height="1"/><rect class="cls-1" x="10.23" y="165.3" width="46.06" height="1"/><rect class="cls-1" x="10.23" y="180.54" width="46.06" height="1"/><rect class="cls-1" x="10.23" y="195.14" width="11.35" height="1"/><rect class="cls-1" x="14.8" y="211.19" width="10.16" height="1" transform="translate(-86.05 27.34) rotate(-24.52)"/><rect class="cls-1" x="20.49" y="223.84" width="13.86" height="1" transform="translate(-116.39 49.99) rotate(-32.55)"/><rect class="cls-1" x="29.03" y="233.9" width="21.11" height="1" transform="translate(-157.22 101.07) rotate(-46.3)"/><rect class="cls-1" x="40.72" y="245.41" width="19.15" height="1" transform="translate(-172.81 130.91) rotate(-51.17)"/><rect class="cls-1" x="51.68" y="253.36" width="18.3" height="1" transform="translate(-189.76 180.74) rotate(-60.26)"/><rect class="cls-1" x="66.92" y="260.33" width="16.11" height="1" transform="translate(-194.87 231.93) rotate(-67.85)"/><polygon class="cls-1" points="88.25 273.56 87.26 273.41 89.69 257.51 90.68 257.66 88.25 273.56"/><rect class="cls-1" x="104.44" y="258.89" width="1" height="16.87"/></g></g></svg>