<svg xmlns="http://www.w3.org/2000/svg" viewBox="0 0 3513.2 1911.39"><defs><style>.cls-1{fill:#ffc627;}.cls-2{fill:#0d2240;}</style></defs><g id="Capa_2" data-name="Capa 2"><g id="svg32"><g id="g12"><path id="path4" class="cls-1" d="M2551.28,360.72c-11.05-2.77-19.35-2.77-24.88,1.38-27.64,20.73-51.13,33.17-70.48,34.55s-33.17,8.29-42.84,20.73l-19.35,18c-1.39,2.76-9.68,8.29-34.55,11.06-4.15,2.76-19.35,11-12.44,19.34,8.29,11.06,16.58,23.5,22.11,37.32,6.91,27.64,1.38,55.28-23.49,82.92-9.68,11.06-22.12,13.82-38.7,12.44-8.29-1.38-18-6.91-18-16.58,1.38-9.68,4.15-18,13.82-23.5,16.59-20.73,16.59-38.7-1.38-53.9a38.71,38.71,0,0,0-38.7,0c-24.88,11.06-29,33.17-12.44,53.9,0,6.91-1.38,13.82-4.14,23.5-6.91,12.44-18,16.58-31.79,13.82-23.5-12.44-34.55-34.55-31.79-73.25q16.59-27,37.32-45.61c-13.82-24.88-34.55-44.23-60.81-58.05-24.88,12.44-45.61,31.79-60.81,58.05,12.43,13.82,23.49,29,30.4,45.61,2.77,22.11,1.38,44.22-16.58,65-16.59,11-31.79,18-48.38,8.29-11-11.06-11-23.5-4.14-38.7,11.06-18,9.67-34.55-6.91-49.75-12.44-9.68-29-8.3-40.08,0-16.59,12.43-13.82,29-1.38,49.75a47,47,0,0,1-1.39,20.73c-12.43,27.64-31.78,23.5-53.9,13.82-40.08-38.7-38.69-78.78,8.3-116.09,9.67-12.44,4.14-27.64-12.44-30.41-33.17-9.67-62.19-23.49-81.54-51.13-19.35-40.08-44.23-40.08-63.58,0-19.35,24.87-49.75,41.46-81.54,51.13-18,2.77-22.11,18-13.82,29,48.37,40.08,48.37,78.77,9.67,117.47-22.11,9.68-41.46,11.06-53.9-13.82-2.76-6.91-2.76-12.44-1.38-22.11,12.44-19.35,13.82-37.32-1.38-48.37-12.44-8.3-27.64-9.68-41.46,0C1606,519.65,1606,539,1618.39,557c4.15,12.44,4.15,24.88-4.14,37.32-18,9.67-31.79,4.14-48.38-6.91-18-22.12-19.35-42.85-16.58-65,6.91-19.35,18-33.17,29-48.37-12.44-23.5-33.17-42.85-60.81-58.05a186.86,186.86,0,0,0-60.81,58.05c13.82,13.82,27.64,29,37.32,48.37,4.14,37.31-6.91,60.81-30.41,71.87-16.58,2.76-27.64,0-33.17-13.82-1.38-8.3-2.76-16.59-2.76-22.12,16.58-20.73,11-42.84-12.44-53.9-12.44-6.91-24.88-6.91-40.08,0-16.59,16.59-18,33.17-1.38,53.9,9.67,6.91,13.82,13.82,13.82,22.12,1.38,11-8.29,16.58-18,18-16.58,1.38-27.64-2.76-37.31-12.44-27.65-27.64-31.79-55.28-26.26-84.3,6.91-12.44,13.82-23.5,23.49-34.55,6.91-8.3-8.29-18-13.82-19.35-24.88-4.15-33.17-8.3-33.17-11.06l-19.35-19.35c-11-11.05-24.87-18-42.84-19.35-19.35-1.38-44.23-13.82-71.87-34.55-6.91-4.14-13.82-4.14-23.49-1.38-8.3,8.29-9.68,16.58-6.91,23.49,99.5,88.46,132.67,189.35,141,243.25H2421.37c8.29-52.52,41.46-154.79,139.59-240.48-1.39-11.06-2.77-19.35-9.68-27.64"/><path id="path6" class="cls-1" d="M1203.77,344.13c30.41,8.3,60.81,18,85.69,33.17,18,4.15,34.55,0,51.14-9.67,70.48-55.28,150.64-102.27,244.62-131.3,13.82-4.14,22.12,0,18,13.82-37.32,29-63.58,65-80.16,113.33,0,13.82,9.67,20.73,30.4,19.35,16.59-4.15,29-2.76,38.7,2.76,13.82,2.77,24.88-1.38,34.55-23.49,9.68-62.19,48.38-105,103.66-135.44,24.88-2.77,37.31,8.29,33.17,31.79-20.73,22.11-37.32,45.6-42.85,71.86,1.39,23.5,13.82,31.79,34.56,24.88,12.43,0,22.11-11.06,30.4-31.79,20.73-38.7,74.63-38.7,95.36,0,8.3,20.73,18,31.79,29,31.79q33.16,10.37,37.31-24.88c-6.91-26.26-22.11-49.75-42.84-71.86-2.77-23.5,8.29-34.56,33.17-31.79,55.28,30.4,94,73.25,103.65,135.44,8.29,22.11,20.73,27.64,33.17,23.49,11.06-6.91,23.5-8.29,40.08-2.76,20.73,1.38,30.41-4.15,30.41-19.35-16.59-48.37-42.85-84.3-80.16-113.33-4.15-13.82,2.76-19.35,18-13.82,94,29,174.14,74.63,244.63,131.3,16.58,9.67,33.17,13.82,51.13,9.67,24.88-16.58,53.9-24.87,85.69-33.17,19.35-2.76,26.26-18,20.73-40.08-13.82-20.73-34.55-33.17-63.57-37.31-11.06,1.38-20.73-1.38-29-9.68-18-30.4-49.75-41.46-92.59-34.55-20.73-23.49-49.76-29-80.16-27.64-27.64-29-58.05-31.79-89.84-26.26-34.55-22.11-67.72-30.4-94-16.58-44.22-18-82.92-11.06-114.71,9.67-11-23.49-27.64-41.46-52.52-51.14V84.31H1910V42.84h-41.47V0h-70.48V42.84H1756.6V84.31h41.46v29c-26.26,9.67-42.85,27.64-52.52,51.14-33.17-20.74-70.48-27.65-114.71-9.68-29-13.82-60.81-6.91-94,16.59-31.79-6.91-62.19-2.77-89.83,26.25-31.79-1.38-59.43,2.77-80.16,27.65-42.85-6.91-74.64,4.14-92.6,34.55-8.29,8.29-18,11.05-29,9.67-29,2.77-49.75,16.59-63.57,37.32-4.15,20.73,2.76,34.55,22.11,37.31m631.61-208.69c22.11,0,40.07,22.11,40.07,51.14s-18,52.52-40.07,52.52-41.47-23.5-41.47-52.52,19.35-51.14,41.47-51.14"/><path id="path8" class="cls-1" d="M1254.91,815.42H2417.22V706.23H1254.91Zm1031-84.31a31.79,31.79,0,1,1-31.79,31.79,31.27,31.27,0,0,1,31.79-31.79m-222.52,0a31.79,31.79,0,1,1-31.78,31.79c0-18,15.2-31.79,31.78-31.79m-228,0a31.79,31.79,0,1,1-31.78,31.79,31.28,31.28,0,0,1,31.78-31.79m-228,0a31.79,31.79,0,1,1-31.79,31.79,31.27,31.27,0,0,1,31.79-31.79m-223.9,0a31.79,31.79,0,1,1-31.79,31.79,31.28,31.28,0,0,1,31.79-31.79"/><rect id="rect10" class="cls-1" x="1254.91" y="652.33" width="1162.31" height="29.02"/></g><g id="g30"><path id="path14" class="cls-2" d="M1068.33,914.92S913.54,909.4,850,769.81c0,0-145.12,163.08-370.4,221.13L494.78,1031v519.65l-42.85,42.84S280.56,1483,266.74,1317.1C254.3,1166.46,276.41,1053.13,445,908c0,0,55.29-49.75,141-80.16v-18C313.73,808.5,0,1054.51,0,1340.6c0,283.32,215.6,451.93,498.92,451.93,0,0,181.05,1.38,313.73-71.87v70.49c0,5.53-11.06,4.15-11.06,4.15-38.69,0-70.48,26.25-70.48,58s31.79,58.05,70.48,58.05,70.49-26.26,70.49-58.05V1693l49.75-38.69c12.44-9.68,2.77-30.41-12.43-24.88s-37.32,15.2-37.32,15.2V979.88s131.3,12.44,196.25-65M812.65,1658.47c-225.27,24.88-286.09-24.88-286.09-24.88L711.76,1476V934.27c0-24.87,100.89,37.32,100.89,37.32Z"/><path id="path16" class="cls-2" d="M1358.56,1152.64c0-19.35,24.88-40.08,24.88-40.08-92.6-9.68-240.48-77.4-240.48-77.4-82.92,70.49-215.6,77.4-215.6,77.4-2.76,15.2,20.73,42.84,20.73,42.84v333.08s-6.91,4.14-30.4,33.17c-6.91,9.67-12.44,18-12.44,18,185.2,20.74,259.83,116.1,259.83,116.1,82.92-92.6,222.51-113.33,222.51-113.33-22.12-9.68-30.41-41.46-30.41-47V1152.64Zm-150.64,367.63c-99.51-19.35-120.24-42.85-120.24-42.85V1133.29c0-6.91,120.24,42.84,120.24,42.84Z"/><path id="path18" class="cls-2" d="M2287.31,1152.64c0-19.35,24.88-40.08,24.88-40.08-92.6-9.68-240.48-77.4-240.48-77.4-82.93,70.49-215.6,77.4-215.6,77.4-2.77,15.2,20.73,42.84,20.73,42.84v333.08s-6.91,4.14-30.41,33.17c-6.91,9.67-12.44,18-12.44,18,185.2,20.74,259.83,116.1,259.83,116.1,82.92-92.6,222.51-113.33,222.51-113.33-22.11-9.68-30.4-41.46-30.4-47V1152.64Zm-150.65,367.63c-99.5-19.35-120.23-42.85-120.23-42.85V1133.29c0-6.91,120.23,42.84,120.23,42.84Z"/><path id="path20" class="cls-2" d="M3366.7,1531.32c-37.32-5.53-49.76-37.31-49.76-47V1107c-107.8-34.55-212.83-73.25-212.83-73.25-99.51,59.43-207.31,77.4-207.31,77.4-2.77,15.2,20.73,42.84,20.73,42.84v349.66s-4.15,5.53-13.82,18c-4.15,5.53-11.06,13.82-13.82,16.58,107.8,12.44,225.27,116.1,225.27,116.1l85.69-92.6,96.74,92.6,116.1-116.1C3413.69,1539.61,3404,1538.23,3366.7,1531.32Zm-200.4-11c-45.61-34.56-107.8-58-107.8-58V1131.91c5.53,6.91,107.8,42.84,107.8,42.84Z"/><path id="path22" class="cls-2" d="M1676.44,1539.61c-98.13,56.67-124.39,116.1-124.39,116.1s-26.26-59.43-124.38-116.1h45.61v-362.1c0-19.34-19.35-62.19-63.58-65l125.77-77.4s80.16,47,92.6,67.72c0,0-15.21,12.44,87.07-55.28l18-12.44s62.2,70.49,112,81.54c-12.44,45.61-58,100.89-183.81,31.79,0,0-30.41-6.91-30.41,13.82V1541h45.61Z"/><path id="path24" class="cls-2" d="M2836,1112.56c-49.76-19.35-142.36-77.4-142.36-77.4l-18,12.44c-102.28,67.72-125.77,58.05-125.77,58.05-12.44-20.73-92.6-67.72-92.6-67.72l-121.62,74.63c45.61,2.76,63.58,45.61,63.58,65v362.1h-45.61c98.12,56.67,124.38,116.1,124.38,116.1s26.26-59.43,124.39-116.1h-45.61V1174.75l65-37.31,49.75,37.31v364.86h-45.61c98.13,56.67,118.86,116.1,118.86,116.1s26.26-59.43,124.39-116.1h-45.61V1160.93C2823.55,1159.55,2848.42,1118.09,2836,1112.56Z"/><path id="path26" class="cls-2" d="M3462.06,1673.67s15.2-4.14,15.2-18c0-9.68-6.91-18-23.49-18h-27.64v63.58h11v-26.26h12.44s11.06,12.43,18,26.26h15.2c-1.38,0-11.06-19.35-20.73-27.65m-11.06-8.29h-15.2v-18H3451c5.53,0,12.44,1.39,12.44,8.3s-6.91,9.67-12.44,9.67"/><path id="path28" class="cls-2" d="M3391.57,1669.53c0,33.17,27.65,60.81,60.81,60.81s60.82-27.64,60.82-60.81-27.65-60.81-60.82-60.81a60.46,60.46,0,0,0-60.81,60.81m11.06,0A48.37,48.37,0,1,1,3451,1717.9c-26.26,0-48.37-22.11-48.37-48.37"/></g></g></g></svg>