<svg xmlns="http://www.w3.org/2000/svg" viewBox="0 0 1444.16 815.42"><defs><style>.cls-1{fill:#ffc627;}</style></defs><g id="Capa_2" data-name="Capa 2"><g id="svg32"><g id="g12"><path id="path4" class="cls-1" d="M1434.49,360.72c-11.06-2.77-19.35-2.77-24.88,1.38-27.64,20.73-51.13,33.17-70.48,34.55s-33.17,8.29-42.85,20.73l-19.35,18c-1.38,2.76-9.67,8.29-34.55,11.06-4.14,2.76-19.35,11-12.44,19.34,8.3,11.06,16.59,23.5,22.12,37.32,6.91,27.64,1.38,55.28-23.5,82.92-9.67,11.06-22.11,13.82-38.69,12.44-8.3-1.38-18-6.91-18-16.58,1.38-9.68,4.14-18,13.82-23.5,16.58-20.73,16.58-38.7-1.38-53.9a38.71,38.71,0,0,0-38.7,0c-24.88,11.06-29,33.17-12.44,53.9,0,6.91-1.38,13.82-4.15,23.5-6.91,12.44-18,16.58-31.78,13.82-23.5-12.44-34.55-34.55-31.79-73.25q16.59-27,37.32-45.61c-13.83-24.88-34.56-44.23-60.82-58.05-24.87,12.44-45.6,31.79-60.81,58.05,12.44,13.82,23.5,29,30.41,45.61,2.76,22.11,1.38,44.22-16.59,65-16.58,11-31.78,18-48.37,8.29-11-11.06-11-23.5-4.14-38.7,11-18,9.67-34.55-6.91-49.75-12.44-9.68-29-8.3-40.08,0-16.59,12.43-13.82,29-1.39,49.75a47,47,0,0,1-1.38,20.73c-12.44,27.64-31.79,23.5-53.9,13.82-40.08-38.7-38.7-78.78,8.29-116.09,9.68-12.44,4.15-27.64-12.43-30.41-33.17-9.67-62.2-23.49-81.55-51.13-19.34-40.08-44.22-40.08-63.57,0C670.21,418.76,639.81,435.35,608,445c-18,2.77-22.11,18-13.82,29,48.37,40.08,48.37,78.77,9.67,117.47-22.11,9.68-41.46,11.06-53.9-13.82-2.76-6.91-2.76-12.44-1.38-22.11,12.44-19.35,13.82-37.32-1.38-48.37-12.44-8.3-27.64-9.68-41.46,0C489.16,519.65,489.16,539,501.6,557c4.15,12.44,4.15,24.88-4.15,37.32-18,9.67-31.78,4.14-48.37-6.91-18-22.12-19.35-42.85-16.58-65,6.91-19.35,18-33.17,29-48.37-12.44-23.5-33.17-42.85-60.81-58.05a186.66,186.66,0,0,0-60.81,58.05c13.82,13.82,27.64,29,37.31,48.37,4.15,37.31-6.91,60.81-30.4,71.87-16.59,2.76-27.64,0-33.17-13.82-1.38-8.3-2.76-16.59-2.76-22.12,16.58-20.73,11.05-42.84-12.44-53.9-12.44-6.91-24.88-6.91-40.08,0-16.59,16.59-18,33.17-1.39,53.9,9.68,6.91,13.83,13.82,13.83,22.12,1.38,11-8.3,16.58-18,18-16.59,1.38-27.64-2.76-37.32-12.44-27.64-27.64-31.78-55.28-26.26-84.3,6.91-12.44,13.82-23.5,23.5-34.55,6.91-8.3-8.29-18-13.82-19.35-24.88-4.15-33.17-8.3-33.17-11.06l-19.35-19.35c-11.06-11.05-24.88-18-42.84-19.35-19.35-1.38-44.23-13.82-71.87-34.55-6.91-4.14-13.82-4.14-23.5-1.38-8.29,8.29-9.67,16.58-6.91,23.49,99.51,88.46,132.68,189.35,141,243.25H1304.58c8.29-52.52,41.46-154.79,139.58-240.48-1.38-11.06-2.76-19.35-9.67-27.64"/><path id="path6" class="cls-1" d="M87,344.13c30.41,8.3,60.81,18,85.69,33.17,18,4.15,34.55,0,51.14-9.67,70.48-55.28,150.64-102.27,244.62-131.3,13.82-4.14,22.11,0,18,13.82-37.32,29-63.58,65-80.16,113.33,0,13.82,9.67,20.73,30.4,19.35,16.59-4.15,29-2.76,38.7,2.76,13.82,2.77,24.88-1.38,34.55-23.49,9.68-62.19,48.37-105,103.66-135.44,24.87-2.77,37.31,8.29,33.17,31.79-20.74,22.11-37.32,45.6-42.85,71.86,1.38,23.5,13.82,31.79,34.55,24.88,12.44,0,22.12-11.06,30.41-31.79,20.73-38.7,74.63-38.7,95.36,0,8.29,20.73,18,31.79,29,31.79q33.18,10.37,37.32-24.88c-6.91-26.26-22.11-49.75-42.84-71.86-2.77-23.5,8.29-34.56,33.16-31.79,55.29,30.4,94,73.25,103.66,135.44,8.29,22.11,20.73,27.64,33.17,23.49,11.06-6.91,23.49-8.29,40.08-2.76,20.73,1.38,30.4-4.15,30.4-19.35-16.58-48.37-42.84-84.3-80.16-113.33-4.14-13.82,2.77-19.35,18-13.82,94,29,174.14,74.63,244.63,131.3,16.58,9.67,33.16,13.82,51.13,9.67,24.88-16.58,53.9-24.87,85.69-33.17,19.35-2.76,26.26-18,20.73-40.08-13.82-20.73-34.55-33.17-63.57-37.31-11.06,1.38-20.74-1.38-29-9.68-18-30.4-49.75-41.46-92.6-34.55-20.73-23.49-49.75-29-80.16-27.64-27.64-29-58-31.79-89.83-26.26-34.55-22.11-67.72-30.4-94-16.58-44.23-18-82.92-11.06-114.71,9.67-11.06-23.49-27.64-41.46-52.52-51.14V84.31h41.46V42.84H751.75V0H681.27V42.84H639.8V84.31h41.47v29C655,123,638.42,141,628.75,164.47c-33.17-20.74-70.49-27.65-114.71-9.68-29-13.82-60.81-6.91-94,16.59-31.79-6.91-62.2-2.77-89.84,26.25-31.78-1.38-59.43,2.77-80.16,27.65-42.84-6.91-74.63,4.14-92.59,34.55-8.3,8.29-18,11.05-29,9.67-29,2.77-49.75,16.59-63.57,37.32-4.15,20.73,2.76,34.55,22.11,37.31m631.6-208.69c22.12,0,40.08,22.11,40.08,51.14s-18,52.52-40.08,52.52-41.46-23.5-41.46-52.52,19.35-51.14,41.46-51.14"/><path id="path8" class="cls-1" d="M138.12,815.42H1300.43V706.23H138.12Zm1031-84.31a31.79,31.79,0,1,1-31.78,31.79,31.28,31.28,0,0,1,31.78-31.79m-222.51,0a31.79,31.79,0,1,1-31.79,31.79c0-18,15.21-31.79,31.79-31.79m-228,0A31.79,31.79,0,1,1,686.8,762.9a31.28,31.28,0,0,1,31.78-31.79m-228,0a31.79,31.79,0,1,1-31.78,31.79,31.28,31.28,0,0,1,31.78-31.79m-223.89,0a31.79,31.79,0,1,1-31.79,31.79,31.28,31.28,0,0,1,31.79-31.79"/><rect id="rect10" class="cls-1" x="138.12" y="652.33" width="1162.31" height="29.02"/></g></g></g></svg>