<svg xmlns="http://www.w3.org/2000/svg" viewBox="0 0 719 765.93"><defs><style>.cls-1{fill:#fff;}.cls-2{fill:#b99731;}.cls-3{stroke:#000;stroke-miterlimit:10;stroke-width:0.16px;}</style></defs><g id="Capa_2" data-name="Capa 2"><g id="Capa_1-2" data-name="Capa 1"><circle cx="153.19" cy="153.19" r="153.19"/><path d="M475.19,102.07c92.2,3.11,162.09,44.92,210,123.31,23.78,38.9,35.08,81.7,33.69,127.54-.74,24.48-7.87,47.51-16.28,70.19-20.1,54.19-48.77,104-79.43,152.67-38.51,61.15-80.75,119.67-125.51,176.39-1.42,1.8-2.84,3.62-4.35,5.35-9.78,11.17-26.27,11.36-35.58-.28C389.51,672,325.64,583.85,275.49,486.49c-14.76-28.65-27.35-58.27-36-89.4-14-50.24-8.27-99.26,12.46-146.11,35-79.1,95.56-127.61,180.55-144.94A187.13,187.13,0,0,1,475.19,102.07Z"/><path d="M475.15,537.54c-51.42,0-99.48-19.84-135.35-55.79-36.23-36.3-56.13-85.09-56-137.38a188.85,188.85,0,0,1,56.29-134.94c36.22-35.81,84.63-55.54,136.3-55.54h.26a189.36,189.36,0,0,1,135.25,56.24c35.87,36.2,55.6,84.6,55.55,136.29a189.76,189.76,0,0,1-56.15,135.34c-36.16,36-84.46,55.78-136,55.78Z"/><path class="cls-1" d="M476.35,154.89h.26a188.32,188.32,0,0,1,134.53,55.94c35.7,36,55.32,84.17,55.27,135.59a188.77,188.77,0,0,1-55.86,134.64c-36,35.77-84,55.48-135.29,55.48h-.11c-51.15,0-99-19.74-134.64-55.49-36-36.12-55.84-84.66-55.75-136.68a187.8,187.8,0,0,1,56-134.22c36-35.63,84.18-55.26,135.59-55.26m0-2C369,152.9,282.93,238,282.76,344.37c-.18,108.14,85,194.11,192.39,194.17h.11c107.11,0,193-85.47,193.15-192.12C668.52,239,583.31,153,476.61,152.89Z"/><g id="Capa_2-2" data-name="Capa 2"><g id="Capa_1-2-2" data-name="Capa 1-2"><path class="cls-2" d="M64.38,97.38V209c0,35.43,39.85,64.19,88.8,64.19S242,244.39,242,209V97.38c0-35.43-39.86-64.19-88.83-64.19S64.38,62,64.38,97.38ZM66.79,209V97.38c0-34.07,38.81-61.78,86.39-61.77s86.41,27.7,86.41,61.77V209c0,34.06-38.76,61.77-86.41,61.77S66.79,243.06,66.79,209Z"/><path class="cls-2" d="M209.63,193.71l-16.4,0a2.22,2.22,0,0,1-2-1.23l-2.12-4.63a4.2,4.2,0,0,0-3.95-2.77H171.3v-9.08h13.86a4.25,4.25,0,0,0,4-2.87c0,.11,2-4.46,2-4.46a1.9,1.9,0,0,1,1.79-1.25h16.62a10.76,10.76,0,0,0,0-21.51H183.33a4.31,4.31,0,0,0-4,2.79l-2.05,4.5a2.11,2.11,0,0,1-2,1.4h-9.83a2,2,0,0,1-1.77-1.81V139.9l1.69-.32c1-.19,6.86-.22,12.34-.17,2.73,3.82,6.17,6.1,9.94,6.1,7.54,0,14-9.19,15.46-21.86l-.39.84c1.29-1.38,1.2-11.33-1.1-19.11-2.6-8.67-7.36-13.59-13.86-14.24a11.14,11.14,0,0,0-7.54,3.24h-7l.85-6.37v-.07c0-3.7,6.17-4.62,6.23-4.63h0c7.41,0,11.75-3.38,11.75-9.17,0-8-8.44-8-12-8H169.43c-7,0-11.89,4.22-11.89,10.33,0,0-.85,13.81-1.08,17.87H150.1C150,92.27,149,76.46,149,76.46c0-6-4.88-10.3-11.89-10.3H126.47c-3.62,0-12,0-12,8,0,5.83,4.34,9.18,11.89,9.18,0,0,6.12.94,6.12,4.39v.08c0,.16.52,4.32.8,6.59h-6.94a10.87,10.87,0,0,0-7.46-3.24c-6.61.65-11.4,5.57-14,14.23-2.33,7.78-2.41,17.71-1.12,19.11l-.38-.85c1.42,12.66,7.93,21.85,15.44,21.85,3.78,0,7.23-2.29,9.94-6.1,5.49,0,11.23,0,12.18.17,0,0,.84.12,1.68.3v-2.54l-1.52-.31c-.84-.16-5.18-.19-10.78-.15a39.68,39.68,0,0,0,4.22-18.56,42.72,42.72,0,0,0-2.12-13.5h41.64a42.72,42.72,0,0,0-2.12,13.5,40,40,0,0,0,4.22,18.52c-5.63,0-10,0-11,.18,0,0-.63.15-1.48.29v-5.39H142.61v20.93a2,2,0,0,1-1.81,1.85h-9.68a2.07,2.07,0,0,1-2-1.28L127,148.7A4.21,4.21,0,0,0,123.1,146H96.76a10.75,10.75,0,0,0,0,21.5H113.4a1.88,1.88,0,0,1,1.76,1.18l2.12,4.65a4.21,4.21,0,0,0,4,2.75l13.85,0v9.07H121.26a4.3,4.3,0,0,0-4,2.87l-2,4.45a2.24,2.24,0,0,1-2,1.31l-16.42,0a10.75,10.75,0,0,0,0,21.49h26.33a4.31,4.31,0,0,0,3.94-2.79l2-4.49a2.43,2.43,0,0,1,2.28-1.3h9.53a1.9,1.9,0,0,1,1.77,1.74v13H106.74l.85,1.85c6.32,14.34,31.29,23.55,45.72,23.55H153c14.49,0,39.56-9.16,45.85-23.51l.84-1.85H163.75v-13a1.93,1.93,0,0,1,1.87-1.74h9.44a2.52,2.52,0,0,1,2.19,1.1c0,.1,2.13,4.68,2.13,4.68a4.23,4.23,0,0,0,3.89,2.71h26.36a10.75,10.75,0,0,0,0-21.5ZM118.84,143c-6.29,0-12-8.44-13.27-19.64v-.18l-.11-.3c-.51-1.38-.78-13.4,3.51-21.61,2.39-4.6,5.74-7.14,10-7.59,6.41,0,13.5,9.44,13.5,24.64S125.34,143,118.84,143Zm12.65-40.71a26.69,26.69,0,0,0-3-5.34h7.24l-1.14-9.28v-.18c0-5.55-7.85-6.65-8.2-6.69-3.74,0-9.82-.84-9.82-6.63,0-3.85,2.87-5.42,9.82-5.42h10.68c4.67,0,9.7,2.42,9.7,7.77L148,96.91h10.47L159.7,76.5c0-5.36,5-7.77,9.67-7.77h10.68c7,0,9.82,1.57,9.82,5.42,0,5.76-6.08,6.61-9.68,6.62-.48,0-8.34,1.15-8.34,6.92v.19l-.95,7.59-.17,1.45H178a26.44,26.44,0,0,0-3,5.33Zm42.62,16c0-15.19,7-24.63,13.5-24.63,4.15.4,7.51,3,9.91,7.54,4.26,8.2,4,20.24,3.51,21.62L201,123l-.09.31c-1.25,11.2-7,19.64-13.26,19.64s-13.45-9.36-13.45-24.61Zm35.48,94.33H183.33a2.24,2.24,0,0,1-2-1.28c0-.07-2.1-4.66-2.1-4.66a4.51,4.51,0,0,0-4.21-2.66h-9.54a4.34,4.34,0,0,0-4,4.3v15.54h34.16C189,235.24,167.67,244.12,153,244.12l.29,0c-14.92,0-35.81-8.75-42.6-20.3h34.16l0-15.55A4.3,4.3,0,0,0,141,204h-9.64a4.54,4.54,0,0,0-4.22,2.77c0-.11-2,4.48-2,4.48a2.24,2.24,0,0,1-2,1.35H96.76a8.21,8.21,0,1,1-.74-16.4c.25,0,.49,0,.74,0l16.41,0a4.27,4.27,0,0,0,4-2.73c0,.08,2.06-4.49,2.06-4.49a2.13,2.13,0,0,1,2-1.41h16V173.5h-16a2.1,2.1,0,0,1-2-1.3l-2.14-4.69a4,4,0,0,0-3.79-2.62H96.76a8.21,8.21,0,1,1-.74-16.4c.25,0,.49,0,.74,0H123.1a2.2,2.2,0,0,1,1.92,1.28l2.13,4.65a4.21,4.21,0,0,0,4,2.76h9.79a4.39,4.39,0,0,0,4-4.38V134.45h16.66v18.36a4.38,4.38,0,0,0,3.87,4.37h9.89a4.25,4.25,0,0,0,4-2.86c0,.12,2-4.45,2-4.45a2.25,2.25,0,0,1,1.95-1.36h26.33a8.21,8.21,0,0,1,.75,16.4H193a4,4,0,0,0-3.79,2.7l-2.05,4.5a2.14,2.14,0,0,1-2,1.42H169.08V187.7h16a2.08,2.08,0,0,1,2,1.3l2.12,4.67a4.21,4.21,0,0,0,4,2.64h16.38a8.21,8.21,0,0,1,.74,16.4h-.74Zm1.57-13.81H191.23s-1.92,0-2.39-1.2c0-.07-2.12-4.64-2.12-4.64-.58-1.69-2.84-2.75-4.58-2.75l-15.09,0c0-2.1-.08-16.94-.08-19.08h15.1c1.69,0,4-1.1,4.63-2.88l2-4.46c.52-1.28,2.39-1.27,2.39-1.27h19.95c2.76,0,4.94-2.53,4.94-5.71s-2.29-5.79-5.06-5.79H187c-.15,0-3.47,0-4.55,2.79.05-.07-2,4.51-2,4.51a3.18,3.18,0,0,1-2.63,1.4H161.19a2,2,0,0,1-1.79-1.86V136.94H147v20.89a2.05,2.05,0,0,1-1.87,1.86H128.66a3.31,3.31,0,0,1-2.6-1.29c0-.12-2.13-4.7-2.13-4.7-1-2.68-4.36-2.71-4.51-2.7H95.48c-2.83,0-5.06,2.59-5.06,5.78s2.18,5.72,4.94,5.72h19.91s1.92,0,2.4,1.22l2.11,4.64c.58,1.69,2.83,2.76,4.58,2.76h15.08c0,2.14-.06,17-.06,19.07l-15.09.06c-1.74,0-4,1.09-4.64,2.86l-2,4.46c-.51,1.29-2.38,1.29-2.38,1.29h-20c-2.77,0-5,2.53-5,5.71s2.28,5.78,5.1,5.78h23.94c.14,0,3.47,0,4.54-2.77l2.07-4.52a3.09,3.09,0,0,1,2.63-1.4h14.07a4.55,4.55,0,0,1,3.38,1.61,4.24,4.24,0,0,1,.94,2.78v20.2H114.31l2.65,2.28c9,7.79,23.81,13.23,36.16,13.23s27.37-5.43,36.28-13.22l2.66-2.28H159.45V206.11a4.34,4.34,0,0,1,.94-2.83,4.62,4.62,0,0,1,3.37-1.61h14.1a3.15,3.15,0,0,1,2.58,1.28c0,.12,2.13,4.69,2.13,4.69,1,2.67,4.37,2.71,4.52,2.71H211c2.81,0,5.06-2.59,5.11-5.78s-2.19-5.74-5-5.74Zm-.18,9H187.05c-.54,0-2.14-.26-2.54-1.3,0-.05-2.11-4.64-2.11-4.64-.59-1.69-2.84-2.76-4.58-2.77h-14.1a6.78,6.78,0,0,0-4.93,2.41,7.14,7.14,0,0,0-1.55,4.89v22.4H184.8c-8.7,6.18-21,10.41-31.68,10.4s-22.85-4.21-31.53-10.39h27.57V206a7.09,7.09,0,0,0-1.55-4.51,6.66,6.66,0,0,0-5-2.41H128.58c-1.75,0-4,1.11-4.63,2.87,0-.09-2,4.46-2,4.46-.43,1.1-2,1.36-2.58,1.37H95.41a3.09,3.09,0,0,1-2.89-3.24,2.9,2.9,0,0,1,2.74-3.17h19.88c.11,0,3.38.06,4.43-2.71,0,.08,2-4.5,2-4.5a3.21,3.21,0,0,1,2.67-1.43h17.29l.07-24.17-17.29,0c-1.11,0-2.39-.71-2.53-1.27-.07-.12-2.15-4.68-2.15-4.68-1.06-2.71-4.22-2.64-4.4-2.64H95.33a2.89,2.89,0,0,1-2.73-3.17,3.05,3.05,0,0,1,2.87-3.23h24c.52,0,2.14.26,2.53,1.29l2.11,4.64c.58,1.69,2.85,2.79,4.59,2.79h16.56a4.47,4.47,0,0,0,4-4.42V139.53h8.07v18.33a4.38,4.38,0,0,0,3.86,4.39h16.65c1.68,0,4-1.11,4.6-2.89,0,.11,2-4.46,2-4.46.42-1.11,2.05-1.35,2.59-1.36h23.92a3.1,3.1,0,0,1,2.91,3.24,2.9,2.9,0,0,1-2.74,3.16H191.19c-.11,0-3.31-.07-4.41,2.72,0-.08-2.05,4.49-2.05,4.49a3.14,3.14,0,0,1-2.63,1.4H164.79l.11,24.19h17.28a3.22,3.22,0,0,1,2.59,1.29l2.12,4.69c1.06,2.69,4.29,2.63,4.41,2.63h19.86a2.92,2.92,0,0,1,2.75,3.18,3.08,3.08,0,0,1-2.9,3.23ZM153.22,142h.29l-.23,0Zm-20.37-10.9h11.58l.25-.17c.06,0,5.06-3.38,8.71-3.38h-.11c3.67,0,8.53,3.38,8.55,3.38l.3.17h11.63c-.24-.85-.52-1.69-.73-2.53H162.7c-.84-.56-5.44-3.57-9.44-3.57h.13c-4,0-8.73,3-9.55,3.59H133.53C133.32,129.44,133.11,130.28,132.85,131.11ZM153,107.43l.29.1h0Zm-3.38,11.4a3.74,3.74,0,0,0,7.47.36v-.86l-2-10-.45-.41-1.25-.41-1.26.43-.63.19v.94l-1.85,9.36Zm3.74-7.64c.41,2.11,1.53,7.71,1.53,7.71,0,.58-.74,1.14-1.56,1.14a1.39,1.39,0,0,1-1.49-1.2s1-5.06,1.52-7.65m-6.1,2.44a4.69,4.69,0,1,0-4.7,4.68h0a4.72,4.72,0,0,0,4.67-4.68m-7.17,0a2.53,2.53,0,1,1,2.89,2.1,2.73,2.73,0,0,1-.41,0,2.36,2.36,0,0,1-2.48-2.13m28.73,0a4.68,4.68,0,1,0-4.68,4.68,4.68,4.68,0,0,0,4.68-4.68h0m-7.16,0a2.53,2.53,0,1,1,2.9,2.1,3,3,0,0,1-.42,0,2.36,2.36,0,0,1-2.48-2.13M118.9,98.53c-4.3,0-8.44,5.81-9.1,12.66l-.12,1.23,18.66,3.07V114C128.34,106.22,123.64,98.55,118.9,98.53Zm-6.63,11.74c.9-5.3,4-9.17,6.63-9.17,2.93,0,6.47,5.25,7.06,11.39C123.68,112.13,114.15,110.56,112.27,110.27ZM109.66,126l.11,1.22c.64,6.86,4.81,12.65,9.07,12.65,4.78,0,9.45-7.67,9.45-15.48V122.9l-1.26.21Zm9.18,11.3c-2.58,0-5.71-3.86-6.61-9.15l13.65-2.26c-.54,6.18-4.08,11.41-7,11.41m-7-13.76,11.61-2,1.27-.72c0-.05.41-1.45.41-1.45l.1-.43-.09.36-.46-1.38-1.26-.65-11.55-2.08h-.48a4.26,4.26,0,0,0,0,8.52Zm-2.47-4.22a1.89,1.89,0,0,1,2-1.68c.09,0,6.22,1.08,9.57,1.68L111.48,121a2,2,0,0,1-2.13-1.74m87.39-8.09c-.65-6.83-4.8-12.65-9.09-12.65-4.76,0-9.44,7.67-9.44,15.49v1.46l18.61-3Zm-16.11,1.32c.54-6.17,4.08-11.42,7-11.42,2.59,0,5.71,3.88,6.63,9.17C192.4,110.58,182.84,112.13,180.63,112.49Zm7.07,27.38c4.26,0,8.43-5.79,9.06-12.65l.11-1.22-18.61-3.06v1.48c0,7.81,4.7,15.47,9.47,15.48m6.56-11.74c-.84,5.3-4,9.16-6.6,9.16-2.95,0-6.48-5.23-7-11.4l13.63,2.24m.8-13.07h-.37l-11.6,2.11-1.2.64-.59,1.81.13-.35.42,1.49,1.3.68,11.54,2.09h.47a4.26,4.26,0,0,0,0-8.52Zm2.1,4.22a1.93,1.93,0,0,1-2,1.69c-.1,0-6.26-1.11-9.6-1.69,2.84-.52,9.45-1.69,9.45-1.69a2,2,0,0,1,2.15,1.71ZM132.84,71.15h-11.1a3.3,3.3,0,0,0-3,3.43c0,2,1.37,3.68,3,3.68,10.36.85,15,3.26,14.87,7.86,0,.22,1.25,9.71,1.25,9.71l.13,1.1H146l-1.06-17.71C144.89,71.15,136.44,71.15,132.84,71.15Zm6.91,23.23-1-8.44v-.2c0-8.68-11.92-9.64-17-10-.45,0-.84-.59-.84-1.13a.85.85,0,0,1,.84-.85h11.1c6.9,0,9.84,1.69,9.83,5.53,0,0,.79,12.84.9,15.14ZM185,78.25c1.5,0,2.87-1.68,2.87-3.67a3.28,3.28,0,0,0-3-3.38H173.78c-3.61,0-12.07,0-12.07,8.08,0,0-1,16.34-1,16.34L160.66,97h8.09l1.33-10.63c-.1-4.81,4.51-7.24,15-8.08M167.88,86v.22s-.74,5.91-1,8.2h-3.78c.13-2.31.91-15.15.91-15.15-.07-3.86,2.89-5.55,9.82-5.55H184.9a.85.85,0,0,1,.85.85c0,.53-.39,1.13-.75,1.13-5.21.45-17.12,1.4-17.12,10.3Z"/><rect class="cls-2" x="152.58" y="41.17" width="0.84" height="46.79"/><rect class="cls-2" x="153.58" y="52.45" width="23.76" height="0.84" transform="translate(84.77 206.69) rotate(-80.04)"/><rect class="cls-2" x="171.08" y="53.44" width="14.42" height="0.84" transform="translate(64.65 201.42) rotate(-69.21)"/><rect class="cls-2" x="186.79" y="56.31" width="9.31" height="0.84" transform="translate(37.56 183.97) rotate(-56.09)"/><rect class="cls-2" x="195.98" y="63.46" width="9.29" height="0.84" transform="translate(13.59 160.57) rotate(-45)"/><rect class="cls-2" x="190.89" y="78.92" width="26.59" height="0.84" transform="translate(-2.76 151.18) rotate(-40.38)"/><rect class="cls-2" x="202.04" y="88.08" width="23.15" height="0.84" transform="translate(-13.77 130.46) rotate(-32.96)"/><rect class="cls-2" x="205.53" y="98.74" width="23.83" height="0.84" transform="translate(-21.22 86.76) rotate(-21.54)"/><rect class="cls-2" x="206.02" y="110.9" width="27.1" height="0.84" transform="translate(-17.83 46.15) rotate(-11.53)"/><rect class="cls-2" x="206.36" y="121.46" width="26.54" height="0.84"/><rect class="cls-2" x="206.36" y="134.6" width="26.54" height="0.84"/><rect class="cls-2" x="220.87" y="146.64" width="12.04" height="0.84"/><rect class="cls-2" x="224.43" y="159.77" width="8.48" height="0.84"/><rect class="cls-2" x="194.06" y="172.64" width="38.86" height="0.84"/><rect class="cls-2" x="194.06" y="185.49" width="38.86" height="0.84"/><rect class="cls-2" x="223.33" y="197.81" width="9.57" height="0.84"/><rect class="cls-2" x="224.34" y="207.49" width="0.84" height="8.57" transform="translate(-61.19 328.38) rotate(-65.48)"/><rect class="cls-2" x="217.98" y="216.59" width="0.84" height="11.69" transform="translate(-86.63 286.75) rotate(-57.43)"/><rect class="cls-2" x="207.72" y="222.04" width="0.84" height="17.81" transform="translate(-101.92 208.05) rotate(-43.75)"/><rect class="cls-2" x="198.7" y="232.56" width="0.84" height="16.16" transform="translate(-106.86 177.92) rotate(-38.81)"/><rect class="cls-2" x="189.81" y="239.6" width="0.84" height="15.44" transform="translate(-97.65 126.99) rotate(-29.75)"/><rect class="cls-2" x="177.87" y="246.42" width="0.84" height="13.59" transform="translate(-82.4 86.05) rotate(-22.18)"/><polygon class="cls-2" points="167.09 263.97 165.04 250.55 165.88 250.43 167.93 263.84 167.09 263.97"/><rect class="cls-2" x="152.58" y="251.59" width="0.84" height="14.23"/><rect class="cls-2" x="152.48" y="41.17" width="0.84" height="46.79"/><rect class="cls-2" x="140.04" y="40.99" width="0.84" height="23.76" transform="translate(-7.02 25.06) rotate(-9.95)"/><rect class="cls-2" x="127.21" y="46.65" width="0.84" height="14.42" transform="translate(-10.81 48.93) rotate(-20.84)"/><rect class="cls-2" x="114.04" y="52.08" width="0.84" height="9.31" transform="translate(-12.18 73.53) rotate(-33.92)"/><rect class="cls-2" x="104.88" y="59.23" width="0.84" height="9.29" transform="translate(-14.33 93.17) rotate(-45)"/><rect class="cls-2" x="101.32" y="66.05" width="0.84" height="26.59" transform="translate(-24.63 105.38) rotate(-49.59)"/><rect class="cls-2" x="91.88" y="76.93" width="0.84" height="23.15" transform="translate(-32.17 117.84) rotate(-57.06)"/><rect class="cls-2" x="88.05" y="87.26" width="0.84" height="23.83" transform="translate(-36.28 145.01) rotate(-68.44)"/><rect class="cls-2" x="85.86" y="97.23" width="0.84" height="27.1" transform="translate(-39.51 173.17) rotate(-78.47)"/><rect class="cls-2" x="73.01" y="121.46" width="26.54" height="0.84"/><rect class="cls-2" x="73.01" y="134.6" width="26.54" height="0.84"/><rect class="cls-2" x="73.01" y="146.64" width="12.04" height="0.84"/><rect class="cls-2" x="73.01" y="159.77" width="8.48" height="0.84"/><rect class="cls-2" x="73.01" y="172.64" width="38.86" height="0.84"/><rect class="cls-2" x="73.01" y="185.49" width="38.86" height="0.84"/><rect class="cls-2" x="73.01" y="197.81" width="9.57" height="0.84"/><rect class="cls-2" x="76.87" y="211.35" width="8.57" height="0.84" transform="translate(-80.57 52.78) rotate(-24.52)"/><rect class="cls-2" x="81.67" y="222.02" width="11.69" height="0.84" transform="translate(-105.94 82.03) rotate(-32.55)"/><rect class="cls-2" x="88.87" y="230.5" width="17.81" height="0.84" transform="translate(-136.73 142.07) rotate(-46.3)"/><rect class="cls-2" x="98.73" y="240.22" width="16.16" height="0.84" transform="translate(-147.63 172.96) rotate(-51.17)"/><rect class="cls-2" x="107.98" y="246.92" width="15.44" height="0.84" transform="translate(-156.46 225.1) rotate(-60.26)"/><rect class="cls-2" x="120.83" y="252.8" width="13.59" height="0.84" transform="translate(-155.03 275.96) rotate(-67.85)"/><polygon class="cls-2" points="138.82 263.97 137.99 263.84 140.04 250.43 140.88 250.55 138.82 263.97"/><rect class="cls-2" x="152.48" y="251.59" width="0.84" height="14.23"/></g></g><circle cx="153.19" cy="153.19" r="153.19"/><path d="M475.19,102.07c92.2,3.11,162.09,44.92,210,123.31,23.78,38.9,35.08,81.7,33.69,127.54-.74,24.48-7.87,47.51-16.28,70.19-20.1,54.19-48.77,104-79.43,152.67-38.51,61.15-80.75,119.67-125.51,176.39-1.42,1.8-2.84,3.62-4.35,5.35-9.78,11.17-26.27,11.36-35.58-.28C389.51,672,325.64,583.85,275.49,486.49c-14.76-28.65-27.35-58.27-36-89.4-14-50.24-8.27-99.26,12.46-146.11,35-79.1,95.56-127.61,180.55-144.94A187.13,187.13,0,0,1,475.19,102.07Z"/><path class="cls-1" d="M668.41,346.42c-.1,106.69-86.1,192.18-193.26,192.12-107.38-.06-192.57-86-192.39-194.17.17-106.51,86.34-191.62,193.85-191.48C583.31,153,668.52,239,668.41,346.42Z"/><g id="Capa_2-3" data-name="Capa 2"><g id="Capa_1-2-3" data-name="Capa 1-2"><path class="cls-2" d="M82.14,108.54v89.3c0,28.34,31.88,51.35,71,51.35s71.06-23,71.06-51.35v-89.3c0-28.34-31.88-51.35-71.06-51.35S82.14,80.22,82.14,108.54Zm1.93,89.3v-89.3c0-27.25,31-49.42,69.11-49.41s69.13,22.16,69.13,49.41v89.3c0,27.25-31,49.41-69.13,49.41S84.07,225.09,84.07,197.84Z"/><path class="cls-2" d="M198.34,185.61l-13.12,0a1.78,1.78,0,0,1-1.6-1l-1.7-3.7a3.38,3.38,0,0,0-3.16-2.22H167.67v-7.26h11.09a3.41,3.41,0,0,0,3.2-2.29c0,.08,1.64-3.57,1.64-3.57a1.52,1.52,0,0,1,1.43-1h13.3a8.6,8.6,0,0,0,0-17.2h-21a3.44,3.44,0,0,0-3.17,2.23l-1.64,3.6a1.68,1.68,0,0,1-1.6,1.12H163a1.58,1.58,0,0,1-1.41-1.45V142.56l1.35-.26c.84-.15,5.48-.18,9.87-.14,2.19,3.06,4.93,4.88,7.95,4.88,6,0,11.22-7.35,12.37-17.48l-.31.67c1-1.1,1-9.06-.88-15.28-2.08-6.94-5.89-10.88-11.09-11.4a8.89,8.89,0,0,0-6,2.6h-5.57L170,101V101c0-3,4.94-3.69,5-3.71h0c5.92,0,9.39-2.7,9.39-7.33,0-6.38-6.75-6.38-9.62-6.38h-8.53c-5.61,0-9.51,3.37-9.51,8.26,0,0-.68,11-.87,14.29h-5.08c-.09-1.66-.86-14.32-.86-14.32,0-4.83-3.91-8.23-9.52-8.23h-8.53c-2.89,0-9.6,0-9.6,6.38,0,4.66,3.47,7.35,9.52,7.35,0,0,4.89.75,4.89,3.51v.06c0,.13.42,3.46.64,5.28h-5.55a8.69,8.69,0,0,0-6-2.6c-5.29.52-9.12,4.46-11.21,11.38-1.86,6.22-1.93,14.17-.89,15.29l-.31-.68c1.14,10.13,6.35,17.48,12.36,17.48,3,0,5.78-1.83,7.95-4.88,4.39,0,9,0,9.74.14.05,0,.67.09,1.35.23v-2l-1.22-.25c-.67-.13-4.14-.15-8.62-.12a31.73,31.73,0,0,0,3.37-14.85,34.15,34.15,0,0,0-1.69-10.8h33.3a34.73,34.73,0,0,0-1.69,10.8,31.93,31.93,0,0,0,3.38,14.82c-4.51,0-8,0-8.78.14,0,0-.5.12-1.18.23v-4.31H144.73v16.74a1.6,1.6,0,0,1-1.45,1.48h-7.74a1.63,1.63,0,0,1-1.59-1l-1.71-3.76a3.36,3.36,0,0,0-3.12-2.16H108.05a8.6,8.6,0,0,0,0,17.2h13.31a1.51,1.51,0,0,1,1.41,1l1.69,3.71a3.36,3.36,0,0,0,3.18,2.2l11.08,0v7.25H127.65a3.45,3.45,0,0,0-3.22,2.3l-1.62,3.56a1.81,1.81,0,0,1-1.61,1.05l-13.14,0a8.6,8.6,0,0,0,0,17.19h21.07a3.46,3.46,0,0,0,3.15-2.22l1.63-3.6a1.94,1.94,0,0,1,1.82-1h7.63a1.52,1.52,0,0,1,1.42,1.39v10.39H116l.68,1.48c5.06,11.47,25,18.83,36.58,18.83h-.24c11.59,0,31.65-7.33,36.67-18.81l.68-1.47H161.64V197.4a1.55,1.55,0,0,1,1.49-1.39h7.55a2,2,0,0,1,1.76.88c0,.09,1.7,3.75,1.7,3.75a3.37,3.37,0,0,0,3.12,2.16h21.08a8.6,8.6,0,1,0,0-17.19ZM125.71,145c-5,0-9.59-6.75-10.62-15.71v-.14l-.08-.25c-.42-1.1-.62-10.71,2.8-17.28,1.91-3.68,4.6-5.72,8-6.08,5.13,0,10.8,7.56,10.8,19.72S130.91,145,125.71,145Zm10.12-32.56a21.15,21.15,0,0,0-2.4-4.28h5.79l-.91-7.42v-.14c0-4.45-6.28-5.33-6.56-5.35-3,0-7.86-.68-7.86-5.31,0-3.08,2.3-4.34,7.86-4.34h8.54c3.74,0,7.77,1.94,7.77,6.22l1,16.33h8.37l1-16.33c0-4.29,4-6.22,7.74-6.22h8.54c5.57,0,7.86,1.26,7.86,4.33,0,4.61-4.87,5.3-7.75,5.3-.38,0-6.67.92-6.67,5.54v.15l-.76,6.08-.14,1.16H173a21,21,0,0,0-2.41,4.26Zm34.1,12.82c0-12.15,5.61-19.71,10.8-19.71,3.32.33,6,2.36,7.93,6,3.4,6.55,3.2,16.19,2.8,17.29l-.06.13-.06.25c-1,9-5.57,15.71-10.61,15.71S170,137.5,170,125.31Zm28.38,75.46h-21a1.77,1.77,0,0,1-1.55-1c0-.06-1.68-3.73-1.68-3.73a3.63,3.63,0,0,0-3.38-2.13h-7.62a3.48,3.48,0,0,0-3.18,3.44v12.43h27.34c-5.4,9.1-22.46,16.2-34.19,16.2l.24,0c-11.94,0-28.65-7-34.08-16.23h27.32l0-12.44a3.43,3.43,0,0,0-3.1-3.42h-7.71a3.6,3.6,0,0,0-3.37,2.22c0-.09-1.64,3.58-1.64,3.58a1.79,1.79,0,0,1-1.57,1.08H108.05a6.57,6.57,0,1,1-.6-13.12h.6l13.12,0a3.4,3.4,0,0,0,3.2-2.18c0,.06,1.65-3.59,1.65-3.59a1.71,1.71,0,0,1,1.62-1.13h12.82V169.44H127.64a1.68,1.68,0,0,1-1.58-1l-1.71-3.76a3.18,3.18,0,0,0-3-2.09H108.05a6.57,6.57,0,1,1-.6-13.12q.3,0,.6,0h21.07a1.76,1.76,0,0,1,1.54,1l1.7,3.72a3.36,3.36,0,0,0,3.17,2.2h7.83a3.52,3.52,0,0,0,3.18-3.5V138.2h13.32v14.69a3.49,3.49,0,0,0,3.1,3.49h7.91a3.39,3.39,0,0,0,3.2-2.28c0,.09,1.64-3.57,1.64-3.57a1.76,1.76,0,0,1,1.55-1.08h21.07a6.57,6.57,0,1,1,.59,13.12H185.05a3.21,3.21,0,0,0-3,2.16l-1.64,3.59a1.7,1.7,0,0,1-1.62,1.14H165.9v11.33h12.82a1.68,1.68,0,0,1,1.58,1.05l1.7,3.73a3.35,3.35,0,0,0,3.21,2.11h13.1a6.57,6.57,0,1,1,.59,13.12h-.59Zm1.26-11H183.62s-1.54,0-1.91-1c0-.06-1.69-3.72-1.69-3.72-.47-1.35-2.28-2.2-3.67-2.19l-12.07-.05c0-1.68-.07-13.55-.07-15.26h12.08a4.16,4.16,0,0,0,3.71-2.3l1.61-3.57c.42-1,1.92-1,1.92-1h16c2.21,0,3.95-2,3.95-4.57s-1.83-4.63-4.05-4.63H180.21c-.12,0-2.78,0-3.64,2.23l-1.64,3.61a2.54,2.54,0,0,1-2.11,1.12H159.59a1.62,1.62,0,0,1-1.43-1.49V140.19h-10V156.9a1.62,1.62,0,0,1-1.49,1.49H133.57a2.6,2.6,0,0,1-2.08-1c0-.1-1.71-3.76-1.71-3.76-.82-2.14-3.49-2.17-3.6-2.16H107a4.35,4.35,0,0,0-4,4.62c0,2.55,1.74,4.58,4,4.58h15.93s1.53,0,1.91,1l1.7,3.72c.45,1.35,2.26,2.2,3.65,2.2h12.07c0,1.72-.05,13.59-.05,15.26l-12.07.05a4.11,4.11,0,0,0-3.71,2.29l-1.63,3.56c-.4,1-1.9,1-1.9,1h-16c-2.22,0-4,2-4,4.57a4.38,4.38,0,0,0,4.08,4.63h19.15c.11,0,2.78,0,3.63-2.22l1.66-3.62a2.48,2.48,0,0,1,2.1-1.12h11.26a3.71,3.71,0,0,1,2.7,1.29,3.4,3.4,0,0,1,.75,2.23v16.16H122.09l2.12,1.83c7.16,6.22,19,10.58,28.93,10.58s21.89-4.35,29-10.58l2.13-1.83H158.2V195.53a3.45,3.45,0,0,1,.75-2.27,3.71,3.71,0,0,1,2.7-1.29h11.28a2.52,2.52,0,0,1,2.06,1c0,.09,1.71,3.75,1.71,3.75.81,2.14,3.49,2.17,3.61,2.17h19.14c2.25,0,4.05-2.08,4.09-4.63a4.25,4.25,0,0,0-4-4.59Zm-.15,7.19H180.27c-.43,0-1.7-.2-2-1,0-.05-1.69-3.72-1.69-3.72a4.05,4.05,0,0,0-3.66-2.21H161.61a5.36,5.36,0,0,0-3.94,1.93,5.67,5.67,0,0,0-1.24,3.9v17.93h22c-7,4.94-16.81,8.33-25.34,8.32a46.35,46.35,0,0,1-25.23-8.31H150V195.47a5.59,5.59,0,0,0-1.25-3.61,5.34,5.34,0,0,0-3.95-1.93H133.51a4.1,4.1,0,0,0-3.71,2.3c0-.07-1.63,3.57-1.63,3.57-.35.88-1.64,1.08-2.07,1.09H107a2.47,2.47,0,0,1-2.32-2.59,2.32,2.32,0,0,1,2.2-2.53h15.9c.09,0,2.7,0,3.54-2.18,0,.07,1.63-3.59,1.63-3.59a2.52,2.52,0,0,1,2.14-1.14h13.82l.07-19.35-13.84,0c-.88,0-1.91-.57-2-1-.06-.09-1.73-3.74-1.73-3.74-.84-2.17-3.37-2.12-3.51-2.12H106.9a2.32,2.32,0,0,1-2.19-2.53,2.46,2.46,0,0,1,2.31-2.58h19.16c.41,0,1.7.2,2,1l1.69,3.71c.46,1.35,2.28,2.23,3.67,2.23h13.25a3.58,3.58,0,0,0,3.18-3.54V142.26h6.45v14.66a3.53,3.53,0,0,0,3.1,3.52h13.31a4.12,4.12,0,0,0,3.69-2.32c0,.09,1.64-3.57,1.64-3.57.33-.88,1.64-1.07,2.07-1.08h19.13a2.47,2.47,0,0,1,2.33,2.59,2.32,2.32,0,0,1-2.19,2.53H183.59a3.77,3.77,0,0,0-3.52,2.17c0-.06-1.65,3.6-1.65,3.6a2.51,2.51,0,0,1-2.1,1.11H162.47l.09,19.36h13.82a2.54,2.54,0,0,1,2.07,1l1.7,3.76c.85,2.15,3.43,2.1,3.53,2.1h15.89a2.34,2.34,0,0,1,2.2,2.54,2.46,2.46,0,0,1-2.32,2.58Zm-46.21-52.64h.24l-.19,0Zm-16.29-8.72h9.27l.19-.14c.05,0,4.05-2.7,7-2.7h-.09c2.94,0,6.83,2.7,6.84,2.7l.24.13h9.31c-.19-.67-.42-1.35-.59-2H160.8c-.68-.45-4.36-2.85-7.55-2.85h.1c-3.2,0-7,2.43-7.64,2.87h-8.25Q137.22,134.52,136.92,135.53Zm16.08-19,.24.08h0Zm-2.7,9.12a3,3,0,0,0,6,.29v-.69l-1.6-8-.36-.33-1-.33-1,.35-.5.15v.75l-1.49,7.49Zm3-6.11c.33,1.69,1.23,6.17,1.23,6.17,0,.46-.59.91-1.25.91a1.11,1.11,0,0,1-1.19-1s.78-4,1.21-6.12m-4.88,2a3.75,3.75,0,1,0-3.76,3.74h0a3.75,3.75,0,0,0,3.74-3.74m-5.73,0a2,2,0,1,1,2.31,1.68,1.84,1.84,0,0,1-.33,0,1.9,1.9,0,0,1-2-1.71m23,0a3.75,3.75,0,1,0-3.74,3.74,3.74,3.74,0,0,0,3.74-3.74h0m-5.73,0a2,2,0,1,1,2.32,1.68,1.84,1.84,0,0,1-.33,0,1.89,1.89,0,0,1-2-1.71m-34.17-12.07c-3.44,0-6.75,4.64-7.28,10.12l-.1,1L133.31,123v-1.17C133.31,115.61,129.55,109.48,125.76,109.47Zm-5.31,9.38c.72-4.23,3.23-7.33,5.31-7.33,2.34,0,5.17,4.2,5.65,9.11Zm-2.08,12.58.09,1c.51,5.49,3.84,10.13,7.25,10.13,3.83,0,7.56-6.14,7.56-12.39V129l-1,.17Zm7.34,9c-2.07,0-4.57-3.09-5.28-7.32l10.91-1.8c-.43,4.94-3.26,9.12-5.63,9.12m-5.61-11,9.28-1.64,1-.57s.32-1.16.32-1.16l.09-.35-.08.29-.36-1.1-1-.52-9.23-1.67h-.39a3.41,3.41,0,0,0,0,6.82Zm-2-3.37a1.51,1.51,0,0,1,1.61-1.35c.07,0,5,.87,7.66,1.35l-7.56,1.35a1.57,1.57,0,0,1-1.71-1.39M188,119.58c-.52-5.47-3.84-10.13-7.27-10.13-3.81,0-7.55,6.14-7.55,12.39V123l14.89-2.45Zm-12.89,1c.44-4.94,3.27-9.13,5.62-9.13,2.07,0,4.57,3.09,5.3,7.33C184.56,119.1,176.91,120.34,175.14,120.63Zm5.65,21.91c3.42,0,6.75-4.64,7.26-10.13l.09-1L173.25,129v1.18c0,6.25,3.76,12.38,7.57,12.39m5.25-9.39c-.67,4.24-3.21,7.33-5.28,7.33-2.36,0-5.19-4.19-5.62-9.13l10.9,1.8m.64-10.46h-.29l-9.28,1.69-1,.51-.48,1.45.11-.28.33,1.19,1,.55,9.24,1.66h.37a3.41,3.41,0,0,0,0-6.81Zm1.68,3.38a1.53,1.53,0,0,1-1.6,1.35c-.08,0-5-.89-7.68-1.35,2.27-.42,7.56-1.35,7.56-1.35a1.57,1.57,0,0,1,1.72,1.36ZM136.91,87.56H128a2.63,2.63,0,0,0-2.43,2.75c0,1.56,1.1,2.94,2.36,2.94,8.29.67,12,2.6,11.9,6.29,0,.17,1,7.76,1,7.76l.11.88h6.47L146.58,94C146.55,87.56,139.79,87.56,136.91,87.56Zm5.53,18.58-.83-6.75v-.16c0-7-9.53-7.71-13.58-8-.36,0-.67-.47-.67-.9a.68.68,0,0,1,.67-.68h8.88c5.52,0,7.87,1.35,7.87,4.42,0,0,.62,10.28.72,12.12Zm36.21-12.9c1.19,0,2.29-1.35,2.29-2.94a2.61,2.61,0,0,0-2.41-2.7h-8.87c-2.88,0-9.65,0-9.65,6.46,0,0-.79,13.08-.79,13.08l-.06,1.08h6.48l1.06-8.51c-.08-3.85,3.61-5.79,12-6.46m-13.74,6.16v.18l-.82,6.55h-3c.11-1.84.73-12.12.73-12.12-.05-3.09,2.31-4.44,7.86-4.44h8.87a.69.69,0,0,1,.68.68c0,.43-.32.9-.61.9-4.16.37-13.69,1.12-13.69,8.24Z"/><rect class="cls-2" x="152.71" y="63.57" width="0.67" height="37.43"/><rect class="cls-2" x="153.5" y="72.6" width="19" height="0.67" transform="translate(62.98 220.87) rotate(-80.04)"/><rect class="cls-2" x="167.5" y="73.39" width="11.53" height="0.67" transform="translate(42.84 209.55) rotate(-69.21)"/><rect class="cls-2" x="180.07" y="75.69" width="7.45" height="0.67" transform="translate(18.16 186.15) rotate(-56.09)"/><rect class="cls-2" x="187.42" y="81.41" width="7.43" height="0.67" transform="translate(-1.82 159.1) rotate(-45)"/><rect class="cls-2" x="183.35" y="93.77" width="21.27" height="0.67" transform="translate(-14.75 148.09) rotate(-40.38)"/><rect class="cls-2" x="192.27" y="101.1" width="18.52" height="0.67" transform="translate(-22.75 125.97) rotate(-32.96)"/><rect class="cls-2" x="195.06" y="109.63" width="19.07" height="0.67" transform="translate(-26.09 82.8) rotate(-21.54)"/><rect class="cls-2" x="195.45" y="119.36" width="21.68" height="0.68" transform="translate(-19.77 43.67) rotate(-11.53)"/><rect class="cls-2" x="195.73" y="127.81" width="21.23" height="0.67"/><rect class="cls-2" x="195.73" y="138.32" width="21.23" height="0.67"/><rect class="cls-2" x="207.33" y="147.95" width="9.63" height="0.67"/><rect class="cls-2" x="210.18" y="158.46" width="6.78" height="0.67"/><rect class="cls-2" x="185.88" y="168.75" width="31.09" height="0.67"/><rect class="cls-2" x="185.88" y="179.03" width="31.09" height="0.67"/><rect class="cls-2" x="209.3" y="188.89" width="7.66" height="0.67"/><rect class="cls-2" x="210.11" y="196.63" width="0.67" height="6.86" transform="translate(-58.9 308.5) rotate(-65.48)"/><rect class="cls-2" x="205.02" y="203.91" width="0.67" height="9.35" transform="translate(-80.98 269.36) rotate(-57.43)"/><rect class="cls-2" x="196.81" y="208.27" width="0.67" height="14.25" transform="translate(-94.21 196.13) rotate(-43.75)"/><rect class="cls-2" x="189.6" y="216.69" width="0.67" height="12.92" transform="translate(-97.93 168.3) rotate(-38.81)"/><rect class="cls-2" x="182.48" y="222.32" width="0.67" height="12.35" transform="translate(-89.29 120.83) rotate(-29.75)"/><rect class="cls-2" x="172.93" y="227.78" width="0.67" height="10.87" transform="translate(-75.22 82.67) rotate(-22.18)"/><polygon class="cls-2" points="164.31 241.81 162.67 231.08 163.34 230.98 164.98 241.71 164.31 241.81"/><rect class="cls-2" x="152.71" y="231.91" width="0.67" height="11.39"/><rect class="cls-2" x="152.62" y="63.57" width="0.67" height="37.43"/><rect class="cls-2" x="142.67" y="63.43" width="0.67" height="19" transform="translate(-10.45 25.81) rotate(-9.95)"/><rect class="cls-2" x="132.41" y="67.96" width="0.67" height="11.53" transform="translate(-17.55 52.05) rotate(-20.84)"/><rect class="cls-2" x="121.87" y="72.31" width="0.67" height="7.45" transform="translate(-21.63 81.14) rotate(-33.92)"/><rect class="cls-2" x="114.54" y="78.02" width="0.67" height="7.43" transform="translate(-24.15 105.17) rotate(-45)"/><rect class="cls-2" x="111.69" y="83.48" width="0.67" height="21.27" transform="translate(-32.25 118.41) rotate(-49.59)"/><rect class="cls-2" x="104.14" y="92.19" width="0.67" height="18.52" transform="translate(-37.47 133.96) rotate(-57.06)"/><rect class="cls-2" x="101.07" y="100.45" width="0.67" height="19.07" transform="translate(-38.14 163.88) rotate(-68.44)"/><rect class="cls-2" x="99.33" y="108.42" width="0.68" height="21.68" transform="translate(-37.12 193.07) rotate(-78.47)"/><rect class="cls-2" x="89.04" y="127.81" width="21.23" height="0.67"/><rect class="cls-2" x="89.04" y="138.32" width="21.23" height="0.67"/><rect class="cls-2" x="89.04" y="147.95" width="9.63" height="0.67"/><rect class="cls-2" x="89.04" y="158.46" width="6.78" height="0.67"/><rect class="cls-2" x="89.04" y="168.75" width="31.09" height="0.67"/><rect class="cls-2" x="89.04" y="179.03" width="31.09" height="0.67"/><rect class="cls-2" x="89.04" y="188.89" width="7.66" height="0.67"/><rect class="cls-2" x="92.14" y="199.72" width="6.86" height="0.67" transform="translate(-74.41 57.7) rotate(-24.52)"/><rect class="cls-2" x="95.97" y="208.25" width="9.35" height="0.67" transform="translate(-96.42 86.92) rotate(-32.55)"/><rect class="cls-2" x="101.74" y="215.04" width="14.25" height="0.67" transform="translate(-122.06 145.28) rotate(-46.3)"/><rect class="cls-2" x="109.62" y="222.82" width="12.92" height="0.67" transform="translate(-130.54 173.66) rotate(-51.17)"/><rect class="cls-2" x="117.02" y="228.17" width="12.35" height="0.67" transform="translate(-136.33 222.13) rotate(-60.26)"/><rect class="cls-2" x="127.31" y="232.88" width="10.87" height="0.67" transform="translate(-133.31 268.23) rotate(-67.85)"/><polygon class="cls-2" points="141.7 241.81 141.03 241.71 142.67 230.98 143.34 231.08 141.7 241.81"/><rect class="cls-2" x="152.62" y="231.91" width="0.67" height="11.39"/></g></g><polygon class="cls-3" points="324.98 366.64 317.17 366.64 317.17 313.18 324.98 313.18 324.98 335.11 356.37 335.11 356.37 313.18 364.18 313.18 364.18 366.64 356.37 366.64 356.37 343.01 324.98 343.01 324.98 366.64"/><polygon class="cls-3" points="535.61 351.73 517.48 329.88 517.48 366.64 509.81 366.64 509.81 320.7 503.58 313.18 513.68 313.18 535.54 339.4 557.68 313.18 567.79 313.18 561.55 320.7 561.55 366.64 553.88 366.64 553.88 329.88 535.61 351.73"/><polygon class="cls-3" points="601.04 358.76 634 358.76 634 366.64 593.23 366.64 593.23 313.18 630.85 313.18 630.85 321.06 601.04 321.06 601.04 335.07 622.82 335.07 622.82 343.1 601.04 343.1 601.04 358.76"/><path class="cls-3" d="M477.67,338.47a7.19,7.19,0,0,1-4.25-2,4.55,4.55,0,0,1-1.31-3.12,19.17,19.17,0,0,1,.67-4.09,20.75,20.75,0,0,0,.63-4.71,11.4,11.4,0,0,0-3.35-8,13.16,13.16,0,0,0-8.22-4.09l-1.19-.14v3l.81.2c3.87,1,5.75,2.91,5.75,6a21.85,21.85,0,0,1-.49,4,26.11,26.11,0,0,0-.64,5,9.71,9.71,0,0,0,2.41,6.35,13.76,13.76,0,0,0,4.09,3.29,15.15,15.15,0,0,0-3.87,2.95,9.27,9.27,0,0,0-2.6,6.55,27,27,0,0,0,.61,5.05,21.56,21.56,0,0,1,.49,4.06,5.61,5.61,0,0,1-1.39,3.64,6.56,6.56,0,0,1-4.27,2.13l-.9.13v3.19l1.19-.14a13.5,13.5,0,0,0,8.21-4,11.36,11.36,0,0,0,3.41-8.14,20.45,20.45,0,0,0-.68-4.83,19.94,19.94,0,0,1-.65-4.08,4.14,4.14,0,0,1,1.47-3.07,7.57,7.57,0,0,1,4.06-1.88l.89-.14v-2.9Z"/><path class="cls-3" d="M396,338.34a7.25,7.25,0,0,0,4.26-2,4.56,4.56,0,0,0,1.31-3.12,19.6,19.6,0,0,0-.68-4.09,21.26,21.26,0,0,1-.62-4.7,11.39,11.39,0,0,1,3.34-8,13.15,13.15,0,0,1,8.23-4.08l1.18-.15v3l-.8.2c-3.87.95-5.76,2.91-5.76,6a21.75,21.75,0,0,0,.49,4,25.47,25.47,0,0,1,.65,5,9.7,9.7,0,0,1-2.42,6.35,13.51,13.51,0,0,1-4.09,3.29,14.8,14.8,0,0,1,3.87,3,9.25,9.25,0,0,1,2.61,6.55,27.22,27.22,0,0,1-.62,5.05,21.47,21.47,0,0,0-.49,4.06,5.65,5.65,0,0,0,1.39,3.64,6.56,6.56,0,0,0,4.27,2.12l.9.14v3.18l-1.19-.14a13.47,13.47,0,0,1-8.21-4,11.34,11.34,0,0,1-3.41-8.14,20.38,20.38,0,0,1,.68-4.82,20,20,0,0,0,.65-4.09,4.1,4.1,0,0,0-1.47-3.07,7.48,7.48,0,0,0-4.06-1.87l-.89-.15v-2.9Z"/><path class="cls-3" d="M387.82,254.47l5.74-4.57a4.76,4.76,0,0,1,2.33-1,4.92,4.92,0,0,1,2.52.3,4.83,4.83,0,0,1,2.06,1.51,4.64,4.64,0,0,1,1,3.35,4.88,4.88,0,0,1,5.19,4.18,4.86,4.86,0,0,1-.29,2.53,4.8,4.8,0,0,1-1.51,2.05l-6.4,5.08Zm10.31,1.18A2.31,2.31,0,0,0,399,254a2.39,2.39,0,0,0-2.11-2.66,2.31,2.31,0,0,0-1.76.5l-3.77,3,3,3.77Zm5.19,5.19a2.28,2.28,0,0,0,.89-1.6,2.39,2.39,0,0,0-2.11-2.66,2.35,2.35,0,0,0-1.77.5l-4.41,3.51,3,3.76Z"/><path class="cls-3" d="M421.78,250.87a7.14,7.14,0,0,1-3.45-1.22,6.9,6.9,0,0,1-2.41-2.8l-4.35-9.06,2.25-1.08,4.35,9a4.56,4.56,0,0,0,3.79,2.59,4.4,4.4,0,0,0,2.36-.45,4.47,4.47,0,0,0,1.81-1.55,4.77,4.77,0,0,0,.8-2.25,4.4,4.4,0,0,0-.43-2.34l-4.35-9,2.25-1.09,4.35,9.06a7,7,0,0,1,.68,3.62,7,7,0,0,1-1.22,3.48,6.9,6.9,0,0,1-2.79,2.4A7,7,0,0,1,421.78,250.87Z"/><path class="cls-3" d="M440.19,226.24l7.34-1.63a5.27,5.27,0,0,1,2.87.14,5.85,5.85,0,0,1,2.41,1.53A5.52,5.52,0,0,1,454,231.8a5.76,5.76,0,0,1-1.66,2.45l4.19,5.95-2.65.59L450,235.38l-5,1.12,1.32,5.95-2.44.54Zm9.19,6.73a2.85,2.85,0,0,0,1.9-1.33,3,3,0,0,0,.4-2.27,3,3,0,0,0-3.6-2.29l-4.91,1.08,1.31,5.9Z"/><path class="cls-3" d="M471.91,237.62a8.83,8.83,0,0,1-3.09-3.19,8.5,8.5,0,0,1,.14-8.64,8.52,8.52,0,0,1,3.19-3.09,8.33,8.33,0,0,1,4.33-1.09,8.72,8.72,0,0,1,6.88,3.56l-2.06,1.51a6.08,6.08,0,0,0-4.86-2.54,6,6,0,0,0-3.08.76,6.06,6.06,0,0,0-2.25,2.19,6.11,6.11,0,0,0,9.48,7.53l0-2-3.39-.06,0-2.52,5.92.09-.15,8.81-2.52,0v-1.11a8.49,8.49,0,0,1-4.33,1.07A8.15,8.15,0,0,1,471.91,237.62Z"/><path class="cls-3" d="M499.54,223.76l11.92,2.76-.57,2.46-9.49-2.2-1.08,4.68,4.74,1.11-.57,2.43-4.74-1.1-1.08,4.68,9.48,2.2-.57,2.46-11.92-2.76Z"/><path class="cls-3" d="M526.81,231.88l6.78,3.26a5.38,5.38,0,0,1,2.18,1.88,5.8,5.8,0,0,1,.94,2.69,5.27,5.27,0,0,1-.52,2.83,5.34,5.34,0,0,1-2,2.24,5.87,5.87,0,0,1-2.83.9L531,253l-2.44-1.18.33-6.6-4.63-2.23-2.65,5.5-2.25-1.08Zm3.07,11a2.85,2.85,0,0,0,2.32.12,2.88,2.88,0,0,0,1.71-1.53,3,3,0,0,0-1.41-4L528,235.24l-2.61,5.45Z"/><path class="cls-3" d="M544.69,261a9.43,9.43,0,0,1-1.17-4l2.53-.16a6.62,6.62,0,0,0,.89,2.95,7.75,7.75,0,0,0,2,2.31,6.78,6.78,0,0,0,2.08,1.15,4.09,4.09,0,0,0,1.31.21,1.33,1.33,0,0,0,1.1-.51,2.77,2.77,0,0,0,.77-1.62,2.44,2.44,0,0,0-.54-1.52,17.33,17.33,0,0,0-1.93-2.1,19.6,19.6,0,0,1-2.21-2.45,4.7,4.7,0,0,1-.92-2.5,4.26,4.26,0,0,1,1.1-3,3.72,3.72,0,0,1,1.87-1.28,5,5,0,0,1,2.46,0,9.5,9.5,0,0,1,3.93,2,13.34,13.34,0,0,1,2.63,2.78,9.12,9.12,0,0,1,1.49,3.13l-2.43.63a6.63,6.63,0,0,0-1.17-2.41,11.38,11.38,0,0,0-2-2.12,7.72,7.72,0,0,0-2.92-1.53,1.7,1.7,0,0,0-1.84.43,2,2,0,0,0-.52,1.26,2.42,2.42,0,0,0,.54,1.3,19.45,19.45,0,0,0,1.79,2,20.29,20.29,0,0,1,2.28,2.58,5.07,5.07,0,0,1,1,2.71,4.73,4.73,0,0,1-1.23,3.23,4,4,0,0,1-2.26,1.43,5.28,5.28,0,0,1-3-.19,8.63,8.63,0,0,1-2.87-1.58A10.43,10.43,0,0,1,544.69,261Z"/><path class="cls-3" d="M384,424.56a5.62,5.62,0,0,1-.6-3.59,4.37,4.37,0,0,1,1.69-2.83,4.45,4.45,0,0,1,2.65-1,6.93,6.93,0,0,1,2.72.64,6.43,6.43,0,0,1,2.1-3.23,3.72,3.72,0,0,1,2.06-.87,4.06,4.06,0,0,1,2.11.41,5.1,5.1,0,0,1,1.72,1.38,4.3,4.3,0,0,1,1.07,3,3.45,3.45,0,0,1-1.33,2.59,4.68,4.68,0,0,1-2.8,1.2,6.53,6.53,0,0,1-2.88-.61,12,12,0,0,1-.13,1.89c-.09.87-.14,1.81-.15,2.83a10.84,10.84,0,0,0,2.74-.49l1.19-.33.73,2.39-1.22.36a15,15,0,0,1-3.46.59l0,1.41.07,1.25-2.51.1-.07-1.26,0-1.69a8.07,8.07,0,0,1-2.77-1,8,8,0,0,1-2.07-1.78A6.71,6.71,0,0,1,384,424.56Zm5.73,1.6a24.16,24.16,0,0,1,.18-2.89c.05-.36.09-1,.12-1.85,0-.65,0-1,0-1a6,6,0,0,0-2-.69,2,2,0,0,0-1.53.47,1.77,1.77,0,0,0-.75,1.37,3.46,3.46,0,0,0,.4,1.9,5.82,5.82,0,0,0,.57.89A5.41,5.41,0,0,0,389.76,426.16Zm5.18-6.37a2.34,2.34,0,0,0,1.7-.64.93.93,0,0,0,.38-1.08,3,3,0,0,0-.5-1,2.62,2.62,0,0,0-1.1-.79,1.2,1.2,0,0,0-1.27.22,4.08,4.08,0,0,0-1.37,2.47A6.48,6.48,0,0,0,394.94,419.79Z"/><path class="cls-3" d="M424.63,457.17a9.22,9.22,0,0,1-2.1-3.58l2.41-.76a6.61,6.61,0,0,0,1.58,2.64,7.9,7.9,0,0,0,2.48,1.77,7,7,0,0,0,2.29.61,4.22,4.22,0,0,0,1.32-.11,1.35,1.35,0,0,0,.94-.76,2.85,2.85,0,0,0,.36-1.77,2.5,2.5,0,0,0-.89-1.34,19,19,0,0,0-2.39-1.57,19.69,19.69,0,0,1-2.73-1.84,4.72,4.72,0,0,1-1.5-2.2,4.18,4.18,0,0,1,.36-3.14,3.72,3.72,0,0,1,1.49-1.69,5,5,0,0,1,2.38-.65,9.48,9.48,0,0,1,4.29,1,13.14,13.14,0,0,1,3.23,2.06,9.12,9.12,0,0,1,2.2,2.67l-2.2,1.2a6.79,6.79,0,0,0-1.72-2.05,11.38,11.38,0,0,0-2.5-1.56,7.66,7.66,0,0,0-3.2-.78,1.66,1.66,0,0,0-1.67.87,2,2,0,0,0-.21,1.34,2.36,2.36,0,0,0,.84,1.13,19,19,0,0,0,2.21,1.46,21.18,21.18,0,0,1,2.84,1.95,5.21,5.21,0,0,1,1.59,2.4,4.73,4.73,0,0,1-.41,3.43,4.09,4.09,0,0,1-1.85,1.94,5.32,5.32,0,0,1-3,.54,8.78,8.78,0,0,1-3.18-.83A10.55,10.55,0,0,1,424.63,457.17Z"/><path class="cls-3" d="M452.73,450.13l2.46.39L454,457.76l8.55,1.39,1.17-7.24,2.46.4-2.74,16.94-2.47-.4,1.18-7.24-8.55-1.38-1.17,7.24-2.47-.4Z"/><path class="cls-3" d="M483.78,452.15l3.9-.41,7.48,16.48-2.63.27-2-4.43-6.95.73-1.05,4.75-2.64.28Zm5.64,9.48L486,454l-1.81,8.15Z"/><path class="cls-3" d="M505,448.18l2.32-.91,3.14,8,3.89-10.76,3.09-1.22-2.8,7.79,9.34,8.09-2.64,1-7.63-6.6-1.86,5.2,1.74,4.44-2.32.92Z"/><path class="cls-3" d="M528.33,437.2l9.89-7.21,1.49,2-7.87,5.74,2.84,3.89,3.93-2.88,1.47,2-3.93,2.87,2.83,3.88,7.87-5.74,1.49,2-9.88,7.22Z"/><path class="cls-3" d="M561.42,430.06a9,9,0,0,1-4,1.09l-.11-2.52a6.76,6.76,0,0,0,3-.83,8.08,8.08,0,0,0,2.35-1.93,6.91,6.91,0,0,0,1.19-2.06,3.8,3.8,0,0,0,.23-1.31,1.32,1.32,0,0,0-.48-1.1,2.88,2.88,0,0,0-1.61-.81,2.43,2.43,0,0,0-1.53.52,17.5,17.5,0,0,0-2.14,1.89,20.37,20.37,0,0,1-2.49,2.16,4.83,4.83,0,0,1-2.52.87,4.21,4.21,0,0,1-2.93-1.17,3.59,3.59,0,0,1-1.24-1.88,5,5,0,0,1,0-2.46,9.62,9.62,0,0,1,2.06-3.9,13.81,13.81,0,0,1,2.83-2.57,9.3,9.3,0,0,1,3.16-1.43l.58,2.44a6.65,6.65,0,0,0-2.43,1.13,11.32,11.32,0,0,0-2.15,2,7.52,7.52,0,0,0-1.59,2.88,1.68,1.68,0,0,0,.4,1.85,2,2,0,0,0,1.24.55,2.39,2.39,0,0,0,1.31-.52,19.79,19.79,0,0,0,2-1.75,21,21,0,0,1,2.62-2.23,5.2,5.2,0,0,1,2.73-.91,4.72,4.72,0,0,1,3.21,1.3,4,4,0,0,1,1.38,2.28,5.28,5.28,0,0,1-.25,3,8.63,8.63,0,0,1-1.63,2.85A10.31,10.31,0,0,1,561.42,430.06Z"/></g></g></svg>