<svg xmlns="http://www.w3.org/2000/svg" viewBox="0 0 718.99 765.59"><defs><style>.cls-1{fill:#fff;}.cls-2{fill:#171618;}.cls-3{fill:#c2903e;}.cls-4{fill:#ffc627;}</style></defs><g id="Capa_2" data-name="Capa 2"><g id="Capa_1-2" data-name="Capa 1"><path d="M475.18,101.73c92.2,3.12,162.09,44.92,210,123.31,23.78,38.9,35.08,81.7,33.69,127.54-.74,24.48-7.87,47.51-16.28,70.19-20.1,54.19-48.77,104-79.43,152.67-38.51,61.15-80.75,119.67-125.51,176.39-1.42,1.8-2.84,3.62-4.35,5.35-9.78,11.17-26.27,11.36-35.58-.28C389.5,671.69,325.63,583.51,275.48,486.15c-14.76-28.65-27.35-58.27-36-89.4-14-50.24-8.27-99.26,12.46-146.11,35-79.1,95.56-127.61,180.55-144.94A187.08,187.08,0,0,1,475.18,101.73Z"/><path class="cls-1" d="M668.4,346.08c-.1,106.69-86.1,192.18-193.26,192.12-107.38-.06-192.57-86-192.39-194.17.17-106.51,86.34-191.62,193.85-191.48C583.3,152.69,668.51,238.66,668.4,346.08Z"/><path class="cls-2" d="M446.59,283.53c-.92,2.65-1.81,5.31-2.77,8-1.48,4-3.05,8-4.48,12.1-.33.91-.72,1.27-1.69,1.24-2.07-.06-4.14,0-6.37,0,6.08-16.88,12.14-33.7,18.24-50.61,1.91,2.85,3.86,5.69,5.74,8.57,5.84,8.93,11.64,17.88,17.48,26.8a32.72,32.72,0,0,0,1.85,3c1,1.29,1,1.35,1.91-.09l14.84-22.69q4.64-7.06,9.29-14.11c.3-.46.64-.89,1.11-1.55,1,3.66,2.41,6.93,3.61,10.29q5.86,16.35,11.7,32.72a62.72,62.72,0,0,0,2.37,6.25c.6,1.25.12,1.42-1,1.37a32.74,32.74,0,0,0-4.54.06,1.92,1.92,0,0,1-2.27-1.46c-1.42-4-2.88-8-4.3-12-.85-2.4-1.65-4.81-2.48-7.22-.11-.31-.17-.68-.55-.84a26.9,26.9,0,0,0-3-8.55,24.93,24.93,0,0,0-1.73-4.4,17.8,17.8,0,0,0-2.38,3.58c-3.33,5.22-6.69,10.42-10,15.63-3.6,5.64-7.22,11.26-10.8,16.91-.66,1-.9.47-1.3-.15q-9.39-14.6-18.81-29.18l-4.59-7.09c-.66,1.83-1.22,3.41-1.79,5A36.22,36.22,0,0,0,446.59,283.53Z"/><path class="cls-2" d="M330.16,339.64,351.9,373c7.41-11.26,14.67-22.28,22.06-33.49,5.14,14.52,10.16,28.7,15.27,43.11-2,0-3.8,0-5.65,0-.81,0-.91-.54-1.13-1.14-2.59-7.25-5.21-14.49-7.81-21.73-.8-2.21-1.54-4.43-2.38-6.88-1.78,2.56-3.54,5-5.22,7.52q-6.84,10.18-13.63,20.4c-1.32,2-1.37,2-2.7,0q-9-13.33-18-26.69c-.25-.37-.52-.73-.94-1.32-.94,2.65-1.8,5.1-2.67,7.55-2.53,7.07-5.09,14.13-7.57,21.21a1.2,1.2,0,0,1-1.38,1,37.8,37.8,0,0,0-4.39.07c-1,.08-1.11-.11-.77-1,1.59-4.26,3.13-8.55,4.66-12.84l10.11-28.42A7,7,0,0,1,330.16,339.64Z"/><path class="cls-2" d="M421.32,339.33c8.93.35,17.1,2.73,23.45,9.44,3.39,3.58,5.42,7.88,5.14,13-.35,6.46-3.66,11.25-8.78,14.94a32.74,32.74,0,0,1-17.65,5.94c-9.32.55-17.75-1.73-24.74-8.14a17.71,17.71,0,0,1-6.21-14,16.07,16.07,0,0,1,2.45-8,25.86,25.86,0,0,1,16-11.57A40.92,40.92,0,0,1,421.32,339.33ZM421,377.45c5.48-.12,10.6-1.25,15.13-4.23s7.49-7,7.32-12.59c-.14-5-2.85-8.68-6.81-11.34a26,26,0,0,0-17.73-4.43,27.05,27.05,0,0,0-12.08,3.77c-4.31,2.75-7.38,6.46-7.86,11.74-.43,4.62,1.8,8.24,5.1,11.16C408.89,375.81,414.79,377.24,421,377.45Z"/><path class="cls-3" d="M501.25,274.78a26.9,26.9,0,0,1,3,8.55c-3.8,5.48-7.35,11.11-10.93,16.72-4.45,7-9,13.9-13.45,20.88-1.24,2-2.49,3.89-3.87,5.76-.52.71-.72.7-1.2-.06q-9-14.25-18.12-28.43c-2.77-4.34-5.64-8.61-8.47-12.9a4.75,4.75,0,0,0-1.62-1.77,36.22,36.22,0,0,1,3.23-8.45c1,.12,1.28,1,1.71,1.73q11.67,18.24,23.29,36.52c.55.86.9.9,1.48,0,2.62-4.18,5.31-8.3,8-12.45,3.14-4.91,6.23-9.85,9.41-14.74C496.15,282.31,498.72,278.56,501.25,274.78Z"/><path class="cls-2" d="M636.29,361.27c0,6.73,0,13.45,0,20.18,0,1-.2,1.49-1.34,1.32a11.33,11.33,0,0,0-3-.1c-1.51.19-1.58-.6-1.57-1.76,0-6,0-11.93,0-17.9,0-.79-.08-1.15-1-1.14q-16.68.06-33.38,0c-1,0-1,.42-1,1.16,0,6,0,11.94,0,17.91,0,1.25-.07,2.06-1.66,1.7a14.27,14.27,0,0,0-2.27,0c-2.16-.1-2.17-.11-2.17-2.2,0-13.1,0-26.2,0-39.3,0-1.26.23-1.9,1.65-1.7s3.36-.65,4.19.35.24,2.7.25,4.11c0,3.89,0,7.79,0,11.68,0,.91.21,1.18,1.15,1.21,7,.24,14,.18,20.93.17,4,0,8,0,12,.05,1.07,0,1.35-.25,1.33-1.35-.06-5,0-9.92,0-14.87,0-1,.31-1.45,1.4-1.33a15.34,15.34,0,0,0,3,0c1.16-.1,1.57.22,1.56,1.48C636.26,347.72,636.29,354.5,636.29,361.27Z"/><path class="cls-2" d="M576.46,352.45a22.75,22.75,0,0,0-7.32-5.29c-9.63-3.86-19-3.53-27.68,2.44A14,14,0,0,0,535,362.05c.15,4.3,2.42,7.55,5.63,10.11A22.44,22.44,0,0,0,551,376.89c7.63,1.24,15,.43,21.69-3.8a24.23,24.23,0,0,0,3.53-3,38.51,38.51,0,0,1,0,6.79c-.12.75-.8,1-1.36,1.33a35.39,35.39,0,0,1-20.15,4.43c-6.55-.47-12.65-2.25-17.89-6.33s-8.42-8.95-8.35-15.65c0-4.14,1.8-7.67,4.35-10.84,4.84-6.06,11.48-8.81,18.87-10a35.42,35.42,0,0,1,22.53,3.88c1.63.86,2.42,1.91,2.22,3.81C576.33,349,576.46,350.5,576.46,352.45Z"/><path class="cls-2" d="M448.29,339.81h6.22a1.69,1.69,0,0,1,1.58.91c5.35,8.38,10.75,16.74,16.13,25.1.88,1.36,1.79,2.7,2.63,4.08.57.92.88.94,1.5,0,5.59-8.78,11.41-17.43,16.78-26.34,1.83-3,3.81-4.33,7.2-3.66a11.54,11.54,0,0,0,2.55-.1l-27.26,42.47Z"/><path class="cls-3" d="M454.62,254.25c2.74.41,5.17-.17,7.63-.14a1.53,1.53,0,0,1,1.43.91c3.43,6,7.64,11.53,11.19,17.46.53.87.9.89,1.48,0,3.64-5.7,7.35-11.37,11-17.07a2.18,2.18,0,0,1,1.94-1.18c2.36,0,4.72,0,7.15,0a8,8,0,0,1-1.35,2.45c-4.5,7-9,14-13.55,20.95-1.75,2.71-3.49,5.43-5.18,8.18-.51.84-.84,1-1.43.07-3.38-5.32-6.7-10.69-10.22-15.92-3.15-4.67-5.93-9.56-9.14-14.19C455.29,255.36,455.05,254.94,454.62,254.25Z"/><path class="cls-2" d="M517.59,361.59c0,6.62,0,13.25,0,19.87,0,1-.17,1.35-1.23,1.26a30.47,30.47,0,0,0-3.94,0c-.79,0-1.06-.18-1.06-1q0-20.34,0-40.66c0-.9.31-1.11,1.14-1.07,1.61.08,3.71-.52,4.7.28s.29,3,.3,4.62c0,5.56,0,11.12,0,16.69Z"/><path class="cls-2" d="M454.18,405.9a6.33,6.33,0,0,1-6.09-6.25,6.45,6.45,0,0,1,6.23-6.47,6.59,6.59,0,0,1,6.36,6.39A6.45,6.45,0,0,1,454.18,405.9Zm-4.61-6.28a4.76,4.76,0,0,0,4.88,5,4.94,4.94,0,0,0,4.84-5.1,5.29,5.29,0,0,0-5-5.1A5,5,0,0,0,449.57,399.62Z"/><path class="cls-2" d="M441.69,399.63c0,1.71,0,3.43,0,5.15,0,.57-.12,1-.81,1s-.64-.51-.64-1c0-1.21,0-2.43,0-3.64,0-.62-.23-.89-.89-.89-1.77,0-3.54,0-5.3-.09-.66,0-.9.2-.88.86,0,1.22,0,2.43,0,3.64,0,.51.1,1.11-.65,1.09s-.58-.56-.58-1l.06-10.3c0-.46,0-1,.62-1s.56.57.57,1c0,1.22.05,2.43,0,3.64,0,.75.25,1,1,.94,1.71,0,3.43,0,5.15,0,.71,0,1-.19,1-.91,0-1.26.07-2.53.09-3.79,0-.48,0-1,.65-1s.61.53.61,1c0,1.77,0,3.54,0,5.31Z"/><path class="cls-2" d="M481.18,399.5c0-1.67,0-3.33,0-5,0-.62.05-1.07.88-1.06,2.37.05,4.75,0,7.12.05.39,0,.92-.09.93.48s-.43.7-1,.67a55.13,55.13,0,0,0-5.75,0c-.75,0-1.1.19-1,1,.07,1.05-.37,2.39.13,3.1s1.93.15,2.95.24,1.82,0,2.73,0c.47,0,1.11-.13,1.14.63s-.68.52-1.09.53c-1.57,0-3.13,0-4.7,0-.81,0-1.15.18-1.18,1.09-.1,3.34-.14,3.34,3.18,3.33,1.27,0,2.53,0,3.79,0,.42,0,.7,0,.77.46s-.29.57-.67.57c-2.47,0-5,0-7.42,0-.86,0-.82-.56-.82-1.13v-5Z"/><path class="cls-2" d="M510.12,402.9a9.85,9.85,0,0,0,4.32,1.7c1.85.17,2.82-.45,3.19-2,.21-.85,0-1.34-.8-1.63-1.37-.47-2.75-.94-4.09-1.49s-2.38-1.14-2.23-2.82a3.66,3.66,0,0,1,2.55-3.24,5.5,5.5,0,0,1,4.87.91c.42.28.9.72.57,1.24s-.78-.08-1.14-.21c-1.23-.47-2.32-1.46-3.81-.75-.91.43-1.66.91-1.79,2s.84,1.43,1.57,1.74c1.24.54,2.56.86,3.82,1.35,2.2.85,2.67,3,1.11,4.78s-6.41,1.61-7.82-.38A1.38,1.38,0,0,1,510.12,402.9Z"/><path class="cls-2" d="M496.41,399.49v-5.14c0-.48,0-1,.67-1s.53.59.53,1c0,2.92,0,5.85,0,8.77,0,1,.2,1.45,1.32,1.39,1.66-.1,3.33,0,5,0,.41,0,.87-.11.92.46s-.44.57-.84.57c-2.22,0-4.44,0-6.66,0-.85,0-1-.42-1-1.13,0-1.66,0-3.32,0-5Z"/><path class="cls-2" d="M470.87,400.27c0,1.52,0,3,0,4.55,0,.52-.06.88-.71.87s-.62-.47-.62-.94c0-3,0-6,0-8.94,0-.93-.21-1.25-1.17-1.18a6.76,6.76,0,0,1-2.86-.18c-.3-.11-.58-.24-.49-.62s.33-.34.6-.34l8.79,0c.31,0,.64,0,.65.44s-.15.71-.59.73a17.24,17.24,0,0,1-2.27,0c-1.08-.11-1.56.13-1.44,1.36.14,1.4,0,2.83,0,4.24Z"/><circle cx="153.19" cy="153.19" r="153.19"/><g id="Capa_2-2" data-name="Capa 2"><g id="svg32"><g id="g12"><path id="path4" class="cls-4" d="M244.45,132.92c-1.42-.36-2.48-.36-3.19.17-3.54,2.66-6.55,4.25-9,4.43a7.16,7.16,0,0,0-5.49,2.66l-2.47,2.3c-.18.35-1.24,1.06-4.43,1.42-.53.35-2.48,1.41-1.59,2.47a21.38,21.38,0,0,1,2.83,4.79c.89,3.54.18,7.08-3,10.62-1.24,1.41-2.83,1.77-5,1.59-1.06-.18-2.3-.89-2.3-2.12a3.64,3.64,0,0,1,1.77-3c2.12-2.66,2.12-5-.18-6.91a5,5,0,0,0-5,0c-3.19,1.42-3.72,4.25-1.6,6.91a10.6,10.6,0,0,1-.53,3,3.48,3.48,0,0,1-4.07,1.77c-3-1.6-4.43-4.43-4.07-9.39a26.18,26.18,0,0,1,4.78-5.84,18.58,18.58,0,0,0-7.79-7.43,18.47,18.47,0,0,0-7.79,7.43,21.05,21.05,0,0,1,3.89,5.84c.36,2.84.18,5.67-2.12,8.33-2.13,1.41-4.07,2.31-6.2,1.06-1.41-1.42-1.41-3-.53-5a4.55,4.55,0,0,0-.88-6.37,4.26,4.26,0,0,0-5.14,0c-2.12,1.59-1.77,3.72-.17,6.37a6.13,6.13,0,0,1-.18,2.66c-1.59,3.54-4.07,3-6.91,1.77-5.13-5-4.95-10.09,1.07-14.87a2.32,2.32,0,0,0-1.6-3.9c-4.24-1.23-8-3-10.44-6.54-2.48-5.14-5.67-5.14-8.14,0-2.48,3.17-6.37,5.3-10.45,6.53-2.3.36-2.83,2.31-1.77,3.72,6.2,5.13,6.2,10.09,1.24,15-2.83,1.24-5.31,1.42-6.9-1.77a4.84,4.84,0,0,1-.18-2.83c1.59-2.48,1.77-4.78-.18-6.19a4.5,4.5,0,0,0-5.31,0c-2.12,1.6-2.12,4.07-.53,6.38a5.17,5.17,0,0,1-.53,4.78c-2.3,1.24-4.07.53-6.19-.89a10,10,0,0,1-2.13-8.32,24.38,24.38,0,0,1,3.72-6.2A18.64,18.64,0,0,0,112,140a23.85,23.85,0,0,0-7.79,7.43,24.09,24.09,0,0,1,4.78,6.2c.53,4.78-.89,7.79-3.9,9.2-2.12.36-3.54,0-4.25-1.77a21.38,21.38,0,0,1-.35-2.83c2.12-2.65,1.42-5.49-1.59-6.9a5.27,5.27,0,0,0-5.14,0c-2.12,2.12-2.3,4.25-.17,6.9a3.43,3.43,0,0,1,1.77,2.83c.17,1.41-1.07,2.13-2.31,2.31a5.49,5.49,0,0,1-4.78-1.59A11.1,11.1,0,0,1,84.94,151a24,24,0,0,1,3-4.43c.88-1.06-1.06-2.3-1.77-2.48-3.19-.53-4.25-1.06-4.25-1.41l-2.48-2.48A8.33,8.33,0,0,0,74,137.7c-2.48-.18-5.66-1.77-9.2-4.43a3.49,3.49,0,0,0-3-.17,2.71,2.71,0,0,0-.89,3c12.75,11.33,17,24.25,18.06,31.16H227.81c1.06-6.73,5.31-19.83,17.88-30.81a6.18,6.18,0,0,0-1.24-3.54"/><path id="path6" class="cls-4" d="M71.85,130.79a43.39,43.39,0,0,1,11,4.25,8.68,8.68,0,0,0,6.55-1.24A97,97,0,0,1,120.71,117c1.77-.53,2.83,0,2.3,1.77a30,30,0,0,0-10.27,14.52c0,1.77,1.24,2.66,3.9,2.48a6.56,6.56,0,0,1,5,.35c1.77.36,3.18-.17,4.42-3,1.24-8,6.2-13.45,13.28-17.34,3.19-.36,4.78,1.06,4.25,4.07-2.66,2.83-4.78,5.84-5.49,9.2.18,3,1.77,4.07,4.43,3.19,1.59,0,2.83-1.42,3.89-4.07a6.88,6.88,0,0,1,12.22,0c1.06,2.65,2.3,4.07,3.71,4.07,2.83.88,4.43-.18,4.78-3.19a21.57,21.57,0,0,0-5.49-9.2c-.35-3,1.06-4.43,4.25-4.07,7.08,3.89,12,9.38,13.28,17.34,1.06,2.84,2.65,3.54,4.25,3a5.66,5.66,0,0,1,5.13-.35c2.66.18,3.89-.53,3.89-2.48a30,30,0,0,0-10.26-14.52c-.53-1.77.35-2.47,2.3-1.77a93.65,93.65,0,0,1,31.34,16.82,8.69,8.69,0,0,0,6.55,1.24c3.18-2.12,6.9-3.18,11-4.25,2.48-.35,3.37-2.3,2.66-5.13a11,11,0,0,0-8.14-4.78,4.21,4.21,0,0,1-3.72-1.24c-2.3-3.89-6.37-5.31-11.86-4.43-2.66-3-6.37-3.71-10.27-3.54-3.54-3.71-7.43-4.07-11.5-3.36-4.43-2.83-8.68-3.89-12.05-2.12a15.18,15.18,0,0,0-14.69,1.23,12.25,12.25,0,0,0-6.73-6.55V97.51h5.31V92.2H157V86.71h-9V92.2h-5.31v5.31H148v3.72a11.19,11.19,0,0,0-6.73,6.55,15.23,15.23,0,0,0-14.69-1.24c-3.72-1.77-7.79-.89-12,2.12-4.08-.88-8-.35-11.51,3.37-4.07-.18-7.61.35-10.27,3.54-5.49-.89-9.56.53-11.86,4.42a4.19,4.19,0,0,1-3.71,1.24A10.59,10.59,0,0,0,69,126c-.53,2.66.36,4.43,2.84,4.78m80.9-26.73c2.83,0,5.13,2.83,5.13,6.55s-2.3,6.73-5.13,6.73-5.31-3-5.31-6.73,2.48-6.55,5.31-6.55"/><path id="path8" class="cls-4" d="M78.39,191.16H227.28v-14H78.39Zm132.07-10.8a4.08,4.08,0,1,1-4.07,4.07h0a4,4,0,0,1,3.94-4.07h.13m-28.5,0a4.08,4.08,0,1,1-4.08,4.07h0a4.12,4.12,0,0,1,4.08-4.07m-29.21,0a4.08,4.08,0,1,1-4.07,4.07,4,4,0,0,1,3.94-4.07h.13m-29.21,0a4.08,4.08,0,1,1-4.07,4.07h0a4,4,0,0,1,3.94-4.07h.13m-28.68,0a4.08,4.08,0,1,1-4.07,4.07h0a4,4,0,0,1,3.94-4.07h.13"/><rect id="rect10" class="cls-4" x="78.39" y="170.27" width="148.88" height="3.72"/></g></g></g></g></g></svg>