<svg xmlns="http://www.w3.org/2000/svg" viewBox="0 0 718.99 765.59"><defs><style>.cls-1{fill:#fff;}.cls-2{fill:#ce112d;}</style></defs><g id="Capa_2" data-name="Capa 2"><g id="Capa_1-2" data-name="Capa 1"><path d="M475.18,101.73c92.2,3.12,162.09,44.92,210,123.31,23.78,38.9,35.08,81.7,33.69,127.54-.74,24.48-7.87,47.51-16.28,70.19-20.1,54.19-48.77,104-79.43,152.67-38.51,61.15-80.75,119.67-125.51,176.39-1.42,1.8-2.84,3.62-4.35,5.35-9.78,11.17-26.27,11.36-35.58-.28C389.5,671.69,325.63,583.51,275.48,486.15c-14.76-28.65-27.35-58.27-36-89.4-14-50.24-8.27-99.26,12.46-146.11,35-79.1,95.56-127.61,180.55-144.94A187.08,187.08,0,0,1,475.18,101.73Z"/><path class="cls-1" d="M668.4,346.08c-.1,106.69-86.1,192.18-193.26,192.12-107.38-.06-192.57-86-192.39-194.17.17-106.51,86.34-191.62,193.85-191.48C583.3,152.69,668.51,238.66,668.4,346.08Z"/><path d="M480,290.81h-4.52L496,258.94q6.28-9.87,9.91-13.21a11.72,11.72,0,0,1,8.14-3.35,8,8,0,0,1,6.16,2.39,7.55,7.55,0,0,1,2.19,5.13,10.82,10.82,0,0,1-2.94,7.12q-2.94,3.42-18.68,16.55Z"/><path d="M508.29,294.68h50.42v5.12q-10,.66-15,4.51t-6.07,8.62q-1.11,4.79-1.11,18.58V381.7q0,19.26-1.5,28.6t-8.68,18.37q-7.18,9-20.2,14.35t-30.05,5.35q-20.13,0-34.11-6.85T422.1,423.83q-6-10.86-6-29.11l.11-15.47V332.3q0-18-1.06-23.26c-.7-3.49-2.19-5.9-4.44-7.25s-7.23-2-14.87-2h-3.45v-5.12h68.89v5.12h-3c-7.43,0-12.29.6-14.59,1.83s-3.83,3.51-4.61,6.85S438,319.75,438,332.3v47.51q0,24.7,2.28,35.05T453.09,433q10.59,7.74,28.16,7.75a59.42,59.42,0,0,0,25.1-5.19q11.29-5.17,16.8-12.91a36.77,36.77,0,0,0,6.74-15.91q1.22-8.18,1.22-25.76V329.51q0-12.79-1.45-17.92a13.82,13.82,0,0,0-6.23-8.12q-4.78-3-15.14-3.67Z"/><circle cx="153.19" cy="153.19" r="153.19"/><g id="Capa_2-2" data-name="Capa 2"><g id="Capa_1-2-2" data-name="Capa 1-2"><path class="cls-2" d="M169.51,155.87,213.36,149l-43.85-7,17-26.2-25.9,16.79L153,52.27l-7.08,80.25L120,115.73l17,26.2L93,149l43.86,6.91-17,26.37,25.9-16.83,7.08,88.7,7.51-88.7,25.9,16.83Z"/></g></g></g></g></svg>