<svg xmlns="http://www.w3.org/2000/svg" viewBox="0 0 109.68 101.22"><g id="Capa_2" data-name="Capa 2"><g id="Capa_1-2" data-name="Capa 1"><path d="M42.81,82.11a1.76,1.76,0,0,0-.13,1c0,5.67,0,11.34,0,17,0,1.09,0,1.11-1.13,1.12-1.6,0-3.2,0-4.8,0-.68,0-.9-.25-.9-.91q0-14.58,0-29.14c0-.65.17-.94.88-.92,1.55.05,3.1,0,4.65,0a1.4,1.4,0,0,1,1.29.67q6.47,8.64,13,17.27c.11.14.17.36.42.39.19-.27.1-.57.1-.85V71.37c0-1.11,0-1.11,1.1-1.11,1.6,0,3.2,0,4.8,0,.66,0,.92.18.92.88q0,14.59,0,29.21c0,.7-.28.9-.93.88q-2.07,0-4.14,0a1.3,1.3,0,0,1-1.17-.61Q50.15,91.81,43.54,83Z"/><path d="M67.38,85.71V71.29c0-1,0-1,1-1H79.35a16.13,16.13,0,0,1,11.81,4.58,14.14,14.14,0,0,1,4.12,8.1,15.64,15.64,0,0,1-1.46,9.91,15.06,15.06,0,0,1-10.81,8,21.75,21.75,0,0,1-4.33.41c-3.4,0-6.81,0-10.21,0-1,0-1.09,0-1.09-1.08Zm6.94,0c0,2.79,0,5.57,0,8.36,0,.54.15.81.75.8,1.7,0,3.41.08,5.1,0a8.22,8.22,0,0,0,7.25-4.72,10.46,10.46,0,0,0,.75-6.43,8.35,8.35,0,0,0-6.33-6.78c-2.16-.53-4.36-.25-6.55-.35-.73,0-1,.19-1,1C74.35,80.21,74.32,83,74.32,85.68Z"/><path d="M79.38,55.09c0,1.89,0,3.79,0,5.69a1.76,1.76,0,0,1-.8,1.61,19.54,19.54,0,0,1-11.29,4.25A16.19,16.19,0,0,1,56,63.24,14.84,14.84,0,0,1,50.48,53a16.22,16.22,0,0,1,1.88-10.22,15.37,15.37,0,0,1,12.41-8,18.5,18.5,0,0,1,9.12,1.32,16.5,16.5,0,0,1,4,2.56c.29.25.31.44.07.74-1.21,1.46-2.4,2.93-3.59,4.41-.31.39-.58.34-.93,0a11.5,11.5,0,0,0-5.19-2.54C62.53,40.25,58.56,44,57.69,48.7a9.74,9.74,0,0,0,2.9,9.39,8.24,8.24,0,0,0,6,2.19,11.62,11.62,0,0,0,5.22-1.13,1.44,1.44,0,0,0,.95-1.55,21.19,21.19,0,0,1,0-2.52c0-.58-.23-.77-.79-.77-1.65,0-3.3,0-5,0-.68,0-1-.22-1-.94,0-1.45,0-2.91,0-4.36,0-.57.2-.8.77-.79H78.62c.57,0,.78.21.77.78C79.37,51,79.38,53.06,79.38,55.09Z"/><path d="M9.5,85.68q0-7.22,0-14.42c0-1,0-1,1-1q10.5,0,21,0c1,0,1,0,1,1v4.14c0,1.12,0,1.13-1.1,1.13H17.5c-1.16,0-1.16,0-1.16,1.13v3.63c0,1.16,0,1.16,1.13,1.16h12c1.08,0,1.12,0,1.12,1.12,0,1.41,0,2.81,0,4.22,0,.72-.26.92-.95.92-4.09,0-8.18,0-12.27,0-1,0-1,0-1,1,0,1.45,0,2.91,0,4.36,0,.68.22.89.9.88,4.88,0,9.76,0,14.64,0,.71,0,.9.23.89.88,0,1.5,0,3,0,4.51,0,.61-.19.89-.84.89H10.32c-.66,0-.83-.28-.82-.89C9.51,95.44,9.5,90.56,9.5,85.68Z"/><path d="M83.88,50.55c0-4.86,0-9.71,0-14.57,0-.6.2-.77.76-.76,1.7,0,3.4,0,5.1,0,1,0,1,.05,1,1V46.28c0,1.08,0,1.09,1.06,1.09,3.37,0,6.75,0,10.13,0,.65,0,.91-.17.9-.87,0-3.5,0-7,0-10.5,0-.65.22-.8.8-.79,1.7,0,3.4,0,5.1,0,.75,0,1,.25,1,1,0,4.75,0,9.51,0,14.27V65.11c0,1,0,1.06-1.08,1.06h-4.74c-1,0-1.15-.1-1.1-1.15.15-3.37,0-6.75.07-10.13,0-1.07,0-1-1.07-1h-10c-1,0-1,0-1,1.05,0,3.43,0,6.85,0,10.28,0,.92,0,1-1,1H84.9c-1,0-1,0-1-1,0-4.86,0-9.72,0-14.57Z"/><path d="M57.42,15.44V1c0-1,0-1,1-1,7,0,14,0,21.07,0,.69,0,1,.2,1,.92q-.06,2.22,0,4.44c0,.73-.27.92-1,.92-4.71,0-9.42,0-14.12,0-1.1,0-1.1,0-1.1,1.11,0,1.35,0,2.71,0,4.06,0,.66.23.85.86.85,4.09,0,8.19,0,12.28,0,1.09,0,1.1,0,1.1,1.11v4.07c0,1,0,1.06-1.1,1.06-4.09,0-8.18,0-12.27,0-.65,0-.91.13-.88.85.06,1.53.05,3.06,0,4.59,0,.63.2.78.8.77,4.83,0,9.66,0,14.49,0,1.08,0,1.08,0,1.07,1.1,0,1.48,0,3,0,4.44,0,.56-.2.72-.73.72q-10.83,0-21.66,0c-.69,0-.81-.3-.81-.9C57.43,25.2,57.42,20.32,57.42,15.44Z"/><path d="M9.5,50.63V36.28c0-1.05,0-1.05,1.09-1.05,1.62,0,3.25,0,4.88,0,.67,0,.9.24.9.91,0,3.43,0,6.85,0,10.28,0,.74.21,1,1,1q5.1,0,10.2,0c.7,0,.94-.2.94-.92,0-3.42,0-6.85,0-10.28,0-.75.24-1,1-1,1.65,0,3.3,0,5,0,.69,0,1,.2,1,.92q0,14.56,0,29.13c0,.67-.21.92-.89.91-1.7,0-3.4,0-5.1,0-.68,0-.9-.24-.89-.91,0-3.45,0-6.9,0-10.35,0-1,0-1.05-1-1.05-3.38,0-6.75,0-10.13,0-.76,0-1,.27-.95,1,0,3.45,0,6.9,0,10.35,0,.92-.06,1-1,1h-5c-.91,0-.94,0-.94-1Q9.5,57.92,9.5,50.63Z"/><path d="M53.8,15.58V30c0,1,0,1-1,1H47.92c-1,0-1,0-1-1,0-3.42,0-6.85,0-10.27,0-1,0-1-1-1H35.83c-1,0-1,0-1,1,0,3.45,0,6.9,0,10.35,0,.69-.19,1-.91.94-1.68,0-3.36,0-5,0-.71,0-.94-.23-.94-.93,0-5.89,0-11.78,0-17.67V1.07c0-1,0-1,1.06-1,1.65,0,3.3,0,5,0,.63,0,.87.21.86.86,0,3.5,0,7,0,10.5,0,.67.18.89.87.89q5.18-.06,10.35,0c.71,0,.88-.25.87-.9,0-3.4,0-6.8,0-10.2C46.94.08,47,0,48.05,0c1.62,0,3.25,0,4.88,0,.67,0,.89.23.89.9C53.79,5.81,53.8,10.7,53.8,15.58Z"/><path d="M12.86,0h11.9c1,0,1,0,1,1.05,0,1.5,0,3,0,4.51,0,.65-.19.9-.89.89-2.56,0-5.13,0-7.69,0-.69,0-.88.22-.88.89,0,7.49,0,15,0,22.48,0,1.19,0,1.19-1.18,1.19-1.62,0-3.25,0-4.88,0-.6,0-.81-.21-.82-.82-.19-7.69-.05-15.37-.06-23.06,0-.61-.21-.68-.71-.68-2.64,0-5.28,0-7.92,0-.6,0-.8-.16-.79-.79C0,4.05,0,2.42,0,.79,0,.16.21,0,.81,0,4.82,0,8.84,0,12.86,0Z"/><path d="M40,50.69V36.35c0-1.09,0-1.12,1.11-1.12,1.63,0,3.25,0,4.88,0,.68,0,1,.19,1,.92q0,14.56,0,29.12c0,.66-.22.93-.9.92-1.7,0-3.4,0-5.1,0-.88,0-1-.08-1-1Z"/></g></g></svg>