<svg xmlns="http://www.w3.org/2000/svg" viewBox="0 0 83.74 83.52"><defs><style>.cls-1{fill:#575756;}</style></defs><g id="Capa_2" data-name="Capa 2"><g id="Capa_1-2" data-name="Capa 1"><path class="cls-1" d="M25.93,72.22,3.48,81.13l-.09,0a2.3,2.3,0,0,1-1.09.31,2.21,2.21,0,0,1-1.18-.38A2.16,2.16,0,0,1,0,79V11.29A2.75,2.75,0,0,1,.54,9.6,3.78,3.78,0,0,1,2.11,8.39L26,0l32,11.18,22.3-8.89,0,0A2.4,2.4,0,0,1,81.37,2a2.48,2.48,0,0,1,1.28.38,2,2,0,0,1,1.09,2V73A1.42,1.42,0,0,1,83.32,74a3.76,3.76,0,0,1-1.53,1l-23.9,8.52Zm2.22-2.56L55.59,78.9V13.75L28.15,4.5ZM59.22,13.8V78.88L80.11,72V5.85ZM3.63,11.43V77.55l20.89-8V4.52Z"/></g></g></svg>