<svg xmlns="http://www.w3.org/2000/svg" viewBox="0 0 718.99 765.59"><defs><style>.cls-1{fill:#fff;}.cls-2{fill:#1c355e;}.cls-3{fill:#ffc627;}</style></defs><g id="Capa_2" data-name="Capa 2"><g id="Capa_1-2" data-name="Capa 1"><path d="M475.18,101.73c92.2,3.12,162.09,44.92,210,123.31,23.78,38.9,35.08,81.7,33.69,127.54-.74,24.48-7.87,47.51-16.28,70.19-20.1,54.19-48.77,104-79.43,152.67-38.51,61.15-80.75,119.67-125.51,176.39-1.42,1.8-2.84,3.62-4.35,5.35-9.78,11.17-26.27,11.36-35.58-.28C389.5,671.69,325.63,583.51,275.48,486.15c-14.76-28.65-27.35-58.27-36-89.4-14-50.24-8.27-99.26,12.46-146.11,35-79.1,95.56-127.61,180.55-144.94A187.08,187.08,0,0,1,475.18,101.73Z"/><path class="cls-1" d="M668.4,346.08c-.1,106.69-86.1,192.18-193.26,192.12-107.38-.06-192.57-86-192.39-194.17.17-106.51,86.34-191.62,193.85-191.48C583.3,152.69,668.51,238.66,668.4,346.08Z"/><path class="cls-2" d="M643.67,328.54c-1.1-2.66-5.06-5.36-9.25-5.36H606.34l6.82,4.46L604,355.46h13.64l2.89-10.23h1l3.54,10.23h12.73l-5-11.75a12.31,12.31,0,0,0,9.09-3.86,14.39,14.39,0,0,0,2.59-6.16,12,12,0,0,0-.8-5.15M630,336.83h-5.72l1.39-6.43h3.8a2.79,2.79,0,0,1,3.28,2.62,3.64,3.64,0,0,1-2.75,3.81"/><path class="cls-2" d="M573.14,323.18l7.22,4.73-17.85,27.55h14l2.1-3.94h9.71v3.94h13.52V323.18Zm15.22,24.67h-7.61l7.61-12.73Z"/><polygon class="cls-2" points="569.34 323.18 558.97 355.46 545.06 355.46 550.57 340.11 549.26 340.11 540.47 355.46 530.11 355.46 530.63 340.11 529.58 340.11 524.73 355.46 510.55 355.46 520.92 327.91 513.31 323.18 540.6 323.18 540.86 335.12 542.04 335.12 550.05 323.18 569.34 323.18"/><path class="cls-2" d="M464.89,323.18H438.65l7.09,4.73-9.62,27.55h22.3c7.17,0,12.63-7.32,12.63-7.32,5.33-7.7,5.65-17,5.65-17,0-8.31-11.81-8-11.81-8m-1.11,9.68c-3,13.74-7.32,16.48-7.32,16.48h-5l6.74-19.77c6.56-1,5.62,3.29,5.62,3.29"/><path class="cls-2" d="M437.85,326.51a10.14,10.14,0,0,0-4.31-3.3C429,321.32,423.6,322,418.78,322c0,0-10.63,0-15.13,12.94,0,0-5.21,12.68-.35,17.76,0,0,3.1,4.2,10.68,4.2h6.64c.16,0,9.4,0,12.77-6.3l.59-1.23.28-.75c1.55-4.51,3.23-9.06,4.48-13.67a11,11,0,0,0,.1-6.53,7.61,7.61,0,0,0-1-1.87m-11.2,5.77-5.33,15.39c-1.75,3.42-4.55,2.8-4.55,2.8-4.55-.26-3.59-3.5-3.59-3.5l6.3-17.54c.55-1.64,3.89-1.24,3.89-1.24,4.46.45,3.28,4.09,3.28,4.09"/><path class="cls-2" d="M512.87,326.51a10.17,10.17,0,0,0-4.3-3.3C504,321.32,498.63,322,493.8,322c0,0-10.63,0-15.13,12.94,0,0-5.21,12.68-.35,17.76,0,0,3.1,4.2,10.69,4.2h6.63c.17,0,9.4,0,12.78-6.3.16-.34.42-.89.59-1.23l.27-.75c1.56-4.51,3.23-9.06,4.49-13.67a11.1,11.1,0,0,0,.09-6.53,7.61,7.61,0,0,0-1-1.87m-11.19,5.77-5.34,15.39c-1.75,3.42-4.55,2.8-4.55,2.8-4.55-.26-3.58-3.5-3.58-3.5l6.29-17.54c.55-1.64,3.89-1.24,3.89-1.24,4.46.45,3.29,4.09,3.29,4.09"/><polygon class="cls-2" points="372.79 323.18 404.45 323.18 401.88 331.58 392.54 331.69 384.33 355.81 370.16 355.81 378.68 331.53 369.46 331.58 372.79 323.18"/><polygon class="cls-2" points="369.46 314 352.32 365.17 354.68 365.17 371.74 314 369.46 314"/><path class="cls-2" d="M370.73,308.49a3,3,0,0,0-2.32,2.18s-.57,2.28,2.8,2.06a2.93,2.93,0,0,0,2.58-2.11s.7-2.7-3.06-2.13"/><path class="cls-2" d="M367.54,314a93,93,0,0,1-18.9,3.93l-4.39,10.37a8.19,8.19,0,0,1,5.57,8.59H357Z"/><path class="cls-2" d="M336.1,350.49l-2.94,8.45,1.64-.07A13.44,13.44,0,0,0,337,358s9.58-2.21,13.71,3.12h.79L356.06,339H349.3s-1.31,10.29-10.1,11.62c0,0-2.25-.05-3.1-.12"/><path class="cls-2" d="M341.94,327.9l4.67-10s-4.66-1.24-11.09,5.91c0,0-4.33,4.92-15.28,6.82,0,0-6.89,1.25-9.52,5v1.12s6.5-.53,9.45,3.93l9.45-.78H330s.91-9.84,11.93-12.08"/><path class="cls-2" d="M306.66,355.24s12.33-7.83,13.84-12.88l9-.35a7.13,7.13,0,0,0,4.22,7.61L329.55,361s-7.15.34-8.33.09c0,0-6.63-6.1-12.46-4.5l-2.1.31Z"/><circle cx="153.19" cy="153.19" r="153.19"/><g id="Capa_2-2" data-name="Capa 2"><g id="svg32"><g id="g12"><path id="path4" class="cls-3" d="M244.45,132.92c-1.42-.36-2.48-.36-3.19.17-3.54,2.66-6.55,4.25-9,4.43a7.16,7.16,0,0,0-5.49,2.66l-2.47,2.3c-.18.35-1.24,1.06-4.43,1.42-.53.35-2.48,1.41-1.59,2.47a21.38,21.38,0,0,1,2.83,4.79c.89,3.54.18,7.08-3,10.62-1.24,1.41-2.83,1.77-5,1.59-1.06-.18-2.3-.89-2.3-2.12a3.64,3.64,0,0,1,1.77-3c2.12-2.66,2.12-5-.18-6.91a5,5,0,0,0-5,0c-3.19,1.42-3.72,4.25-1.6,6.91a10.6,10.6,0,0,1-.53,3,3.48,3.48,0,0,1-4.07,1.77c-3-1.6-4.43-4.43-4.07-9.39a26.18,26.18,0,0,1,4.78-5.84,18.58,18.58,0,0,0-7.79-7.43,18.47,18.47,0,0,0-7.79,7.43,21.05,21.05,0,0,1,3.89,5.84c.36,2.84.18,5.67-2.12,8.33-2.13,1.41-4.07,2.31-6.2,1.06-1.41-1.42-1.41-3-.53-5a4.55,4.55,0,0,0-.88-6.37,4.26,4.26,0,0,0-5.14,0c-2.12,1.59-1.77,3.72-.17,6.37a6.13,6.13,0,0,1-.18,2.66c-1.59,3.54-4.07,3-6.91,1.77-5.13-5-4.95-10.09,1.07-14.87a2.32,2.32,0,0,0-1.6-3.9c-4.24-1.23-8-3-10.44-6.54-2.48-5.14-5.67-5.14-8.14,0-2.48,3.17-6.37,5.3-10.45,6.53-2.3.36-2.83,2.31-1.77,3.72,6.2,5.13,6.2,10.09,1.24,15-2.83,1.24-5.31,1.42-6.9-1.77a4.84,4.84,0,0,1-.18-2.83c1.59-2.48,1.77-4.78-.18-6.19a4.5,4.5,0,0,0-5.31,0c-2.12,1.6-2.12,4.07-.53,6.38a5.17,5.17,0,0,1-.53,4.78c-2.3,1.24-4.07.53-6.19-.89a10,10,0,0,1-2.13-8.32,24.38,24.38,0,0,1,3.72-6.2A18.64,18.64,0,0,0,112,140a23.85,23.85,0,0,0-7.79,7.43,24.09,24.09,0,0,1,4.78,6.2c.53,4.78-.89,7.79-3.9,9.2-2.12.36-3.54,0-4.25-1.77a21.38,21.38,0,0,1-.35-2.83c2.12-2.65,1.42-5.49-1.59-6.9a5.27,5.27,0,0,0-5.14,0c-2.12,2.12-2.3,4.25-.17,6.9a3.43,3.43,0,0,1,1.77,2.83c.17,1.41-1.07,2.13-2.31,2.31a5.49,5.49,0,0,1-4.78-1.59A11.1,11.1,0,0,1,84.94,151a24,24,0,0,1,3-4.43c.88-1.06-1.06-2.3-1.77-2.48-3.19-.53-4.25-1.06-4.25-1.41l-2.48-2.48A8.33,8.33,0,0,0,74,137.7c-2.48-.18-5.66-1.77-9.2-4.43a3.49,3.49,0,0,0-3-.17,2.71,2.71,0,0,0-.89,3c12.75,11.33,17,24.25,18.06,31.16H227.81c1.06-6.73,5.31-19.83,17.88-30.81a6.18,6.18,0,0,0-1.24-3.54"/><path id="path6" class="cls-3" d="M71.85,130.79a43.39,43.39,0,0,1,11,4.25,8.68,8.68,0,0,0,6.55-1.24A97,97,0,0,1,120.71,117c1.77-.53,2.83,0,2.3,1.77a30,30,0,0,0-10.27,14.52c0,1.77,1.24,2.66,3.9,2.48a6.56,6.56,0,0,1,5,.35c1.77.36,3.18-.17,4.42-3,1.24-8,6.2-13.45,13.28-17.34,3.19-.36,4.78,1.06,4.25,4.07-2.66,2.83-4.78,5.84-5.49,9.2.18,3,1.77,4.07,4.43,3.19,1.59,0,2.83-1.42,3.89-4.07a6.88,6.88,0,0,1,12.22,0c1.06,2.65,2.3,4.07,3.71,4.07,2.83.88,4.43-.18,4.78-3.19a21.57,21.57,0,0,0-5.49-9.2c-.35-3,1.06-4.43,4.25-4.07,7.08,3.89,12,9.38,13.28,17.34,1.06,2.84,2.65,3.54,4.25,3a5.66,5.66,0,0,1,5.13-.35c2.66.18,3.89-.53,3.89-2.48a30,30,0,0,0-10.26-14.52c-.53-1.77.35-2.47,2.3-1.77a93.65,93.65,0,0,1,31.34,16.82,8.69,8.69,0,0,0,6.55,1.24c3.18-2.12,6.9-3.18,11-4.25,2.48-.35,3.37-2.3,2.66-5.13a11,11,0,0,0-8.14-4.78,4.21,4.21,0,0,1-3.72-1.24c-2.3-3.89-6.37-5.31-11.86-4.43-2.66-3-6.37-3.71-10.27-3.54-3.54-3.71-7.43-4.07-11.5-3.36-4.43-2.83-8.68-3.89-12.05-2.12a15.18,15.18,0,0,0-14.69,1.23,12.25,12.25,0,0,0-6.73-6.55V97.51h5.31V92.2H157V86.71h-9V92.2h-5.31v5.31H148v3.72a11.19,11.19,0,0,0-6.73,6.55,15.23,15.23,0,0,0-14.69-1.24c-3.72-1.77-7.79-.89-12,2.12-4.08-.88-8-.35-11.51,3.37-4.07-.18-7.61.35-10.27,3.54-5.49-.89-9.56.53-11.86,4.42a4.19,4.19,0,0,1-3.71,1.24A10.59,10.59,0,0,0,69,126c-.53,2.66.36,4.43,2.84,4.78m80.9-26.73c2.83,0,5.13,2.83,5.13,6.55s-2.3,6.73-5.13,6.73-5.31-3-5.31-6.73,2.48-6.55,5.31-6.55"/><path id="path8" class="cls-3" d="M78.39,191.16H227.28v-14H78.39Zm132.07-10.8a4.08,4.08,0,1,1-4.07,4.07h0a4,4,0,0,1,3.94-4.07h.13m-28.5,0a4.08,4.08,0,1,1-4.08,4.07h0a4.12,4.12,0,0,1,4.08-4.07m-29.21,0a4.08,4.08,0,1,1-4.07,4.07,4,4,0,0,1,3.94-4.07h.13m-29.21,0a4.08,4.08,0,1,1-4.07,4.07h0a4,4,0,0,1,3.94-4.07h.13m-28.68,0a4.08,4.08,0,1,1-4.07,4.07h0a4,4,0,0,1,3.94-4.07h.13"/><rect id="rect10" class="cls-3" x="78.39" y="170.27" width="148.88" height="3.72"/></g></g></g></g></g></svg>