<svg xmlns="http://www.w3.org/2000/svg" viewBox="0 0 718.99 765.59"><defs><style>.cls-1{fill:#fff;}.cls-2,.cls-3{fill:#612f0e;}.cls-2{fill-rule:evenodd;}.cls-4{fill:#ce112d;}</style></defs><g id="Capa_2" data-name="Capa 2"><g id="Capa_1-2" data-name="Capa 1"><path d="M475.18,101.73c92.2,3.12,162.09,44.92,210,123.31,23.78,38.9,35.08,81.7,33.69,127.54-.74,24.48-7.87,47.51-16.28,70.19-20.1,54.19-48.77,104-79.43,152.67-38.51,61.15-80.75,119.67-125.51,176.39-1.42,1.8-2.84,3.62-4.35,5.35-9.78,11.17-26.27,11.36-35.58-.28C389.5,671.69,325.63,583.51,275.48,486.15c-14.76-28.65-27.35-58.27-36-89.4-14-50.24-8.27-99.26,12.46-146.11,35-79.1,95.56-127.61,180.55-144.94A187.08,187.08,0,0,1,475.18,101.73Z"/><path class="cls-1" d="M668.4,346.08c-.1,106.69-86.1,192.18-193.26,192.12-107.38-.06-192.57-86-192.39-194.17.17-106.51,86.34-191.62,193.85-191.48C583.3,152.69,668.51,238.66,668.4,346.08Z"/><path class="cls-2" d="M355.48,297.71a47.67,47.67,0,1,0,47.66,47.66A47.66,47.66,0,0,0,355.48,297.71Zm29.75,65.36a3.28,3.28,0,0,1-.11.84,2.86,2.86,0,0,1-.33.73,2.08,2.08,0,0,1-.32.4,2.6,2.6,0,0,1-1.9.79,2.64,2.64,0,0,1-1.79-.7,1.57,1.57,0,0,1-.18-.19,2.83,2.83,0,0,1-.64-1.87V342.36c0-5.24-.93-9.18-2.69-11.71a11.81,11.81,0,0,0-2-2.2,12.82,12.82,0,0,0-2.64-1.77h0l-.06,0a11.89,11.89,0,0,0-5.66-1.43h-.57a11.89,11.89,0,0,0-5.65,1.41l-.13.07a12.52,12.52,0,0,0-1.31.76,17.37,17.37,0,0,1,1,1.52,19,19,0,0,1,2.17,5.94,33.86,33.86,0,0,1,.42,3.61h0v0c.09,1.4.14,3,.14,4.65v19.85a3.28,3.28,0,0,1-.11.84,2.86,2.86,0,0,1-.33.73,2.06,2.06,0,0,1-.32.41,2.61,2.61,0,0,1-1.9.78,2.68,2.68,0,0,1-1.79-.7,1.57,1.57,0,0,1-.18-.19,2.83,2.83,0,0,1-.64-1.87V342.36c0-4.76-.76-8.45-2.22-11-1.46,2.52-2.21,6.21-2.23,11v20.71a2.6,2.6,0,0,1-2.6,2.76,2.62,2.62,0,0,1-2.66-2.76V343.22c0-1.72,0-3.3.14-4.68a33.45,33.45,0,0,1,.41-3.63,19.2,19.2,0,0,1,2.17-5.94,17.4,17.4,0,0,1,1-1.52,14.78,14.78,0,0,0-1.33-.77h0l-.06,0a11.86,11.86,0,0,0-5.66-1.43h-.56a11.93,11.93,0,0,0-5.66,1.41l0,0-.09,0a12.72,12.72,0,0,0-2.63,1.76,12.12,12.12,0,0,0-2,2.2c-1.77,2.53-2.67,6.47-2.69,11.71v20.71a2.64,2.64,0,1,1-5.27,0V343.22c0-1.72,0-3.3.14-4.68a32.32,32.32,0,0,1,.42-3.63,18.93,18.93,0,0,1,2.16-5.94,18,18,0,0,1,4.76-5.31,17.63,17.63,0,0,1,2.28-1.46l.26-.15a17.63,17.63,0,0,1,7.86-2.1h1.48a17.55,17.55,0,0,1,7.85,2.1l.24.13a19.32,19.32,0,0,1,2.3,1.48,17.83,17.83,0,0,1,2.27-1.46L358,322a17.52,17.52,0,0,1,7.83-2.09h1.49a17.48,17.48,0,0,1,7.84,2.1l.08,0,.17.09a20.88,20.88,0,0,1,2.31,1.48A18.09,18.09,0,0,1,382.5,329a19.2,19.2,0,0,1,2.17,5.94,34,34,0,0,1,.42,3.63v0c.09,1.36.14,2.92.14,4.63Z"/><path class="cls-3" d="M414.29,364.94a3.13,3.13,0,0,1-3.13-3.12V325.1a3.13,3.13,0,0,1,6.25,0v36.72A3.12,3.12,0,0,1,414.29,364.94Z"/><path class="cls-3" d="M449.26,365.35a33,33,0,0,1-10-1.51,26,26,0,0,1-5.28-2.26,2.9,2.9,0,0,1,1.45-5.4,2.81,2.81,0,0,1,1.41.38,25.05,25.05,0,0,0,4.48,1.95,26.61,26.61,0,0,0,8.31,1.31c3.8,0,6.65-.59,8.45-1.77a5.48,5.48,0,0,0,2.67-4.91,4.39,4.39,0,0,0-1.44-3.47,10,10,0,0,0-3.78-2,57.54,57.54,0,0,0-6.18-1.32,72.46,72.46,0,0,1-8.35-2,12.43,12.43,0,0,1-5.48-3.5,9.81,9.81,0,0,1-2.29-6.87,10.82,10.82,0,0,1,4.54-8.93c3-2.28,7.2-3.44,12.51-3.44a32.35,32.35,0,0,1,8.29,1.1,27,27,0,0,1,4.44,1.56,2.8,2.8,0,0,1,1.49,1.67,2.88,2.88,0,0,1-.21,2.26,2.84,2.84,0,0,1-2.49,1.48,2.71,2.71,0,0,1-1.27-.31,22.05,22.05,0,0,0-10.25-2.32c-3.59,0-6.33.64-8.13,1.89a5.66,5.66,0,0,0-2.67,4.88,4.78,4.78,0,0,0,1.49,3.68,9.44,9.44,0,0,0,3.81,2.08,65.78,65.78,0,0,0,6.43,1.41,72.39,72.39,0,0,1,8.18,1.94,12.3,12.3,0,0,1,5.36,3.38A9.39,9.39,0,0,1,467,353a10.56,10.56,0,0,1-4.75,9C459.15,364.23,454.77,365.35,449.26,365.35Z"/><path class="cls-3" d="M492.46,365.35c-4,0-7.19-1.11-9.38-3.31s-3.31-5.32-3.31-9.3V315.82a3.13,3.13,0,1,1,6.25,0V322h10.15a2.68,2.68,0,0,1,0,5.36H486v25.08a7.89,7.89,0,0,0,1.79,5.59,6.83,6.83,0,0,0,5.22,1.9,9.77,9.77,0,0,0,4.28-.89,2.54,2.54,0,0,1,1.08-.24,2.59,2.59,0,0,1,1.27,4.84,12.91,12.91,0,0,1-2.2.95A16,16,0,0,1,492.46,365.35Z"/><path class="cls-3" d="M531.18,365.35c-5.59,0-10.06-1.59-13.3-4.72S513,352.87,513,346.85V325.1a3.13,3.13,0,0,1,6.25,0v21.18c0,4.38,1.09,7.74,3.24,10s5.26,3.39,9.25,3.39c4.37,0,7.87-1.34,10.39-4s3.8-6.41,3.8-11.16V325.1a3.13,3.13,0,0,1,6.25,0v36.84a3,3,0,0,1-6,0v-4.09a16.15,16.15,0,0,1-5.83,5.33A19,19,0,0,1,531.18,365.35Z"/><path class="cls-3" d="M574.7,364.94a3.13,3.13,0,0,1-3.13-3.12V325a3,3,0,0,1,6,0v4.49a14.13,14.13,0,0,1,5.63-5.61,19.83,19.83,0,0,1,8.64-2.18h.07a1.56,1.56,0,0,1,1.56,1.56v2.87a1.56,1.56,0,0,1-1.55,1.55h-.1c-4.35,0-7.82,1.36-10.28,4s-3.73,6.51-3.73,11.37v18.76A3.12,3.12,0,0,1,574.7,364.94Z"/><path class="cls-3" d="M640.21,322a3.13,3.13,0,0,0-3.12,3.13v4.36a17.93,17.93,0,0,0-6.44-5.64,20.41,20.41,0,0,0-9.44-2.17,22.1,22.1,0,0,0-10.94,2.74,19.65,19.65,0,0,0-7.69,7.73,24.52,24.52,0,0,0,0,22.68,19.88,19.88,0,0,0,7.69,7.77,21.92,21.92,0,0,0,10.94,2.78,20.29,20.29,0,0,0,9.68-2.29,17.7,17.7,0,0,0,6.44-5.88v4.76a3,3,0,0,0,6,0V325.1A3.13,3.13,0,0,0,640.21,322Zm-5.07,30a14.43,14.43,0,0,1-5.55,5.75,15.69,15.69,0,0,1-7.9,2,15.85,15.85,0,0,1-8-2,14.43,14.43,0,0,1-5.55-5.75,18.94,18.94,0,0,1,0-17,14.37,14.37,0,0,1,5.55-5.75,15.86,15.86,0,0,1,8-2,15.69,15.69,0,0,1,7.9,2,14.43,14.43,0,0,1,5.55,5.75,18.85,18.85,0,0,1,0,17Z"/><circle cx="153.19" cy="153.19" r="153.19"/><g id="Capa_2-2" data-name="Capa 2"><g id="Capa_1-2-2" data-name="Capa 1-2"><path class="cls-4" d="M169.51,155.87,213.36,149l-43.85-7,17-26.2-25.9,16.79L153,52.27l-7.08,80.25L120,115.73l17,26.2L93,149l43.86,6.91-17,26.37,25.9-16.83,7.08,88.7,7.51-88.7,25.9,16.83Z"/></g></g></g></g></svg>