<svg xmlns="http://www.w3.org/2000/svg" viewBox="0 0 90.96 89.59"><defs><style>.cls-1{fill:#575756;}</style></defs><g id="Capa_2" data-name="Capa 2"><g id="Capa_1-2" data-name="Capa 1"><path class="cls-1" d="M65.46,89.59a1.61,1.61,0,0,1-1.24-.67,26,26,0,0,0-4-4.09,12.43,12.43,0,0,0-7.83-2.62,15.67,15.67,0,0,0-1.66.09l-1.16.14-1,.14h-.13a1.34,1.34,0,0,1-1-.47A1.7,1.7,0,0,1,47,80.73a3,3,0,0,0-.58-2.47,3,3,0,0,0-2.38-.91c-2.28,0-4.51,0-6.74,0H17.5a7.55,7.55,0,0,1-7.75-6.12Q7.28,60.65,4.88,50l-1.5-6.58-.93-4C1.67,36.09.86,32.6.15,29.17A7.52,7.52,0,0,1,1.67,23,7.68,7.68,0,0,1,7.58,20.1l3.48,0q1.56,0,3.12,0h.12a3.08,3.08,0,0,0,3.24-2.63A21.75,21.75,0,0,1,35.58.26,20.49,20.49,0,0,1,38.81,0,21.83,21.83,0,0,1,59.88,16.9c.53,2.54,1.35,3.19,4,3.19h5.91a7.65,7.65,0,0,1,7.55,9.4C76.7,32.33,76,35.22,75.39,38c-.32,1.37-.63,2.75-1,4.13a3.14,3.14,0,0,0,.34,2.75,3.11,3.11,0,0,0,2.58,1l1.37,0a16.36,16.36,0,0,0,2.7-.2,5,5,0,0,1,.87-.09,2.67,2.67,0,0,1,.6.07c.92.25,1.11,1.26,1,2.12a18.31,18.31,0,0,0,0,5.91c.65,3.71,3,6.21,5.54,8.36.16.14.32.28.49.41s.34.27.5.42A1.61,1.61,0,0,1,91,64.12a1.63,1.63,0,0,1-.59,1.18c-.41.36-.83.71-1.25,1l-.48.39c-4.09,3.37-5.69,7.92-4.78,13.52A2.32,2.32,0,0,1,83.59,82a1.41,1.41,0,0,1-1,.51h-.28a9.71,9.71,0,0,1-1.37-.15,14.86,14.86,0,0,0-2.46-.21c-4.12,0-7.71,1.83-10.67,5.43l-1.06,1.28A1.73,1.73,0,0,1,65.46,89.59Zm0-45.94a2.93,2.93,0,0,0-2.06.92A15.21,15.21,0,0,1,53.05,49a2.68,2.68,0,0,0-2.73,2.78,14.61,14.61,0,0,1-4.26,10.17,2.91,2.91,0,0,0,0,4.36,14.43,14.43,0,0,1,4.19,9.49,3.28,3.28,0,0,0,3.41,3.51,14.48,14.48,0,0,1,9.81,4.38,2.83,2.83,0,0,0,2,.89h0a2.89,2.89,0,0,0,2-.9,15.79,15.79,0,0,1,4.8-3.23,14.49,14.49,0,0,1,5-1.16h.16c2.79,0,3.13-2,3.15-2.9A15,15,0,0,1,85.07,66,2.87,2.87,0,0,0,86,64.1l0-.78-.6-.73c-.14-.18-.3-.37-.47-.56a14.85,14.85,0,0,1-4.36-10.16A2.76,2.76,0,0,0,77.82,49a15.36,15.36,0,0,1-10.29-4.41A2.92,2.92,0,0,0,65.48,43.65ZM43.1,74.42a3.45,3.45,0,0,0,.6,0A2.36,2.36,0,0,0,45.94,73a2.54,2.54,0,0,0-.47-2.65l-.06-.07a22.15,22.15,0,0,0-4.78-5A1.58,1.58,0,0,1,40,64.16a1.63,1.63,0,0,1,.58-1.22,8.3,8.3,0,0,1,.64-.54l.4-.33c2.58-2.18,5.56-5.31,5.73-10.26A22.6,22.6,0,0,0,47,47.68a1.84,1.84,0,0,1,.33-1.5,1.66,1.66,0,0,1,1.28-.5c.44,0,.84.07,1.28.12a18.52,18.52,0,0,0,2.38.16,12.59,12.59,0,0,0,9.6-4.09c.44-.48.88-1,1.31-1.46l1.1-1.23a1.34,1.34,0,0,1,1.07-.49,2.73,2.73,0,0,1,.65.09c.37.09.7.48,1.21,1.11l.3.36a2.47,2.47,0,0,0,2.1,1.25A2.36,2.36,0,0,0,72,39.16h0v0c.78-3.37,1.56-6.74,2.31-10.11a4.76,4.76,0,0,0-4.75-6H63.35a2.84,2.84,0,0,0-2.12.81,3,3,0,0,0-.77,2.25c0,.94,0,1.89,0,2.84v1.7c0,.29,0,.59,0,.88a1.63,1.63,0,0,1-1.52,1.8,1.65,1.65,0,0,1-1.52-1.71c-.06-1.57-.07-3.24,0-5.25A2.94,2.94,0,0,0,54.21,23L46.7,23H30.82c-2.5,0-5,0-7.51,0h0a3.28,3.28,0,0,0-2.44.88,3.31,3.31,0,0,0-.8,2.45c.07,1.79,0,3.65,0,5.39A1.53,1.53,0,0,1,19,33.21a1.8,1.8,0,0,1-.45.06c-.85,0-1.47-.74-1.5-1.8-.05-1.62-.06-3.35,0-5.28a3.12,3.12,0,0,0-.8-2.33A3,3,0,0,0,14,23H13.8c-1,0-1.94,0-2.91,0s-1.61,0-2.34,0h-.3a5.17,5.17,0,0,0-4.17,1.85,5.29,5.29,0,0,0-.83,4.7C5.53,39.33,7.81,49.28,10,58.91l2.52,11c.73,3.21,2.38,4.53,5.68,4.53H43.1ZM38.49,3.1a18.66,18.66,0,0,0-17.6,13.22,2.94,2.94,0,0,0,.18,2.8,3,3,0,0,0,2.69,1h29.8a3.16,3.16,0,0,0,2.87-1,3.21,3.21,0,0,0,.09-3A18.59,18.59,0,0,0,38.65,3.1Z"/><path class="cls-1" d="M59.58,71.45a1.43,1.43,0,0,1-1-.43,1.51,1.51,0,0,1,0-2.14c3.64-3.69,7.44-7.49,11.63-11.63a1.35,1.35,0,0,1,1-.47,1.7,1.7,0,0,1,.71.17c.39.17.83.36.86,1.77a2,2,0,0,1-.44.63L70.1,61.58q-4.69,4.71-9.42,9.4A1.55,1.55,0,0,1,59.58,71.45Z"/><path class="cls-1" d="M59.18,59.17a1.53,1.53,0,0,1-1.57-1.46,1.37,1.37,0,0,1,.4-1,1.49,1.49,0,0,1,1.07-.47,1.52,1.52,0,0,1,1.58,1.43,1.44,1.44,0,0,1-.42,1,1.49,1.49,0,0,1-1.05.46Z"/><path class="cls-1" d="M71.92,72a1.51,1.51,0,0,1-1.46-1.58A1.49,1.49,0,0,1,71.91,69a1.52,1.52,0,0,1,0,3Z"/></g></g></svg>