<svg xmlns="http://www.w3.org/2000/svg" viewBox="0 0 244.78 46.76"><defs><style>.cls-1{fill:#ce112d;}</style></defs><g id="Capa_2" data-name="Capa 2"><g id="Capa_1-2" data-name="Capa 1"><path class="cls-1" d="M242,21.11c-1.56-.9-3.65-1.42-5-2.05-1-.46-1.47-1.27-1-2.17s2.08-1.32,4.15-.71a9.22,9.22,0,0,1,3.38,2V14.08A14.47,14.47,0,0,0,237.17,13a7.27,7.27,0,0,0-4.7,1.69,5.44,5.44,0,0,0-1.93,4.08c-.08,2.4.91,3.76,3.22,5,1.79.94,3.62,1.35,4.63,1.95a1.55,1.55,0,0,1,.79,2.06c-.51,1.25-2.54,1.61-4.71.87a9.44,9.44,0,0,1-3.73-2.57v4.73a15.77,15.77,0,0,0,6.63,1.3c4.59-.08,7.23-2.53,7.4-5.72a5.17,5.17,0,0,0-2.84-5.3"/><path class="cls-1" d="M227,18.14a7.66,7.66,0,0,1,1.1-4.68h-8.06a7.69,7.69,0,0,1,1.12,4.68V27a7.57,7.57,0,0,1-1.12,4.68h8.06A7.63,7.63,0,0,1,227,27Z"/><path class="cls-1" d="M207.79,12.85c-5.79,0-10.5,3.83-10.5,9.72s4.71,9.72,10.5,9.72,10.5-3.82,10.5-9.72S213.6,12.85,207.79,12.85Zm0,16.42c-2.58,0-4.67-2.3-4.67-6.7s2.09-6.68,4.67-6.68,4.67,2.28,4.67,6.68S210.37,29.27,207.79,29.27Z"/><path class="cls-1" d="M192,31.67A7.5,7.5,0,0,1,190.84,27s0-10.14,0-10.49c.28,0,1.36,0,1.62,0A5.77,5.77,0,0,1,196.35,18l-.42-4.53h-16L179.47,18a5.81,5.81,0,0,1,3.89-1.47l1.63,0V27a7.57,7.57,0,0,1-1.12,4.68Z"/><path class="cls-1" d="M178.8,29.25c-.92-1.3-1.43-2.16-1.88-2.85a7.56,7.56,0,0,0-3.53-3.16v0a4.63,4.63,0,0,0,4.28-4.92,4.62,4.62,0,0,0-2-3.87c-1.16-.76-2.5-1-5.11-1H160.29a7.7,7.7,0,0,1,1.12,4.69V27a7.6,7.6,0,0,1-1.12,4.68h7.82A8.15,8.15,0,0,1,167,26.93v-2.5h.22A2.59,2.59,0,0,1,169,25a8.27,8.27,0,0,1,1.73,2.14c.47.73.88,1.42,1.48,2.38A3.73,3.73,0,0,0,176,31.68h5.37A10.28,10.28,0,0,1,178.8,29.25Zm-8.38-8a7.92,7.92,0,0,1-3.47.39V16.29c2,0,3-.07,3.76.55a2.4,2.4,0,0,1,.95,2.14,2.47,2.47,0,0,1-1.24,2.31"/><path class="cls-1" d="M143.78,31.67a3.69,3.69,0,0,1-.11-3.4l.43-1.18h6.72s.36.79.49,1.18a3.85,3.85,0,0,1-.18,3.4h8.66a9.12,9.12,0,0,1-2.19-3.4c-.42-1-6.18-14.86-6.18-14.86h-6.86a3.34,3.34,0,0,1,.4,2.73s-4.29,11.18-4.7,12.15a8.36,8.36,0,0,1-2.16,3.38h5.68Zm1.42-7.61.73-2A27.29,27.29,0,0,0,147.26,18a0,0,0,0,1,0,0,27.48,27.48,0,0,0,1.45,4.16l.83,1.94H145.2Z"/><path class="cls-1" d="M125,24l10.16-1.63L125,20.77l3.93-6.07-6,3.89L121.15,0,119.5,18.59l-6-3.89,3.93,6.07L107.25,22.4,117.41,24l-3.93,6.08,6-3.9,1.65,20.55,1.73-20.55,6,3.9Z"/><path class="cls-1" d="M88,31.53a3.74,3.74,0,0,1-.12-3.42c.15-.43.43-1.17.43-1.17H95s.35.78.48,1.17a3.89,3.89,0,0,1-.18,3.42H104a9.43,9.43,0,0,1-2.2-3.42L95.6,13.26H88.74a3.31,3.31,0,0,1,.4,2.73s-4.29,11.19-4.71,12.15a9,9,0,0,1-2.14,3.39H88Zm1.41-7.64.73-2a27.45,27.45,0,0,0,1.34-4.08s0,0,0,0A25.16,25.16,0,0,0,92.94,22l.83,1.94H89.39Z"/><path class="cls-1" d="M73.81,18a7.61,7.61,0,0,1,1.11-4.7H66.74A7.68,7.68,0,0,1,67.87,18v8.84a7.73,7.73,0,0,1-1.13,4.71H81.82l.45-4.59a6.2,6.2,0,0,1-3.91,1.47H73.8V18Z"/><path class="cls-1" d="M57,18a7.61,7.61,0,0,1,1.11-4.7H49.92A7.75,7.75,0,0,1,51,18v8.84a7.8,7.8,0,0,1-1.12,4.71H65l.44-4.59a6.15,6.15,0,0,1-3.9,1.47H57Z"/><path class="cls-1" d="M44.71,28.42H39.56V23.19h2.22a5.79,5.79,0,0,1,3.86,1.28l-.41-4.33H39.56V16.36H44a5.83,5.83,0,0,1,3.88,1.26l-.42-4.32H32.5A7.63,7.63,0,0,1,33.62,18v8.85a7.63,7.63,0,0,1-1.12,4.7H48.17l.42-4.37a5.88,5.88,0,0,1-3.88,1.26"/><path class="cls-1" d="M27,31.53a7.66,7.66,0,0,1-1.11-4.71s0-10.13,0-10.48c.28,0,1.26,0,1.52,0a5.51,5.51,0,0,1,3.79,1.48l-.41-4.53H15.16l-.41,4.53a5.56,5.56,0,0,1,3.79-1.48l1.52,0V26.82a7.66,7.66,0,0,1-1.12,4.71Z"/><path class="cls-1" d="M11.37,21a42.84,42.84,0,0,0-5-2c-1-.48-1.46-1.3-1-2.18s2.07-1.31,4.15-.7a8.73,8.73,0,0,1,3.36,2V14a14.36,14.36,0,0,0-6.25-1.06,7.37,7.37,0,0,0-4.69,1.7A5.48,5.48,0,0,0,0,18.67c-.07,2.38.91,3.76,3.21,5C5,24.58,6.82,25,7.83,25.58a1.56,1.56,0,0,1,.79,2.05c-.51,1.26-2.53,1.6-4.7.87A9.18,9.18,0,0,1,.21,25.92v4.74a15.66,15.66,0,0,0,6.61,1.28c4.58-.08,7.22-2.51,7.37-5.69a5.18,5.18,0,0,0-2.82-5.32"/></g></g></svg>