<svg xmlns="http://www.w3.org/2000/svg" viewBox="0 0 718.99 765.59"><defs><style>.cls-1{fill:#fff;}.cls-2{fill:#263447;}.cls-3{fill:#c57144;}.cls-4{fill:#ce112d;}</style></defs><g id="Capa_2" data-name="Capa 2"><g id="Capa_1-2" data-name="Capa 1"><path d="M475.18,101.73c92.2,3.12,162.09,44.92,210,123.31,23.78,38.9,35.08,81.7,33.69,127.54-.74,24.48-7.87,47.51-16.28,70.19-20.1,54.19-48.77,104-79.43,152.67-38.51,61.15-80.75,119.67-125.51,176.39-1.42,1.8-2.84,3.62-4.35,5.35-9.78,11.17-26.27,11.36-35.58-.28C389.5,671.69,325.63,583.51,275.48,486.15c-14.76-28.65-27.35-58.27-36-89.4-14-50.24-8.27-99.26,12.46-146.11,35-79.1,95.56-127.61,180.55-144.94A187.08,187.08,0,0,1,475.18,101.73Z"/><path class="cls-1" d="M668.4,346.08c-.1,106.69-86.1,192.18-193.26,192.12-107.38-.06-192.57-86-192.39-194.17.17-106.51,86.34-191.62,193.85-191.48C583.3,152.69,668.51,238.66,668.4,346.08Z"/><path class="cls-2" d="M350,364.46a21,21,0,0,0,6,15,19.56,19.56,0,0,0,28.7,0,21,21,0,0,0,6-15v-75.9h4.58v75.9A25.78,25.78,0,0,1,388,382.89a24.09,24.09,0,0,1-35.22,0,25.78,25.78,0,0,1-7.28-18.43v-75.9H350Z"/><path class="cls-2" d="M495.89,390.54V339l-21.63-22.72-.56-.59-18.43-19.37v94.26h-4.58v-102h3.74l.42.58,20.8,21.71,21.21-22.29h3.6v102Zm0-94.26L478.83,314.2l17.06,18.06Z"/><path class="cls-2" d="M601.11,390.54v-42.4H560.49v42.4h-4.57V314.78a25.94,25.94,0,0,1,7.27-18.57,24.09,24.09,0,0,1,35.22,0,26,26,0,0,1,7.28,18.57v75.76ZM559.8,307.2c-.1.39-.19.78-.28,1.17.09-.39.18-.78.28-1.17m.69,7.58v28.54h40.62V314.78a21.21,21.21,0,0,0-6-15.15,19.56,19.56,0,0,0-28.7,0,21.21,21.21,0,0,0-6,15.15m.14-9.62c.18-.38.35-.72.48-1s.3-.6.49-.94.37-.66.56-.95c-.19.29-.38.61-.56.95s-.35.65-.49.94-.3.64-.48,1m3-5.24a5.25,5.25,0,0,0,.69-.87,5.25,5.25,0,0,1-.69.87,21.06,21.06,0,0,0-1.25,1.75,21.06,21.06,0,0,1,1.25-1.75m29.11-4.81a8.28,8.28,0,0,0-1-.58,8.28,8.28,0,0,1,1,.58"/><path class="cls-2" d="M474.83,262.31a10,10,0,1,0,9.55,10,9.81,9.81,0,0,0-9.55-10m0,15.57a5.54,5.54,0,1,1,5.27-5.54,5.42,5.42,0,0,1-5.27,5.54"/><path class="cls-2" d="M385.58,430.06a5,5,0,0,1-2.06-.44,4.86,4.86,0,0,1-1.69-1.19,5.2,5.2,0,0,1-1.13-1.77,5.64,5.64,0,0,1-.42-2.15,5.7,5.7,0,0,1,.42-2.17,5.3,5.3,0,0,1,1.13-1.77,5.14,5.14,0,0,1,1.69-1.19,5,5,0,0,1,4.44.16,5.59,5.59,0,0,1,1.83,1.6l-1.39,1.1a3.68,3.68,0,0,0-1.22-1.07,3.51,3.51,0,0,0-1.6-.4,3.36,3.36,0,0,0-2.51,1.1,3.82,3.82,0,0,0,0,5.26,3.36,3.36,0,0,0,2.51,1.1,3.42,3.42,0,0,0,1.8-.52,3.59,3.59,0,0,0,1.28-1.37l1.51.92a5.4,5.4,0,0,1-1.91,2,5.12,5.12,0,0,1-2.68.77"/><path class="cls-2" d="M394,429.9l5.42-11.26,5.43,11.26h-2l-.92-1.93h-5.09l-.94,1.93Zm3.55-3.3h3.75l-1.88-3.86Z"/><polygon class="cls-2" points="418.6 419.05 418.6 430.34 411.2 423.18 411.2 429.89 409.31 429.89 409.31 418.65 416.71 425.84 416.71 419.05 418.6 419.05"/><polygon class="cls-2" points="431.64 420.73 428.39 420.73 428.39 429.9 426.5 429.9 426.5 420.73 423.25 420.73 423.25 419.05 431.64 419.05 431.64 420.73"/><rect class="cls-2" x="436.29" y="419.05" width="1.89" height="10.85"/><polygon class="cls-2" points="452.12 419.05 452.12 430.34 444.72 423.18 444.72 429.89 442.83 429.89 442.83 418.65 450.23 425.84 450.23 419.05 452.12 419.05"/><path class="cls-2" d="M456.77,429.9l5.43-11.26,5.43,11.26h-2l-.93-1.93h-5.08l-.94,1.93Zm3.56-3.3h3.74l-1.87-3.86Z"/><path class="cls-2" d="M486.84,422.19a3.56,3.56,0,0,1-.23,1.31,2.82,2.82,0,0,1-.59.95,3.2,3.2,0,0,1-2.21.88h-3v4.56H479V419.05h4.82a3.42,3.42,0,0,1,1.48.38,2.93,2.93,0,0,1,1.58,2.76m-1.59,0a1.27,1.27,0,0,0-.66-1.23,2.11,2.11,0,0,0-.82-.23h-2.92v2.92h2.95a1.7,1.7,0,0,0,1.1-.41,1.45,1.45,0,0,0,.35-1.05"/><polygon class="cls-2" points="493.38 420.73 493.38 423.63 498.54 423.63 498.54 425.3 493.38 425.3 493.38 428.22 499.17 428.22 499.17 429.9 491.49 429.9 491.49 419.05 499.17 419.05 499.17 420.73 493.38 420.73"/><path class="cls-2" d="M507.42,425.33h-1.71v4.57h-1.89V419.05h4.82a3.42,3.42,0,0,1,1.48.38,2.94,2.94,0,0,1,1.59,2.76,3.78,3.78,0,0,1-.23,1.31,2.84,2.84,0,0,1-.6.95,2.92,2.92,0,0,1-1.42.79l2.93,4.66H510.3Zm-1.71-1.67h3a1.71,1.71,0,0,0,1.1-.42,1.45,1.45,0,0,0,.35-1.05,1.27,1.27,0,0,0-.68-1.25,1.93,1.93,0,0,0-.8-.21h-2.92Z"/><path class="cls-2" d="M526,425.9a5.12,5.12,0,0,1-1.22,2.87,3.66,3.66,0,0,1-1.35.94,5.31,5.31,0,0,1-3.79,0,3.74,3.74,0,0,1-1.35-.94,4.47,4.47,0,0,1-.68-1,5.36,5.36,0,0,1-.49-1.56,11.53,11.53,0,0,1-.09-1.77v-5.38h1.89V425a3.56,3.56,0,0,0,.74,2.52,2.42,2.42,0,0,0,1.88.69,2.45,2.45,0,0,0,1.88-.69,3.61,3.61,0,0,0,.74-2.52v-5.9h1.89v5.38a12,12,0,0,1,0,1.47"/><path class="cls-2" d="M530.71,429.9l5.43-11.26,5.43,11.26h-2l-.93-1.93h-5.09l-.94,1.93Zm3.55-3.3H538l-1.87-3.86Z"/><polygon class="cls-2" points="555.36 419.05 555.36 430.34 547.96 423.18 547.96 429.89 546.07 429.89 546.07 418.65 553.48 425.84 553.48 419.05 555.36 419.05"/><path class="cls-2" d="M560,429.9l5.43-11.26,5.43,11.26h-2L568,428H562.9L562,429.9Zm3.56-3.3h3.75l-1.88-3.86Z"/><path class="cls-3" d="M420,446.48c-.21-.69,3.54-2.08,5.28-3.36,2.53-1.84,4.06-4.41,3.61-4.83s-2.29.14-4.2,1.22-7.08,5.1-8.4,9.93,2.43,6.42,5.27,5.17c.45-.21,2.19-1.39,1,.24-1.05,1.42-6.18,1.49-7.12-2.33-.73-3,.83-7.67,6.39-12.73s7.42-3.68,7.88-3.37,1,.66.52,2.36a9.5,9.5,0,0,1-3.34,4.27c-2.91,2.15-6.8,3.68-6.87,3.43"/><path class="cls-3" d="M434,447.21c-.34-.45-.9-.45-1.66-.27a13,13,0,0,0-3,2c-.66.56-2.63,2.36-2.32,3.09s1.11.52,2.18.14a11.73,11.73,0,0,0,2.95-1.77c.63-.52,1.95-2.22,2.05-2.25a2.18,2.18,0,0,1,1,.41c.17.14-1,1.32-1.22,1.56s.66,1.74,2.5,1.81,4.13-1.91,4.31-1.91.1.49.07.59a8.63,8.63,0,0,1-2.92,1.74,3.92,3.92,0,0,1-3.57-.14c-.8-.49-1.6-1.5-1.74-1.5a12,12,0,0,1-2.71,2c-2.43,1.25-3.81,1-4.44.42s-.38-1.94,2.19-4.41,4.82-3.12,5.62-3.16a2.14,2.14,0,0,1,1.84,1c.07.28-.76,1.08-.87,1.08a3.16,3.16,0,0,1-.28-.35"/><path class="cls-3" d="M440.55,450.13a6.47,6.47,0,0,0,3-4.69c0-.41.59.32,1,.8a15.51,15.51,0,0,1,2.05,2.4c0,.31,0,3.09,1.8,3.54,2.36.59,4.83-1,5.66-1.63s1,.06.49.41a13.6,13.6,0,0,1-2.26,1.39,6.76,6.76,0,0,1-4.17,1c-1.52-.32-2.56-1.6-2.53-4.2,0-.56-1.6-1.15-1.94-1s-1.91,2-3.27,2.64a.36.36,0,0,1-.34,0c-.14-.11-.25-.21.24-.52Z"/><path class="cls-3" d="M466.09,450.79c-1.63,1.32-7.22,2.95-9.92,2.57s-2.36-3.79-2.16-4.65,1.91-4.07,1.91-4.07-3.33.35-3.85.39.31-1.15.49-1.25,3.85.07,3.85.07a14.21,14.21,0,0,1,3.09-3.23c2.6-2.12,3.05-1,3.05-.35a20.15,20.15,0,0,1-1.11,3.51s3.13,0,4.41,0,1,.41.52.62a43.29,43.29,0,0,1-5.59,0,22.25,22.25,0,0,1-1.7,2.22,29.26,29.26,0,0,1-3.68,3.3s-.66,2.22,2.4,2.5,6.59-1.39,7.46-1.87,2.43-1.12.83.24m-10.58-2.22c0,.24.28.14.9-.49s3.47-3.64,3.47-3.64l-2.19.17s-2.25,2.74-2.18,4m2.84-4.86h2.26s1.25-2.71,1-2.85-1.59.59-3.23,2.85"/><path class="cls-3" d="M473.83,447.21c-.34-.45-.9-.45-1.66-.27a13,13,0,0,0-3,2c-.66.56-2.64,2.36-2.32,3.09s1.11.52,2.18.14a12.11,12.11,0,0,0,2.95-1.77c.63-.52,1.95-2.22,2.05-2.25a2.18,2.18,0,0,1,1,.41c.17.14-1,1.32-1.22,1.56s.66,1.74,2.5,1.81,4.13-1.91,4.31-1.91.1.49.07.59a8.63,8.63,0,0,1-2.92,1.74,4,4,0,0,1-3.58-.14c-.79-.49-1.59-1.5-1.73-1.5a12.33,12.33,0,0,1-2.71,2c-2.43,1.25-3.82,1-4.44.42s-.38-1.94,2.19-4.41,4.82-3.12,5.62-3.16a2.16,2.16,0,0,1,1.84,1c.07.28-.77,1.08-.87,1.08a3.16,3.16,0,0,1-.28-.35"/><path class="cls-3" d="M490.49,453.32a38.37,38.37,0,0,1-4.3,1.84,21.92,21.92,0,0,1-3.85,7.64c-2.68,3.12-4.59,4.48-6.39,4.65s-5.48-.24-2.81-4.86,11.87-8.26,12.08-8.43.59-2.43.27-2.3-3.47,1.74-4.65,1.6-1.87-2.36-.76-3.89a13.56,13.56,0,0,1,3-2.91c2.12-1.29,5.35-1.91,5.35.38s-1.88,6.87-1.88,6.87,4.86-1.56,6.25-2.84,2.78,0-2.33,2.25m-5.65,2.12a33.54,33.54,0,0,0-8,4.75c-3.85,3.16-3.33,5.91-2.08,5.91s5.21-2,7.15-4.66a23.58,23.58,0,0,0,2.92-6m2.29-8.26c-.39-.8-1.7-.52-3.09.52s-3.06,2.95-2.88,4c.24,1.22,1.73.73,3.68-.38s2.63-3.33,2.29-4.13"/><path class="cls-3" d="M504.41,450.55a11.22,11.22,0,0,1-7.81,2.84c-3.82.14-5.52-3.37-2.78-5.93s4.86-2.33,5.35-1.57.21,1.46-.59,2.43-4.27,2.47-4.27,2.47a2.78,2.78,0,0,0,2.6,1.77c4,.52,7-2.33,7.47-2.47s0,.46,0,.46m-7.18-2.23c1-.9,1.18-1.63.59-1.8s-3.41,1.56-3.68,3.09a5.58,5.58,0,0,0,3.09-1.29"/><path class="cls-3" d="M507.6,446.62c-.27.84-1.56,3.54-1.32,3.54s6.56-4.89,7.54-4.75,1.56,1.73,1.77,2.36,1,3.05,1.42,3.19a8.8,8.8,0,0,0,4.06-.55c1.49-.63,3-1.53,3.23-1.5s.49.52.31.63a30.87,30.87,0,0,1-4.93,2.32c-1.94.63-3.78.77-4.37.14a9,9,0,0,1-1.35-3.26c-.18-.76-.49-1.91-2.75-.69a47.56,47.56,0,0,0-6,4.16c-.9.77-1.11,1.29-1.67,1.25s-1.21-.59-.34-1.8a49.46,49.46,0,0,0,2.7-5c.11-.2,2-.83,1.7,0"/><path class="cls-3" d="M531.27,447.21c-.34-.45-.9-.45-1.66-.27a13,13,0,0,0-3,2c-.66.56-2.64,2.36-2.32,3.09s1.11.52,2.18.14a12.11,12.11,0,0,0,2.95-1.77c.63-.52,2-2.22,2.05-2.25a2.18,2.18,0,0,1,1,.41c.17.14-1,1.32-1.22,1.56s.66,1.74,2.5,1.81,4.13-1.91,4.31-1.91.1.49.07.59a8.63,8.63,0,0,1-2.92,1.74,3.92,3.92,0,0,1-3.57-.14c-.8-.49-1.6-1.5-1.74-1.5a12,12,0,0,1-2.71,2c-2.43,1.25-3.82,1-4.44.42s-.38-1.94,2.19-4.41,4.82-3.12,5.62-3.16a2.16,2.16,0,0,1,1.84,1c.07.28-.76,1.08-.87,1.08a3.16,3.16,0,0,1-.28-.35"/><circle cx="153.19" cy="153.19" r="153.19"/><g id="Capa_2-2" data-name="Capa 2"><g id="Capa_1-2-2" data-name="Capa 1-2"><path class="cls-4" d="M169.51,155.87,213.36,149l-43.85-7,17-26.2-25.9,16.79L153,52.27l-7.08,80.25L120,115.73l17,26.2L93,149l43.86,6.91-17,26.37,25.9-16.83,7.08,88.7,7.51-88.7,25.9,16.83Z"/></g></g></g></g></svg>