<svg xmlns="http://www.w3.org/2000/svg" viewBox="0 0 718.99 765.59"><defs><style>.cls-1{fill:#fff;}.cls-2{fill:#1d1d1b;}.cls-3{fill:#ffc627;}</style></defs><g id="Capa_2" data-name="Capa 2"><g id="Capa_1-2" data-name="Capa 1"><path d="M475.18,101.73c92.2,3.12,162.09,44.92,210,123.31,23.78,38.9,35.08,81.7,33.69,127.54-.74,24.48-7.87,47.51-16.28,70.19-20.1,54.19-48.77,104-79.43,152.67-38.51,61.15-80.75,119.67-125.51,176.39-1.42,1.8-2.84,3.62-4.35,5.35-9.78,11.17-26.27,11.36-35.58-.28C389.5,671.69,325.63,583.51,275.48,486.15c-14.76-28.65-27.35-58.27-36-89.4-14-50.24-8.27-99.26,12.46-146.11,35-79.1,95.56-127.61,180.55-144.94A187.08,187.08,0,0,1,475.18,101.73Z"/><path class="cls-1" d="M668.4,346.08c-.1,106.69-86.1,192.18-193.26,192.12-107.38-.06-192.57-86-192.39-194.17.17-106.51,86.34-191.62,193.85-191.48C583.3,152.69,668.51,238.66,668.4,346.08Z"/><path class="cls-2" d="M329.34,287.49v57.92c0,22,12.06,31.66,24.24,31.66,12.94,0,26-10.55,26-33.42V287.49h1.88v56.42c0,24.87-14.57,34.92-29.65,34.92-16.2,0-33.16-11.68-33.16-32.41V287.49Z"/><path class="cls-2" d="M389.14,378.2V312.62l10.8-7.29V378.2Zm10.8-49.37c1.64-8.92,11.44-23.37,22-23.37a18.61,18.61,0,0,1,6.66,1.51l-5.15,11.81c-.51-2.39-3.14-4.15-6.16-4.15-8.17,0-17.34,13.19-17.34,22Z"/><path class="cls-2" d="M455.47,305.33c18,0,25.63,14.2,25.63,28.27v32.17c0,6.91.63,10.55,2,12.69-7.66,0-12.06-5.78-12.06-11.19v-4.64c-2.51,7.53-11.3,15.83-23.49,15.83-13.19,0-22.49-9.68-22.49-22.12,0-24.12,34.3-26.51,37.06-46.61a13.63,13.63,0,0,0-8.54-2.76c-8.17,0-12.19,5.4-12.19,14.7l-11.93,4.14c.75-12.31,13.31-20.48,26-20.48m-19.72,50.13c0,11.19,5.53,19,14.57,19,11.06,0,20.1-11.93,20.1-22.86V330.71c0-7.79-2.26-15.58-7-20-.75,21.48-27.64,20.22-27.64,44.72"/><path class="cls-2" d="M545.05,336.37V378.2H534.37V335.49c0-16.21-4.9-26.13-13.06-26.13-10.18,0-19.1,15.32-19.73,31.15V378.2H490.9V312.62l10.68-7.29v27c1.13-16.21,11.81-27,22.62-27,12.06,0,20.85,13.45,20.85,31"/><path class="cls-2" d="M552.84,292.9c0-4.15,2.77-7,7.16-7s7.29,2.89,7.29,7-2.89,7.16-7.29,7.16-7.16-2.89-7.16-7.16m2.26,85.3V312.62l10.68-7.16V378.2Z"/><path class="cls-2" d="M604.86,305.33c18,0,25.62,14.2,25.62,28.27v32.17c0,6.91.63,10.55,2,12.69-7.67,0-12.07-5.78-12.07-11.19v-4.64c-2.51,7.53-11.3,15.83-23.49,15.83-13.19,0-22.49-9.68-22.49-22.12,0-24.12,34.3-26.51,37.06-46.61A13.63,13.63,0,0,0,603,307c-8.17,0-12.19,5.4-12.19,14.7l-11.93,4.14c.75-12.31,13.31-20.48,26-20.48m-19.73,50.13c0,11.19,5.53,19,14.57,19,11.06,0,20.11-11.93,20.11-22.86V330.71c0-7.79-2.27-15.58-7-20-.75,21.48-27.64,20.22-27.64,44.72"/><path class="cls-2" d="M389.14,404.7V388.09h6.48a9.08,9.08,0,0,1,3.72.69,5.26,5.26,0,0,1,2.38,2,5.71,5.71,0,0,1,.83,3.11,5.62,5.62,0,0,1-.83,3.09,5.32,5.32,0,0,1-2.38,2,9.26,9.26,0,0,1-3.72.68h-5.18l1.07-1.09v6.15Zm2.37-5.91-1.07-1.16h5.11a5.26,5.26,0,0,0,3.45-1,3.84,3.84,0,0,0,0-5.52,5.37,5.37,0,0,0-3.45-1h-5.11l1.07-1.18Zm8.73,5.91-4.22-6h2.54l4.27,6Z"/><path class="cls-2" d="M423.38,404.89a9.66,9.66,0,0,1-3.52-.64,8.5,8.5,0,0,1-2.81-1.79,8.31,8.31,0,0,1-1.86-2.7,8.93,8.93,0,0,1,0-6.74,8.26,8.26,0,0,1,1.86-2.69,8.4,8.4,0,0,1,2.8-1.79,10,10,0,0,1,7,0,8.42,8.42,0,0,1,2.8,1.78,7.85,7.85,0,0,1,1.85,2.69,9.06,9.06,0,0,1,0,6.79,8,8,0,0,1-1.85,2.69,8.42,8.42,0,0,1-2.8,1.78,9.47,9.47,0,0,1-3.5.63m0-2.11a6.65,6.65,0,0,0,2.55-.48,5.8,5.8,0,0,0,2-1.34,6.3,6.3,0,0,0,1.36-2,7,7,0,0,0,0-5.08,6.41,6.41,0,0,0-1.36-2,6.08,6.08,0,0,0-2-1.34,7.21,7.21,0,0,0-5.12,0,6.38,6.38,0,0,0-2.06,1.34,6.25,6.25,0,0,0-1.36,2,6.83,6.83,0,0,0,0,5.08,6.14,6.14,0,0,0,1.36,2,6.06,6.06,0,0,0,2.06,1.34,6.72,6.72,0,0,0,2.57.48"/><path class="cls-2" d="M452.81,404.89a9.71,9.71,0,0,1-3.53-.64,8.6,8.6,0,0,1-2.81-1.79,8.28,8.28,0,0,1-1.85-2.7,8.93,8.93,0,0,1,0-6.74,8.24,8.24,0,0,1,1.85-2.69,8.5,8.5,0,0,1,2.8-1.79,10.07,10.07,0,0,1,7,0,8.42,8.42,0,0,1,2.8,1.78A8,8,0,0,1,461,393a9.19,9.19,0,0,1,0,6.79,8.19,8.19,0,0,1-1.85,2.69,8.42,8.42,0,0,1-2.8,1.78,9.51,9.51,0,0,1-3.5.63m0-2.11a6.65,6.65,0,0,0,2.55-.48,6,6,0,0,0,2-1.34,6.11,6.11,0,0,0,1.35-2,6.83,6.83,0,0,0,0-5.08,6.22,6.22,0,0,0-1.35-2,6.29,6.29,0,0,0-2-1.34,6.84,6.84,0,0,0-2.55-.47,7,7,0,0,0-2.58.47,6.44,6.44,0,0,0-2.05,1.34,6.25,6.25,0,0,0-1.36,2,6.83,6.83,0,0,0,0,5.08,6.13,6.13,0,0,0,3.41,3.37,6.77,6.77,0,0,0,2.58.48"/><path class="cls-2" d="M477.11,404.7h-2.37V388.09h11.72v2.06h-9.35Zm-.24-8.76h8.57v2h-8.57Z"/><polygon class="cls-2" points="502.71 404.7 502.71 390.15 497.02 390.15 497.02 388.09 510.76 388.09 510.76 390.15 505.06 390.15 505.06 404.7 502.71 404.7"/><path class="cls-2" d="M530.1,404.89a9.62,9.62,0,0,1-3.52-.64,8.65,8.65,0,0,1-2.82-1.79,8.49,8.49,0,0,1,0-12.13,8.6,8.6,0,0,1,2.8-1.79,10.07,10.07,0,0,1,7,0,8.42,8.42,0,0,1,2.8,1.78,7.85,7.85,0,0,1,1.85,2.69,9.19,9.19,0,0,1,0,6.79,8,8,0,0,1-1.85,2.69,8.42,8.42,0,0,1-2.8,1.78,9.47,9.47,0,0,1-3.5.63m0-2.11a6.65,6.65,0,0,0,2.55-.48,6,6,0,0,0,2-1.34,6.11,6.11,0,0,0,1.35-2,6.83,6.83,0,0,0,0-5.08,6.22,6.22,0,0,0-1.35-2,6.29,6.29,0,0,0-2-1.34,6.84,6.84,0,0,0-2.55-.47,7,7,0,0,0-2.58.47,6.44,6.44,0,0,0-2,1.34,6.25,6.25,0,0,0-1.36,2,6.83,6.83,0,0,0,0,5.08,6.13,6.13,0,0,0,3.41,3.37,6.81,6.81,0,0,0,2.58.48"/><path class="cls-2" d="M552,404.7V388.09h6.48a9.08,9.08,0,0,1,3.72.69,5.26,5.26,0,0,1,2.38,2,5.71,5.71,0,0,1,.83,3.11,5.62,5.62,0,0,1-.83,3.09,5.4,5.4,0,0,1-2.38,2,9.08,9.08,0,0,1-3.72.7h-5.18l1.07-1.12v6.15Zm2.37-5.91-1.07-1.19h5.11a5.31,5.31,0,0,0,3.45-1,3.83,3.83,0,0,0,0-5.51,5.37,5.37,0,0,0-3.45-1h-5.11L554.4,389Z"/><circle cx="153.19" cy="153.19" r="153.19"/><g id="Capa_2-2" data-name="Capa 2"><g id="svg32"><g id="g12"><path id="path4" class="cls-3" d="M244.45,132.92c-1.42-.36-2.48-.36-3.19.17-3.54,2.66-6.55,4.25-9,4.43a7.16,7.16,0,0,0-5.49,2.66l-2.47,2.3c-.18.35-1.24,1.06-4.43,1.42-.53.35-2.48,1.41-1.59,2.47a21.38,21.38,0,0,1,2.83,4.79c.89,3.54.18,7.08-3,10.62-1.24,1.41-2.83,1.77-5,1.59-1.06-.18-2.3-.89-2.3-2.12a3.64,3.64,0,0,1,1.77-3c2.12-2.66,2.12-5-.18-6.91a5,5,0,0,0-5,0c-3.19,1.42-3.72,4.25-1.6,6.91a10.6,10.6,0,0,1-.53,3,3.48,3.48,0,0,1-4.07,1.77c-3-1.6-4.43-4.43-4.07-9.39a26.18,26.18,0,0,1,4.78-5.84,18.58,18.58,0,0,0-7.79-7.43,18.47,18.47,0,0,0-7.79,7.43,21.05,21.05,0,0,1,3.89,5.84c.36,2.84.18,5.67-2.12,8.33-2.13,1.41-4.07,2.31-6.2,1.06-1.41-1.42-1.41-3-.53-5a4.55,4.55,0,0,0-.88-6.37,4.26,4.26,0,0,0-5.14,0c-2.12,1.59-1.77,3.72-.17,6.37a6.13,6.13,0,0,1-.18,2.66c-1.59,3.54-4.07,3-6.91,1.77-5.13-5-4.95-10.09,1.07-14.87a2.32,2.32,0,0,0-1.6-3.9c-4.24-1.23-8-3-10.44-6.54-2.48-5.14-5.67-5.14-8.14,0-2.48,3.17-6.37,5.3-10.45,6.53-2.3.36-2.83,2.31-1.77,3.72,6.2,5.13,6.2,10.09,1.24,15-2.83,1.24-5.31,1.42-6.9-1.77a4.84,4.84,0,0,1-.18-2.83c1.59-2.48,1.77-4.78-.18-6.19a4.5,4.5,0,0,0-5.31,0c-2.12,1.6-2.12,4.07-.53,6.38a5.17,5.17,0,0,1-.53,4.78c-2.3,1.24-4.07.53-6.19-.89a10,10,0,0,1-2.13-8.32,24.38,24.38,0,0,1,3.72-6.2A18.64,18.64,0,0,0,112,140a23.85,23.85,0,0,0-7.79,7.43,24.09,24.09,0,0,1,4.78,6.2c.53,4.78-.89,7.79-3.9,9.2-2.12.36-3.54,0-4.25-1.77a21.38,21.38,0,0,1-.35-2.83c2.12-2.65,1.42-5.49-1.59-6.9a5.27,5.27,0,0,0-5.14,0c-2.12,2.12-2.3,4.25-.17,6.9a3.43,3.43,0,0,1,1.77,2.83c.17,1.41-1.07,2.13-2.31,2.31a5.49,5.49,0,0,1-4.78-1.59A11.1,11.1,0,0,1,84.94,151a24,24,0,0,1,3-4.43c.88-1.06-1.06-2.3-1.77-2.48-3.19-.53-4.25-1.06-4.25-1.41l-2.48-2.48A8.33,8.33,0,0,0,74,137.7c-2.48-.18-5.66-1.77-9.2-4.43a3.49,3.49,0,0,0-3-.17,2.71,2.71,0,0,0-.89,3c12.75,11.33,17,24.25,18.06,31.16H227.81c1.06-6.73,5.31-19.83,17.88-30.81a6.18,6.18,0,0,0-1.24-3.54"/><path id="path6" class="cls-3" d="M71.85,130.79a43.39,43.39,0,0,1,11,4.25,8.68,8.68,0,0,0,6.55-1.24A97,97,0,0,1,120.71,117c1.77-.53,2.83,0,2.3,1.77a30,30,0,0,0-10.27,14.52c0,1.77,1.24,2.66,3.9,2.48a6.56,6.56,0,0,1,5,.35c1.77.36,3.18-.17,4.42-3,1.24-8,6.2-13.45,13.28-17.34,3.19-.36,4.78,1.06,4.25,4.07-2.66,2.83-4.78,5.84-5.49,9.2.18,3,1.77,4.07,4.43,3.19,1.59,0,2.83-1.42,3.89-4.07a6.88,6.88,0,0,1,12.22,0c1.06,2.65,2.3,4.07,3.71,4.07,2.83.88,4.43-.18,4.78-3.19a21.57,21.57,0,0,0-5.49-9.2c-.35-3,1.06-4.43,4.25-4.07,7.08,3.89,12,9.38,13.28,17.34,1.06,2.84,2.65,3.54,4.25,3a5.66,5.66,0,0,1,5.13-.35c2.66.18,3.89-.53,3.89-2.48a30,30,0,0,0-10.26-14.52c-.53-1.77.35-2.47,2.3-1.77a93.65,93.65,0,0,1,31.34,16.82,8.69,8.69,0,0,0,6.55,1.24c3.18-2.12,6.9-3.18,11-4.25,2.48-.35,3.37-2.3,2.66-5.13a11,11,0,0,0-8.14-4.78,4.21,4.21,0,0,1-3.72-1.24c-2.3-3.89-6.37-5.31-11.86-4.43-2.66-3-6.37-3.71-10.27-3.54-3.54-3.71-7.43-4.07-11.5-3.36-4.43-2.83-8.68-3.89-12.05-2.12a15.18,15.18,0,0,0-14.69,1.23,12.25,12.25,0,0,0-6.73-6.55V97.51h5.31V92.2H157V86.71h-9V92.2h-5.31v5.31H148v3.72a11.19,11.19,0,0,0-6.73,6.55,15.23,15.23,0,0,0-14.69-1.24c-3.72-1.77-7.79-.89-12,2.12-4.08-.88-8-.35-11.51,3.37-4.07-.18-7.61.35-10.27,3.54-5.49-.89-9.56.53-11.86,4.42a4.19,4.19,0,0,1-3.71,1.24A10.59,10.59,0,0,0,69,126c-.53,2.66.36,4.43,2.84,4.78m80.9-26.73c2.83,0,5.13,2.83,5.13,6.55s-2.3,6.73-5.13,6.73-5.31-3-5.31-6.73,2.48-6.55,5.31-6.55"/><path id="path8" class="cls-3" d="M78.39,191.16H227.28v-14H78.39Zm132.07-10.8a4.08,4.08,0,1,1-4.07,4.07h0a4,4,0,0,1,3.94-4.07h.13m-28.5,0a4.08,4.08,0,1,1-4.08,4.07h0a4.12,4.12,0,0,1,4.08-4.07m-29.21,0a4.08,4.08,0,1,1-4.07,4.07,4,4,0,0,1,3.94-4.07h.13m-29.21,0a4.08,4.08,0,1,1-4.07,4.07h0a4,4,0,0,1,3.94-4.07h.13m-28.68,0a4.08,4.08,0,1,1-4.07,4.07h0a4,4,0,0,1,3.94-4.07h.13"/><rect id="rect10" class="cls-3" x="78.39" y="170.27" width="148.88" height="3.72"/></g></g></g></g></g></svg>